<mxfile host="Electron" modified="2024-06-19T00:37:06.817Z" agent="Mozilla/5.0 (Macintosh; Intel Mac OS X 10_15_7) AppleWebKit/537.36 (KHTML, like Gecko) draw.io/21.8.2 Chrome/114.0.5735.289 Electron/25.8.1 Safari/537.36" etag="kj0esVsgxbr4GnpYo91-" version="21.8.2" type="device">
  <diagram name="第 1 页" id="QJpofNHBzGKkjjhYzp9O">
    <mxGraphModel dx="679" dy="540" grid="0" gridSize="10" guides="1" tooltips="1" connect="1" arrows="1" fold="1" page="0" pageScale="1" pageWidth="827" pageHeight="1169" math="0" shadow="0">
      <root>
        <mxCell id="0" />
        <mxCell id="1" parent="0" />
        <mxCell id="Pdjdoba8uWya8kQKOQx_-6" value="" style="edgeStyle=orthogonalEdgeStyle;rounded=0;orthogonalLoop=1;jettySize=auto;html=1;fillColor=#d5e8d4;strokeColor=#82b366;" edge="1" parent="1" source="Pdjdoba8uWya8kQKOQx_-1" target="Pdjdoba8uWya8kQKOQx_-5">
          <mxGeometry relative="1" as="geometry" />
        </mxCell>
        <mxCell id="Pdjdoba8uWya8kQKOQx_-1" value="Dataset" style="rounded=0;whiteSpace=wrap;html=1;" vertex="1" parent="1">
          <mxGeometry x="80" y="200" width="200" height="40" as="geometry" />
        </mxCell>
        <mxCell id="Pdjdoba8uWya8kQKOQx_-2" value="Caption 0" style="rounded=0;whiteSpace=wrap;html=1;fillColor=#f8cecc;strokeColor=#b85450;" vertex="1" parent="1">
          <mxGeometry x="80" y="240" width="80" height="40" as="geometry" />
        </mxCell>
        <mxCell id="Pdjdoba8uWya8kQKOQx_-5" value="Image 0" style="rounded=0;whiteSpace=wrap;html=1;fillColor=#d5e8d4;strokeColor=#82b366;" vertex="1" parent="1">
          <mxGeometry x="160" y="240" width="80" height="40" as="geometry" />
        </mxCell>
        <mxCell id="Pdjdoba8uWya8kQKOQx_-8" value="Caption 1" style="rounded=0;whiteSpace=wrap;html=1;fillColor=#f8cecc;strokeColor=#b85450;" vertex="1" parent="1">
          <mxGeometry x="80" y="280" width="80" height="40" as="geometry" />
        </mxCell>
        <mxCell id="Pdjdoba8uWya8kQKOQx_-9" value="Image 1" style="rounded=0;whiteSpace=wrap;html=1;fillColor=#d5e8d4;strokeColor=#82b366;" vertex="1" parent="1">
          <mxGeometry x="160" y="280" width="80" height="40" as="geometry" />
        </mxCell>
        <mxCell id="Pdjdoba8uWya8kQKOQx_-10" value="Caption n" style="rounded=0;whiteSpace=wrap;html=1;fillColor=#f8cecc;strokeColor=#b85450;" vertex="1" parent="1">
          <mxGeometry x="80" y="360" width="80" height="40" as="geometry" />
        </mxCell>
        <mxCell id="Pdjdoba8uWya8kQKOQx_-11" value="Image n" style="rounded=0;whiteSpace=wrap;html=1;fillColor=#d5e8d4;strokeColor=#82b366;" vertex="1" parent="1">
          <mxGeometry x="160" y="360" width="80" height="40" as="geometry" />
        </mxCell>
        <mxCell id="Pdjdoba8uWya8kQKOQx_-12" value="..." style="rounded=0;whiteSpace=wrap;html=1;fillColor=#f8cecc;strokeColor=#b85450;" vertex="1" parent="1">
          <mxGeometry x="80" y="320" width="80" height="40" as="geometry" />
        </mxCell>
        <mxCell id="Pdjdoba8uWya8kQKOQx_-13" value="..." style="rounded=0;whiteSpace=wrap;html=1;fillColor=#d5e8d4;strokeColor=#82b366;" vertex="1" parent="1">
          <mxGeometry x="160" y="320" width="80" height="40" as="geometry" />
        </mxCell>
        <mxCell id="Pdjdoba8uWya8kQKOQx_-14" value="id" style="rounded=0;whiteSpace=wrap;html=1;" vertex="1" parent="1">
          <mxGeometry x="240" y="240" width="40" height="40" as="geometry" />
        </mxCell>
        <mxCell id="Pdjdoba8uWya8kQKOQx_-15" value="id" style="rounded=0;whiteSpace=wrap;html=1;" vertex="1" parent="1">
          <mxGeometry x="240" y="280" width="40" height="40" as="geometry" />
        </mxCell>
        <mxCell id="Pdjdoba8uWya8kQKOQx_-16" value="id" style="rounded=0;whiteSpace=wrap;html=1;" vertex="1" parent="1">
          <mxGeometry x="240" y="240" width="40" height="40" as="geometry" />
        </mxCell>
        <mxCell id="Pdjdoba8uWya8kQKOQx_-17" value="id" style="rounded=0;whiteSpace=wrap;html=1;" vertex="1" parent="1">
          <mxGeometry x="240" y="280" width="40" height="40" as="geometry" />
        </mxCell>
        <mxCell id="Pdjdoba8uWya8kQKOQx_-18" value="id" style="rounded=0;whiteSpace=wrap;html=1;" vertex="1" parent="1">
          <mxGeometry x="240" y="360" width="40" height="40" as="geometry" />
        </mxCell>
        <mxCell id="Pdjdoba8uWya8kQKOQx_-19" value="..." style="rounded=0;whiteSpace=wrap;html=1;" vertex="1" parent="1">
          <mxGeometry x="240" y="320" width="40" height="40" as="geometry" />
        </mxCell>
        <mxCell id="Pdjdoba8uWya8kQKOQx_-59" style="edgeStyle=orthogonalEdgeStyle;rounded=0;orthogonalLoop=1;jettySize=auto;html=1;exitX=1;exitY=0.5;exitDx=0;exitDy=0;entryX=0;entryY=0.5;entryDx=0;entryDy=0;" edge="1" parent="1" source="Pdjdoba8uWya8kQKOQx_-20" target="Pdjdoba8uWya8kQKOQx_-21">
          <mxGeometry relative="1" as="geometry" />
        </mxCell>
        <mxCell id="Pdjdoba8uWya8kQKOQx_-60" style="edgeStyle=orthogonalEdgeStyle;rounded=0;orthogonalLoop=1;jettySize=auto;html=1;exitX=1;exitY=0.5;exitDx=0;exitDy=0;entryX=0;entryY=0.5;entryDx=0;entryDy=0;" edge="1" parent="1" source="Pdjdoba8uWya8kQKOQx_-20" target="Pdjdoba8uWya8kQKOQx_-22">
          <mxGeometry relative="1" as="geometry" />
        </mxCell>
        <mxCell id="Pdjdoba8uWya8kQKOQx_-20" value="Dataset" style="rounded=0;whiteSpace=wrap;html=1;" vertex="1" parent="1">
          <mxGeometry x="40" y="520" width="120" height="40" as="geometry" />
        </mxCell>
        <mxCell id="Pdjdoba8uWya8kQKOQx_-61" style="edgeStyle=orthogonalEdgeStyle;rounded=0;orthogonalLoop=1;jettySize=auto;html=1;exitX=1;exitY=0.5;exitDx=0;exitDy=0;" edge="1" parent="1" source="Pdjdoba8uWya8kQKOQx_-21" target="Pdjdoba8uWya8kQKOQx_-23">
          <mxGeometry relative="1" as="geometry" />
        </mxCell>
        <mxCell id="Pdjdoba8uWya8kQKOQx_-21" value="Image&lt;br&gt;(32, 3, 224, 224)" style="rounded=0;whiteSpace=wrap;html=1;fillColor=#d5e8d4;strokeColor=#82b366;" vertex="1" parent="1">
          <mxGeometry x="200" y="460" width="120" height="40" as="geometry" />
        </mxCell>
        <mxCell id="Pdjdoba8uWya8kQKOQx_-62" style="edgeStyle=orthogonalEdgeStyle;rounded=0;orthogonalLoop=1;jettySize=auto;html=1;exitX=1;exitY=0.5;exitDx=0;exitDy=0;" edge="1" parent="1" source="Pdjdoba8uWya8kQKOQx_-22" target="Pdjdoba8uWya8kQKOQx_-24">
          <mxGeometry relative="1" as="geometry" />
        </mxCell>
        <mxCell id="Pdjdoba8uWya8kQKOQx_-22" value="Caption&lt;br&gt;(32, 42)" style="rounded=0;whiteSpace=wrap;html=1;fillColor=#f8cecc;strokeColor=#b85450;" vertex="1" parent="1">
          <mxGeometry x="200" y="580" width="120" height="40" as="geometry" />
        </mxCell>
        <mxCell id="Pdjdoba8uWya8kQKOQx_-63" style="edgeStyle=orthogonalEdgeStyle;rounded=0;orthogonalLoop=1;jettySize=auto;html=1;exitX=1;exitY=0.5;exitDx=0;exitDy=0;" edge="1" parent="1" source="Pdjdoba8uWya8kQKOQx_-23" target="Pdjdoba8uWya8kQKOQx_-25">
          <mxGeometry relative="1" as="geometry" />
        </mxCell>
        <mxCell id="Pdjdoba8uWya8kQKOQx_-23" value="Image Encoder" style="rounded=0;whiteSpace=wrap;html=1;fillColor=#ffe6cc;strokeColor=#d79b00;" vertex="1" parent="1">
          <mxGeometry x="360" y="460" width="120" height="40" as="geometry" />
        </mxCell>
        <mxCell id="Pdjdoba8uWya8kQKOQx_-64" style="edgeStyle=orthogonalEdgeStyle;rounded=0;orthogonalLoop=1;jettySize=auto;html=1;exitX=1;exitY=0.5;exitDx=0;exitDy=0;" edge="1" parent="1" source="Pdjdoba8uWya8kQKOQx_-24" target="Pdjdoba8uWya8kQKOQx_-26">
          <mxGeometry relative="1" as="geometry" />
        </mxCell>
        <mxCell id="Pdjdoba8uWya8kQKOQx_-24" value="Text Encoder" style="rounded=0;whiteSpace=wrap;html=1;fillColor=#ffe6cc;strokeColor=#d79b00;" vertex="1" parent="1">
          <mxGeometry x="360" y="580" width="120" height="40" as="geometry" />
        </mxCell>
        <mxCell id="Pdjdoba8uWya8kQKOQx_-65" style="edgeStyle=orthogonalEdgeStyle;rounded=0;orthogonalLoop=1;jettySize=auto;html=1;exitX=1;exitY=0.5;exitDx=0;exitDy=0;" edge="1" parent="1" source="Pdjdoba8uWya8kQKOQx_-25" target="Pdjdoba8uWya8kQKOQx_-27">
          <mxGeometry relative="1" as="geometry" />
        </mxCell>
        <mxCell id="Pdjdoba8uWya8kQKOQx_-25" value="Image Feature&lt;br&gt;(32, 2048)" style="rounded=0;whiteSpace=wrap;html=1;fillColor=#d5e8d4;strokeColor=#82b366;glass=1;" vertex="1" parent="1">
          <mxGeometry x="520" y="460" width="120" height="40" as="geometry" />
        </mxCell>
        <mxCell id="Pdjdoba8uWya8kQKOQx_-66" style="edgeStyle=orthogonalEdgeStyle;rounded=0;orthogonalLoop=1;jettySize=auto;html=1;exitX=1;exitY=0.5;exitDx=0;exitDy=0;entryX=0;entryY=0.5;entryDx=0;entryDy=0;" edge="1" parent="1" source="Pdjdoba8uWya8kQKOQx_-26" target="Pdjdoba8uWya8kQKOQx_-28">
          <mxGeometry relative="1" as="geometry" />
        </mxCell>
        <mxCell id="Pdjdoba8uWya8kQKOQx_-26" value="Text Feature&lt;br&gt;(32, 768)" style="rounded=0;whiteSpace=wrap;html=1;fillColor=#f8cecc;strokeColor=#b85450;glass=1;" vertex="1" parent="1">
          <mxGeometry x="520" y="580" width="120" height="40" as="geometry" />
        </mxCell>
        <mxCell id="Pdjdoba8uWya8kQKOQx_-47" style="edgeStyle=orthogonalEdgeStyle;rounded=0;orthogonalLoop=1;jettySize=auto;html=1;exitX=1;exitY=0.5;exitDx=0;exitDy=0;" edge="1" parent="1" source="Pdjdoba8uWya8kQKOQx_-27" target="Pdjdoba8uWya8kQKOQx_-45">
          <mxGeometry relative="1" as="geometry" />
        </mxCell>
        <mxCell id="Pdjdoba8uWya8kQKOQx_-27" value="Project Head" style="rounded=0;whiteSpace=wrap;html=1;fillColor=#ffcc99;strokeColor=#36393d;" vertex="1" parent="1">
          <mxGeometry x="680" y="460" width="120" height="40" as="geometry" />
        </mxCell>
        <mxCell id="Pdjdoba8uWya8kQKOQx_-48" style="edgeStyle=orthogonalEdgeStyle;rounded=0;orthogonalLoop=1;jettySize=auto;html=1;exitX=1;exitY=0.5;exitDx=0;exitDy=0;" edge="1" parent="1" source="Pdjdoba8uWya8kQKOQx_-28" target="Pdjdoba8uWya8kQKOQx_-46">
          <mxGeometry relative="1" as="geometry" />
        </mxCell>
        <mxCell id="Pdjdoba8uWya8kQKOQx_-28" value="Project Head" style="rounded=0;whiteSpace=wrap;html=1;fillColor=#ffcc99;strokeColor=#36393d;" vertex="1" parent="1">
          <mxGeometry x="680" y="580" width="120" height="40" as="geometry" />
        </mxCell>
        <mxCell id="Pdjdoba8uWya8kQKOQx_-37" style="edgeStyle=orthogonalEdgeStyle;rounded=0;orthogonalLoop=1;jettySize=auto;html=1;exitX=1;exitY=0.75;exitDx=0;exitDy=0;entryX=0;entryY=0.5;entryDx=0;entryDy=0;" edge="1" parent="1" source="Pdjdoba8uWya8kQKOQx_-29" target="Pdjdoba8uWya8kQKOQx_-31">
          <mxGeometry relative="1" as="geometry" />
        </mxCell>
        <mxCell id="Pdjdoba8uWya8kQKOQx_-44" style="edgeStyle=orthogonalEdgeStyle;rounded=0;orthogonalLoop=1;jettySize=auto;html=1;exitX=1;exitY=0.25;exitDx=0;exitDy=0;entryX=0;entryY=0.5;entryDx=0;entryDy=0;" edge="1" parent="1" source="Pdjdoba8uWya8kQKOQx_-29" target="Pdjdoba8uWya8kQKOQx_-42">
          <mxGeometry relative="1" as="geometry" />
        </mxCell>
        <mxCell id="Pdjdoba8uWya8kQKOQx_-29" value="(Image Embedding)&lt;sup&gt;T&lt;/sup&gt;" style="rounded=0;whiteSpace=wrap;html=1;fillColor=#d5e8d4;strokeColor=#82b366;sketch=1;curveFitting=1;jiggle=2;" vertex="1" parent="1">
          <mxGeometry x="80" y="1050" width="120" height="40" as="geometry" />
        </mxCell>
        <mxCell id="Pdjdoba8uWya8kQKOQx_-38" style="edgeStyle=orthogonalEdgeStyle;rounded=0;orthogonalLoop=1;jettySize=auto;html=1;exitX=1;exitY=0.25;exitDx=0;exitDy=0;entryX=0;entryY=0.5;entryDx=0;entryDy=0;" edge="1" parent="1" source="Pdjdoba8uWya8kQKOQx_-30" target="Pdjdoba8uWya8kQKOQx_-31">
          <mxGeometry relative="1" as="geometry" />
        </mxCell>
        <mxCell id="Pdjdoba8uWya8kQKOQx_-40" style="edgeStyle=orthogonalEdgeStyle;rounded=0;orthogonalLoop=1;jettySize=auto;html=1;exitX=1;exitY=0.75;exitDx=0;exitDy=0;entryX=0;entryY=0.5;entryDx=0;entryDy=0;" edge="1" parent="1" source="Pdjdoba8uWya8kQKOQx_-30" target="Pdjdoba8uWya8kQKOQx_-39">
          <mxGeometry relative="1" as="geometry" />
        </mxCell>
        <mxCell id="Pdjdoba8uWya8kQKOQx_-30" value="Text Embedding" style="rounded=0;whiteSpace=wrap;html=1;fillColor=#f8cecc;strokeColor=#b85450;sketch=1;curveFitting=1;jiggle=2;" vertex="1" parent="1">
          <mxGeometry x="80" y="1110" width="120" height="40" as="geometry" />
        </mxCell>
        <mxCell id="Pdjdoba8uWya8kQKOQx_-31" value="Logits" style="rounded=0;whiteSpace=wrap;html=1;fillColor=#1ba1e2;fontColor=#ffffff;strokeColor=#006EAF;" vertex="1" parent="1">
          <mxGeometry x="280" y="1080" width="120" height="40" as="geometry" />
        </mxCell>
        <mxCell id="Pdjdoba8uWya8kQKOQx_-43" style="edgeStyle=orthogonalEdgeStyle;rounded=0;orthogonalLoop=1;jettySize=auto;html=1;exitX=1;exitY=0.5;exitDx=0;exitDy=0;entryX=0;entryY=0.5;entryDx=0;entryDy=0;" edge="1" parent="1" source="Pdjdoba8uWya8kQKOQx_-35" target="Pdjdoba8uWya8kQKOQx_-42">
          <mxGeometry relative="1" as="geometry" />
        </mxCell>
        <mxCell id="Pdjdoba8uWya8kQKOQx_-35" value="Image Embedding" style="rounded=0;whiteSpace=wrap;html=1;fillColor=#d5e8d4;strokeColor=#82b366;sketch=1;curveFitting=1;jiggle=2;" vertex="1" parent="1">
          <mxGeometry x="80" y="970" width="120" height="40" as="geometry" />
        </mxCell>
        <mxCell id="Pdjdoba8uWya8kQKOQx_-41" style="edgeStyle=orthogonalEdgeStyle;rounded=0;orthogonalLoop=1;jettySize=auto;html=1;exitX=1;exitY=0.5;exitDx=0;exitDy=0;entryX=0;entryY=0.5;entryDx=0;entryDy=0;" edge="1" parent="1" source="Pdjdoba8uWya8kQKOQx_-36" target="Pdjdoba8uWya8kQKOQx_-39">
          <mxGeometry relative="1" as="geometry" />
        </mxCell>
        <mxCell id="Pdjdoba8uWya8kQKOQx_-36" value="(Text Embedding)&lt;sup&gt;T&lt;/sup&gt;" style="rounded=0;whiteSpace=wrap;html=1;fillColor=#f8cecc;strokeColor=#b85450;sketch=1;curveFitting=1;jiggle=2;" vertex="1" parent="1">
          <mxGeometry x="80" y="1190" width="120" height="40" as="geometry" />
        </mxCell>
        <mxCell id="Pdjdoba8uWya8kQKOQx_-39" value="Text Similarity" style="rounded=0;whiteSpace=wrap;html=1;fillColor=#e51400;strokeColor=#B20000;fontColor=#ffffff;" vertex="1" parent="1">
          <mxGeometry x="280" y="1160" width="120" height="40" as="geometry" />
        </mxCell>
        <mxCell id="Pdjdoba8uWya8kQKOQx_-42" value="Image Similarity" style="rounded=0;whiteSpace=wrap;html=1;fillColor=#60a917;strokeColor=#2D7600;fontColor=#ffffff;" vertex="1" parent="1">
          <mxGeometry x="280" y="1000" width="120" height="40" as="geometry" />
        </mxCell>
        <mxCell id="Pdjdoba8uWya8kQKOQx_-45" value="Image Embedding&lt;br&gt;(32, 256)" style="rounded=0;whiteSpace=wrap;html=1;fillColor=#d5e8d4;strokeColor=#82b366;sketch=1;curveFitting=1;jiggle=2;" vertex="1" parent="1">
          <mxGeometry x="840" y="460" width="120" height="40" as="geometry" />
        </mxCell>
        <mxCell id="Pdjdoba8uWya8kQKOQx_-46" value="Text Embedding&lt;br&gt;(32, 256)" style="rounded=0;whiteSpace=wrap;html=1;fillColor=#f8cecc;strokeColor=#b85450;sketch=1;curveFitting=1;jiggle=2;" vertex="1" parent="1">
          <mxGeometry x="840" y="580" width="120" height="40" as="geometry" />
        </mxCell>
        <mxCell id="Pdjdoba8uWya8kQKOQx_-52" style="edgeStyle=orthogonalEdgeStyle;rounded=0;orthogonalLoop=1;jettySize=auto;html=1;exitX=1;exitY=0.5;exitDx=0;exitDy=0;entryX=0;entryY=0.5;entryDx=0;entryDy=0;" edge="1" parent="1" source="Pdjdoba8uWya8kQKOQx_-49" target="Pdjdoba8uWya8kQKOQx_-51">
          <mxGeometry relative="1" as="geometry" />
        </mxCell>
        <mxCell id="Pdjdoba8uWya8kQKOQx_-49" value="Image Similarity" style="rounded=0;whiteSpace=wrap;html=1;fillColor=#60a917;fontColor=#ffffff;strokeColor=#2D7600;" vertex="1" parent="1">
          <mxGeometry x="480" y="760" width="120" height="40" as="geometry" />
        </mxCell>
        <mxCell id="Pdjdoba8uWya8kQKOQx_-53" style="edgeStyle=orthogonalEdgeStyle;rounded=0;orthogonalLoop=1;jettySize=auto;html=1;exitX=1;exitY=0.5;exitDx=0;exitDy=0;" edge="1" parent="1" source="Pdjdoba8uWya8kQKOQx_-50" target="Pdjdoba8uWya8kQKOQx_-51">
          <mxGeometry relative="1" as="geometry" />
        </mxCell>
        <mxCell id="Pdjdoba8uWya8kQKOQx_-50" value="Text Similarity" style="rounded=0;whiteSpace=wrap;html=1;fillColor=#e51400;fontColor=#ffffff;strokeColor=#B20000;" vertex="1" parent="1">
          <mxGeometry x="480" y="840" width="120" height="40" as="geometry" />
        </mxCell>
        <mxCell id="Pdjdoba8uWya8kQKOQx_-55" style="edgeStyle=orthogonalEdgeStyle;rounded=0;orthogonalLoop=1;jettySize=auto;html=1;exitX=1;exitY=0.5;exitDx=0;exitDy=0;entryX=0;entryY=0.5;entryDx=0;entryDy=0;" edge="1" parent="1" source="Pdjdoba8uWya8kQKOQx_-51" target="Pdjdoba8uWya8kQKOQx_-54">
          <mxGeometry relative="1" as="geometry" />
        </mxCell>
        <mxCell id="Pdjdoba8uWya8kQKOQx_-51" value="Total Similarity&lt;br&gt;&lt;br&gt;" style="rounded=0;whiteSpace=wrap;html=1;" vertex="1" parent="1">
          <mxGeometry x="640" y="760" width="120" height="120" as="geometry" />
        </mxCell>
        <mxCell id="Pdjdoba8uWya8kQKOQx_-68" style="edgeStyle=orthogonalEdgeStyle;rounded=0;orthogonalLoop=1;jettySize=auto;html=1;exitX=1;exitY=0.5;exitDx=0;exitDy=0;" edge="1" parent="1" source="Pdjdoba8uWya8kQKOQx_-54" target="Pdjdoba8uWya8kQKOQx_-67">
          <mxGeometry relative="1" as="geometry" />
        </mxCell>
        <mxCell id="Pdjdoba8uWya8kQKOQx_-54" value="Softmax" style="rounded=0;whiteSpace=wrap;html=1;" vertex="1" parent="1">
          <mxGeometry x="800" y="800" width="120" height="40" as="geometry" />
        </mxCell>
        <mxCell id="Pdjdoba8uWya8kQKOQx_-57" value="" style="endArrow=none;html=1;rounded=0;" edge="1" parent="1">
          <mxGeometry width="50" height="50" relative="1" as="geometry">
            <mxPoint x="650" y="821.04" as="sourcePoint" />
            <mxPoint x="750" y="821" as="targetPoint" />
          </mxGeometry>
        </mxCell>
        <mxCell id="Pdjdoba8uWya8kQKOQx_-58" value="2 * temperature" style="text;html=1;strokeColor=none;fillColor=none;align=center;verticalAlign=middle;whiteSpace=wrap;rounded=0;" vertex="1" parent="1">
          <mxGeometry x="600" y="815" width="200" height="30" as="geometry" />
        </mxCell>
        <mxCell id="Pdjdoba8uWya8kQKOQx_-67" value="Target" style="rounded=0;whiteSpace=wrap;html=1;fillColor=#e1d5e7;strokeColor=#9673a6;" vertex="1" parent="1">
          <mxGeometry x="960" y="800" width="120" height="40" as="geometry" />
        </mxCell>
        <mxCell id="Pdjdoba8uWya8kQKOQx_-76" style="edgeStyle=orthogonalEdgeStyle;rounded=0;orthogonalLoop=1;jettySize=auto;html=1;exitX=1;exitY=0.5;exitDx=0;exitDy=0;entryX=0;entryY=0.5;entryDx=0;entryDy=0;" edge="1" parent="1" source="Pdjdoba8uWya8kQKOQx_-69" target="Pdjdoba8uWya8kQKOQx_-72">
          <mxGeometry relative="1" as="geometry" />
        </mxCell>
        <mxCell id="Pdjdoba8uWya8kQKOQx_-69" value="Target" style="rounded=0;whiteSpace=wrap;html=1;fillColor=#e1d5e7;strokeColor=#9673a6;" vertex="1" parent="1">
          <mxGeometry x="1160" y="760" width="120" height="40" as="geometry" />
        </mxCell>
        <mxCell id="Pdjdoba8uWya8kQKOQx_-77" style="edgeStyle=orthogonalEdgeStyle;rounded=0;orthogonalLoop=1;jettySize=auto;html=1;exitX=1;exitY=0.5;exitDx=0;exitDy=0;entryX=0;entryY=0.5;entryDx=0;entryDy=0;" edge="1" parent="1" source="Pdjdoba8uWya8kQKOQx_-71" target="Pdjdoba8uWya8kQKOQx_-72">
          <mxGeometry relative="1" as="geometry" />
        </mxCell>
        <mxCell id="Pdjdoba8uWya8kQKOQx_-71" value="Logits" style="rounded=0;whiteSpace=wrap;html=1;fillColor=#1ba1e2;fontColor=#ffffff;strokeColor=#006EAF;" vertex="1" parent="1">
          <mxGeometry x="1160" y="840" width="120" height="40" as="geometry" />
        </mxCell>
        <mxCell id="Pdjdoba8uWya8kQKOQx_-81" style="edgeStyle=orthogonalEdgeStyle;rounded=0;orthogonalLoop=1;jettySize=auto;html=1;exitX=1;exitY=0.5;exitDx=0;exitDy=0;entryX=0;entryY=0.5;entryDx=0;entryDy=0;" edge="1" parent="1" source="Pdjdoba8uWya8kQKOQx_-72" target="Pdjdoba8uWya8kQKOQx_-80">
          <mxGeometry relative="1" as="geometry" />
        </mxCell>
        <mxCell id="Pdjdoba8uWya8kQKOQx_-72" value="Cross Entropy" style="rounded=0;whiteSpace=wrap;html=1;" vertex="1" parent="1">
          <mxGeometry x="1320" y="800" width="120" height="40" as="geometry" />
        </mxCell>
        <mxCell id="Pdjdoba8uWya8kQKOQx_-78" style="edgeStyle=orthogonalEdgeStyle;rounded=0;orthogonalLoop=1;jettySize=auto;html=1;exitX=1;exitY=0.5;exitDx=0;exitDy=0;entryX=0;entryY=0.5;entryDx=0;entryDy=0;" edge="1" parent="1" source="Pdjdoba8uWya8kQKOQx_-73" target="Pdjdoba8uWya8kQKOQx_-75">
          <mxGeometry relative="1" as="geometry" />
        </mxCell>
        <mxCell id="Pdjdoba8uWya8kQKOQx_-73" value="(Target)&lt;sup&gt;T&lt;/sup&gt;" style="rounded=0;whiteSpace=wrap;html=1;fillColor=#e1d5e7;strokeColor=#9673a6;" vertex="1" parent="1">
          <mxGeometry x="1160" y="920" width="120" height="40" as="geometry" />
        </mxCell>
        <mxCell id="Pdjdoba8uWya8kQKOQx_-79" style="edgeStyle=orthogonalEdgeStyle;rounded=0;orthogonalLoop=1;jettySize=auto;html=1;exitX=1;exitY=0.5;exitDx=0;exitDy=0;entryX=0;entryY=0.5;entryDx=0;entryDy=0;" edge="1" parent="1" source="Pdjdoba8uWya8kQKOQx_-74" target="Pdjdoba8uWya8kQKOQx_-75">
          <mxGeometry relative="1" as="geometry" />
        </mxCell>
        <mxCell id="Pdjdoba8uWya8kQKOQx_-74" value="(Logits)&lt;sup&gt;T&lt;/sup&gt;" style="rounded=0;whiteSpace=wrap;html=1;fillColor=#1ba1e2;fontColor=#ffffff;strokeColor=#006EAF;" vertex="1" parent="1">
          <mxGeometry x="1160" y="1000" width="120" height="40" as="geometry" />
        </mxCell>
        <mxCell id="Pdjdoba8uWya8kQKOQx_-82" style="edgeStyle=orthogonalEdgeStyle;rounded=0;orthogonalLoop=1;jettySize=auto;html=1;exitX=1;exitY=0.5;exitDx=0;exitDy=0;entryX=0;entryY=0.5;entryDx=0;entryDy=0;" edge="1" parent="1" source="Pdjdoba8uWya8kQKOQx_-75" target="Pdjdoba8uWya8kQKOQx_-80">
          <mxGeometry relative="1" as="geometry" />
        </mxCell>
        <mxCell id="Pdjdoba8uWya8kQKOQx_-75" value="Cross Entropy" style="rounded=0;whiteSpace=wrap;html=1;" vertex="1" parent="1">
          <mxGeometry x="1320" y="960" width="120" height="40" as="geometry" />
        </mxCell>
        <mxCell id="Pdjdoba8uWya8kQKOQx_-85" style="edgeStyle=orthogonalEdgeStyle;rounded=0;orthogonalLoop=1;jettySize=auto;html=1;exitX=1;exitY=0.5;exitDx=0;exitDy=0;entryX=0;entryY=0.5;entryDx=0;entryDy=0;" edge="1" parent="1" source="Pdjdoba8uWya8kQKOQx_-80">
          <mxGeometry relative="1" as="geometry">
            <mxPoint x="1640" y="899.9999999999998" as="targetPoint" />
          </mxGeometry>
        </mxCell>
        <mxCell id="Pdjdoba8uWya8kQKOQx_-80" value="Mean" style="rounded=0;whiteSpace=wrap;html=1;" vertex="1" parent="1">
          <mxGeometry x="1480" y="880" width="120" height="40" as="geometry" />
        </mxCell>
        <mxCell id="Pdjdoba8uWya8kQKOQx_-86" value="Loss" style="rounded=0;whiteSpace=wrap;html=1;fillColor=#ffff88;strokeColor=#36393d;" vertex="1" parent="1">
          <mxGeometry x="1640" y="880" width="120" height="40" as="geometry" />
        </mxCell>
        <mxCell id="Pdjdoba8uWya8kQKOQx_-87" value="" style="shape=sumEllipse;perimeter=ellipsePerimeter;whiteSpace=wrap;html=1;backgroundOutline=1;" vertex="1" parent="1">
          <mxGeometry x="230" y="1088" width="20" height="20" as="geometry" />
        </mxCell>
        <mxCell id="Pdjdoba8uWya8kQKOQx_-94" style="edgeStyle=orthogonalEdgeStyle;rounded=0;orthogonalLoop=1;jettySize=auto;html=1;exitX=0.5;exitY=1;exitDx=0;exitDy=0;" edge="1" parent="1" source="Pdjdoba8uWya8kQKOQx_-91" target="Pdjdoba8uWya8kQKOQx_-93">
          <mxGeometry relative="1" as="geometry" />
        </mxCell>
        <mxCell id="Pdjdoba8uWya8kQKOQx_-91" value="Feature&lt;br&gt;(32, embed_dim)" style="rounded=0;whiteSpace=wrap;html=1;fillColor=#e1d5e7;strokeColor=#9673a6;glass=1;" vertex="1" parent="1">
          <mxGeometry x="1160" y="440" width="200" height="40" as="geometry" />
        </mxCell>
        <mxCell id="Pdjdoba8uWya8kQKOQx_-112" style="edgeStyle=orthogonalEdgeStyle;rounded=0;orthogonalLoop=1;jettySize=auto;html=1;exitX=1;exitY=0.5;exitDx=0;exitDy=0;entryX=0;entryY=0.5;entryDx=0;entryDy=0;" edge="1" parent="1" source="Pdjdoba8uWya8kQKOQx_-93" target="Pdjdoba8uWya8kQKOQx_-103">
          <mxGeometry relative="1" as="geometry" />
        </mxCell>
        <mxCell id="Pdjdoba8uWya8kQKOQx_-93" value="Linear(embed_dim, project_dim)" style="rounded=0;whiteSpace=wrap;html=1;" vertex="1" parent="1">
          <mxGeometry x="1160" y="500" width="200" height="40" as="geometry" />
        </mxCell>
        <mxCell id="Pdjdoba8uWya8kQKOQx_-99" style="edgeStyle=orthogonalEdgeStyle;rounded=0;orthogonalLoop=1;jettySize=auto;html=1;exitX=0.5;exitY=1;exitDx=0;exitDy=0;" edge="1" parent="1" source="Pdjdoba8uWya8kQKOQx_-95" target="Pdjdoba8uWya8kQKOQx_-97">
          <mxGeometry relative="1" as="geometry" />
        </mxCell>
        <mxCell id="Pdjdoba8uWya8kQKOQx_-95" value="Gelu" style="rounded=0;whiteSpace=wrap;html=1;" vertex="1" parent="1">
          <mxGeometry x="1619" y="500" width="200" height="40" as="geometry" />
        </mxCell>
        <mxCell id="Pdjdoba8uWya8kQKOQx_-114" style="edgeStyle=orthogonalEdgeStyle;rounded=0;orthogonalLoop=1;jettySize=auto;html=1;exitX=0;exitY=0.5;exitDx=0;exitDy=0;entryX=1;entryY=0.5;entryDx=0;entryDy=0;" edge="1" parent="1" source="Pdjdoba8uWya8kQKOQx_-97" target="Pdjdoba8uWya8kQKOQx_-100">
          <mxGeometry relative="1" as="geometry" />
        </mxCell>
        <mxCell id="Pdjdoba8uWya8kQKOQx_-97" value="Linear(project_dim, project_dim)" style="rounded=0;whiteSpace=wrap;html=1;" vertex="1" parent="1">
          <mxGeometry x="1619" y="560" width="200" height="40" as="geometry" />
        </mxCell>
        <mxCell id="Pdjdoba8uWya8kQKOQx_-118" style="edgeStyle=orthogonalEdgeStyle;rounded=0;orthogonalLoop=1;jettySize=auto;html=1;exitX=0;exitY=0.5;exitDx=0;exitDy=0;entryX=1;entryY=0.5;entryDx=0;entryDy=0;" edge="1" parent="1" source="Pdjdoba8uWya8kQKOQx_-100" target="Pdjdoba8uWya8kQKOQx_-117">
          <mxGeometry relative="1" as="geometry" />
        </mxCell>
        <mxCell id="Pdjdoba8uWya8kQKOQx_-100" value="PLUS" style="rounded=0;whiteSpace=wrap;html=1;" vertex="1" parent="1">
          <mxGeometry x="1389" y="560" width="200" height="40" as="geometry" />
        </mxCell>
        <mxCell id="Pdjdoba8uWya8kQKOQx_-113" style="edgeStyle=orthogonalEdgeStyle;rounded=0;orthogonalLoop=1;jettySize=auto;html=1;exitX=1;exitY=0.5;exitDx=0;exitDy=0;entryX=0;entryY=0.5;entryDx=0;entryDy=0;" edge="1" parent="1" source="Pdjdoba8uWya8kQKOQx_-103" target="Pdjdoba8uWya8kQKOQx_-95">
          <mxGeometry relative="1" as="geometry" />
        </mxCell>
        <mxCell id="Pdjdoba8uWya8kQKOQx_-115" style="edgeStyle=orthogonalEdgeStyle;rounded=0;orthogonalLoop=1;jettySize=auto;html=1;exitX=0.5;exitY=1;exitDx=0;exitDy=0;entryX=0.5;entryY=0;entryDx=0;entryDy=0;" edge="1" parent="1" source="Pdjdoba8uWya8kQKOQx_-103" target="Pdjdoba8uWya8kQKOQx_-100">
          <mxGeometry relative="1" as="geometry" />
        </mxCell>
        <mxCell id="Pdjdoba8uWya8kQKOQx_-103" value="Projected&lt;br&gt;(32, 256)" style="rounded=0;whiteSpace=wrap;html=1;" vertex="1" parent="1">
          <mxGeometry x="1389" y="500" width="200" height="40" as="geometry" />
        </mxCell>
        <mxCell id="Pdjdoba8uWya8kQKOQx_-108" value="&lt;font color=&quot;#000000&quot;&gt;Embedding&lt;br&gt;(32, 256)&lt;br&gt;&lt;/font&gt;" style="rounded=0;whiteSpace=wrap;html=1;fillColor=#1ba1e2;fontColor=#ffffff;strokeColor=#006EAF;sketch=1;curveFitting=1;jiggle=2;" vertex="1" parent="1">
          <mxGeometry x="1160" y="620" width="200" height="40" as="geometry" />
        </mxCell>
        <mxCell id="Pdjdoba8uWya8kQKOQx_-119" style="edgeStyle=orthogonalEdgeStyle;rounded=0;orthogonalLoop=1;jettySize=auto;html=1;exitX=0.5;exitY=1;exitDx=0;exitDy=0;entryX=0.5;entryY=0;entryDx=0;entryDy=0;" edge="1" parent="1" source="Pdjdoba8uWya8kQKOQx_-117" target="Pdjdoba8uWya8kQKOQx_-108">
          <mxGeometry relative="1" as="geometry" />
        </mxCell>
        <mxCell id="Pdjdoba8uWya8kQKOQx_-117" value="Layer Norm" style="rounded=0;whiteSpace=wrap;html=1;" vertex="1" parent="1">
          <mxGeometry x="1160" y="560" width="200" height="40" as="geometry" />
        </mxCell>
        <mxCell id="Pdjdoba8uWya8kQKOQx_-120" value="" style="shape=image;verticalLabelPosition=bottom;labelBackgroundColor=default;verticalAlign=top;aspect=fixed;imageAspect=0;image=data:image/png,iVBORw0KGgoAAAANSUhEUgAABXwAAAFSCAYAAABBmBcOAAAMP2lDQ1BJQ0MgUHJvZmlsZQAASImVVwdYU8kWnluSkEBoAQSkhN4EASkBpITQQu8INkISIJQYE4KKHV1UcO1iARu6KqJgBcSO2FkEe18sKCjrYsGuvEkBXfeV7833zZ3//nPmP2fOnXvnDgAaJzkiUR6qCUC+sEAcHxpIH5OaRid1AwIwgtUEmHG4EhEzNjYSwDLY/r28uwEQWXvVUab1z/7/WrR4fAkXACQW4gyehJsP8UEA8EquSFwAAFHGW0wpEMkwrEBHDAOEeKEMZylwpQxnKPBeuU1iPAviFgBU1DgccRYA6u2Qpxdys6CGeh/EzkKeQAiABh1iv/z8STyI0yG2hTYiiGX6jIwfdLL+ppkxpMnhZA1hxVzkRSVIIBHlcab9n+n43yU/TzrowxpWtWxxWLxszjBvt3InRciwGsS9wozoGIi1If4g4MntIUYp2dKwJIU9asSVsGDOgB7EzjxOUATERhCHCPOiI5V8RqYghA0xXCHoVEEBOxFifYgX8iXBCUqbzeJJ8UpfaH2mmMVU8uc5Yrlfma8H0twkplL/dTafrdTH1IuyE1MgpkBsWShIjoZYHWInSW5ChNJmdFE2K3rQRiyNl8VvCXE8XxgaqNDHCjPFIfFK+9J8yeB8sc3ZAna0Eu8vyE4MU+QHa+Fy5PHDuWDtfCEzaVCHLxkTOTgXHj8oWDF3rJsvTEpQ6nwQFQTGK8biFFFerNIeN+fnhcp4c4jdJIUJyrF4cgFckAp9PFNUEJuoiBMvyuGExyriwZeBSMACQYAOpLBmgEkgBwjaeht64Z2iJwRwgBhkAT5wVDKDI1LkPUJ4TQBF4E+I+EAyNC5Q3ssHhZD/OsQqro4gU95bKB+RC55CnA8iQB68l8pHCYe8JYMnkBH8wzsHVi6MNw9WWf+/5wfZ7wwTMpFKRjroka4xaEkMJgYRw4ghRDvcEPfDffBIeA2A1RVn4F6D8/huT3hK6CA8IlwndBJuTxQUi3+KMgp0Qv0QZS4yfswFbg013fFA3BeqQ2VcDzcEjrgb9MPE/aFnd8iylHHLskL/SftvM/jhaSjtyM5klDyMHEC2/Xmkur26+5CKLNc/5kcRa8ZQvllDPT/7Z/2QfR5sI362xBZiB7Bz2CnsAnYUawB07ATWiLVix2R4aHU9ka+uQW/x8nhyoY7gH/4Gn6wskxLnGuce5y+KvgL+VNk3GrAmiaaJBVnZBXQm3BH4dLaQ6zSC7urs6gaAbH9RfL7exMn3DUSv9Ts37w8AfE8MDAwc+c6FnwBgnyd8/Q9/52wZcOtQBeD8Ya5UXKjgcNmFAL8SGvBNM4B7lwWwhfNxBR7ABwSAYBAOYkAiSAUTYPTZcJ2LwRQwA8wFJaAMLAOrwXqwCWwFO8EesB80gKPgFDgLLoF2cB3chaunC7wAfeAd+IwgCAmhIjTEADFFrBAHxBVhIH5IMBKJxCOpSDqShQgRKTIDmYeUISuQ9cgWpBrZhxxGTiEXkA7kNvIQ6UFeI59QDFVDdVBj1BodiTJQJhqBJqLj0Sx0MlqEzkeXoGvRKnQ3Wo+eQi+h19FO9AXajwFMFdPDzDBHjIGxsBgsDcvExNgsrBQrx6qwWqwJPuerWCfWi33EiTgNp+OOcAWH4Uk4F5+Mz8IX4+vxnXg93oJfxR/iffg3ApVgRHAgeBPYhDGELMIUQgmhnLCdcIhwBr5LXYR3RCJRj2hD9ITvYioxhziduJi4gVhHPEnsID4m9pNIJAOSA8mXFEPikApIJaR1pN2kE6QrpC7SBxVVFVMVV5UQlTQVoUqxSrnKLpXjKldUnql8JmuSrcje5BgyjzyNvJS8jdxEvkzuIn+maFFsKL6UREoOZS5lLaWWcoZyj/JGVVXVXNVLNU5VoDpHda3qXtXzqg9VP6ppq9mrsdTGqUnVlqjtUDupdlvtDZVKtaYGUNOoBdQl1GrqaeoD6gd1mrqTOludpz5bvUK9Xv2K+ksNsoaVBlNjgkaRRrnGAY3LGr2aZE1rTZYmR3OWZoXmYc2bmv1aNC0XrRitfK3FWru0Lmh1a5O0rbWDtXna87W3ap/WfkzDaBY0Fo1Lm0fbRjtD69Ih6tjosHVydMp09ui06fTpauu66SbrTtWt0D2m26mH6VnrsfXy9Jbq7de7ofdpmPEw5jD+sEXDaoddGfZef7h+gD5fv1S/Tv+6/icDukGwQa7BcoMGg/uGuKG9YZzhFMONhmcMe4frDPcZzh1eOnz/8DtGqJG9UbzRdKOtRq1G/cYmxqHGIuN1xqeNe030TAJMckxWmRw36TGlmfqZCkxXmZ4wfU7XpTPpefS19BZ6n5mRWZiZ1GyLWZvZZ3Mb8yTzYvM68/sWFAuGRabFKotmiz5LU8soyxmWNZZ3rMhWDKtsqzVW56zeW9tYp1gvsG6w7rbRt2HbFNnU2Nyzpdr62062rbK9Zke0Y9jl2m2wa7dH7d3ts+0r7C87oA4eDgKHDQ4dIwgjvEYIR1SNuOmo5sh0LHSscXzopOcU6VTs1OD0cqTlyLSRy0eeG/nN2d05z3mb810XbZdwl2KXJpfXrvauXNcK12ujqKNCRs0e1TjqlZuDG99to9std5p7lPsC92b3rx6eHmKPWo8eT0vPdM9Kz5sMHUYsYzHjvBfBK9BrttdRr4/eHt4F3vu9//Jx9Mn12eXTPdpmNH/0ttGPfc19Ob5bfDv96H7pfpv9Ov3N/Dn+Vf6PAiwCeAHbA54x7Zg5zN3Ml4HOgeLAQ4HvWd6smayTQVhQaFBpUFuwdnBS8PrgByHmIVkhNSF9oe6h00NPhhHCIsKWh91kG7O57Gp2X7hn+Mzwlgi1iISI9RGPIu0jxZFNUWhUeNTKqHvRVtHC6IYYEMOOWRlzP9YmdnLskThiXGxcRdzTeJf4GfHnEmgJExN2JbxLDExcmng3yTZJmtScrJE8Lrk6+X1KUMqKlM4xI8fMHHMp1TBVkNqYRkpLTtue1j82eOzqsV3j3MeVjLsx3mb81PEXJhhOyJtwbKLGRM7EA+mE9JT0XelfODGcKk5/BjujMqOPy+Ku4b7gBfBW8Xr4vvwV/GeZvpkrMruzfLNWZvVk+2eXZ/cKWIL1glc5YTmbct7nxuTuyB3IS8mry1fJT88/LNQW5gpbJplMmjqpQ+QgKhF1TvaevHpynzhCvF2CSMZLGgt04I98q9RW+ov0YaFfYUXhhynJUw5M1ZoqnNo6zX7aomnPikKKfpuOT+dOb55hNmPujIczmTO3zEJmZcxqnm0xe/7srjmhc3bOpczNnft7sXPxiuK381LmNc03nj9n/uNfQn+pKVEvEZfcXOCzYNNCfKFgYduiUYvWLfpWyiu9WOZcVl72ZTF38cVfXX5d++vAkswlbUs9lm5cRlwmXHZjuf/ynSu0VhSteLwyamX9Kvqq0lVvV09cfaHcrXzTGsoa6ZrOtZFrG9dZrlu27sv67PXXKwIr6iqNKhdVvt/A23BlY8DG2k3Gm8o2fdos2HxrS+iW+irrqvKtxK2FW59uS9527jfGb9XbDbeXbf+6Q7ijc2f8zpZqz+rqXUa7ltagNdKant3jdrfvCdrTWOtYu6VOr65sL9gr3ft8X/q+G/sj9jcfYByoPWh1sPIQ7VBpPVI/rb6vIbuhszG1seNw+OHmJp+mQ0ecjuw4ana04pjusaXHKcfnHx84UXSi/6ToZO+prFOPmyc23z095vS1lriWtjMRZ86fDTl7+hzz3InzvuePXvC+cPgi42LDJY9L9a3urYd+d//9UJtHW/1lz8uN7V7tTR2jO45f8b9y6mrQ1bPX2NcuXY++3nEj6catm+Nudt7i3eq+nXf71Z3CO5/vzrlHuFd6X/N++QOjB1V/2P1R1+nReexh0MPWRwmP7j7mPn7xRPLkS9f8p9Sn5c9Mn1V3u3Yf7QnpaX8+9nnXC9GLz70lf2r9WfnS9uXBvwL+au0b09f1Svxq4PXiNwZvdrx1e9vcH9v/4F3+u8/vSz8YfNj5kfHx3KeUT88+T/lC+rL2q93Xpm8R3+4N5A8MiDhijvxXAIMVzcwE4PUOAKipANDg+YwyVnH+kxdEcWaVI/CfsOKMKC8eANTC//e4Xvh3cxOAvdvg8Qvqa4wDIJYKQKIXQEeNGqqDZzX5uVJWiPAcsDn+a0Z+Bvg3RXHm/CHun1sgU3UDP7f/ArexfHNdv/ZVAAAAimVYSWZNTQAqAAAACAAEARoABQAAAAEAAAA+ARsABQAAAAEAAABGASgAAwAAAAEAAgAAh2kABAAAAAEAAABOAAAAAAAAAJAAAAABAAAAkAAAAAEAA5KGAAcAAAASAAAAeKACAAQAAAABAAAFfKADAAQAAAABAAABUgAAAABBU0NJSQAAAFNjcmVlbnNob3RuDFQVAAAACXBIWXMAABYlAAAWJQFJUiTwAAAB12lUWHRYTUw6Y29tLmFkb2JlLnhtcAAAAAAAPHg6eG1wbWV0YSB4bWxuczp4PSJhZG9iZTpuczptZXRhLyIgeDp4bXB0az0iWE1QIENvcmUgNi4wLjAiPgogICA8cmRmOlJERiB4bWxuczpyZGY9Imh0dHA6Ly93d3cudzMub3JnLzE5OTkvMDIvMjItcmRmLXN5bnRheC1ucyMiPgogICAgICA8cmRmOkRlc2NyaXB0aW9uIHJkZjphYm91dD0iIgogICAgICAgICAgICB4bWxuczpleGlmPSJodHRwOi8vbnMuYWRvYmUuY29tL2V4aWYvMS4wLyI+CiAgICAgICAgIDxleGlmOlBpeGVsWURpbWVuc2lvbj4zMzg8L2V4aWY6UGl4ZWxZRGltZW5zaW9uPgogICAgICAgICA8ZXhpZjpQaXhlbFhEaW1lbnNpb24+MTQwNDwvZXhpZjpQaXhlbFhEaW1lbnNpb24+CiAgICAgICAgIDxleGlmOlVzZXJDb21tZW50PlNjcmVlbnNob3Q8L2V4aWY6VXNlckNvbW1lbnQ+CiAgICAgIDwvcmRmOkRlc2NyaXB0aW9uPgogICA8L3JkZjpSREY+CjwveDp4bXBtZXRhPgq6kEwJAAAAHGlET1QAAAACAAAAAAAAAKkAAAAoAAAAqQAAAKkAAJ6htbc3YAAAQABJREFUeAHsnQe8/jT1//NlyJK9QfYGB8oScSE4UUEFAWUjIlPGT5YIKHuKIKJsWQKKiAioDEVQAREQRAVkioslssR5/3lXT//nyU3bZ/TuT16ve9unTdPknTQ5OTlJpg1FF+REQAREQAREQAREQAREQAREQAREQAREQAREQAREQAQmPIFpUvhO+DxUAkRABERABERABERABERABERABERABERABERABESgICCFrwqCCIiACIiACIiACIiACIiACIiACIiACIiACIiACEwSAlL4TpKMVDJEQAREQAREQAREQAREQAREQAREQAREQAREQAREoFbh++STT4qQCIiACIiACIiACIiACIiACIiACIiACIiACIiACIjAOCAw33zzNcZCCt9GRPIgAiIgAiIgAiIgAiIgAiIgAiIgAiIgAiIgAiIgAmNPQArfsc8DxUAEREAEREAEREAEREAEREAEREAEREAEREAEREAEWiEghW8rGBWICIiACIiACIiACIiACIiACIiACIiACIiACIiACIw9ASl8xz4PFAMREAEREAEREAEREAEREAEREAEREAEREAEREAERaIWAFL6tYFQgIiACIiACIiACIiACIiACIiACIiACIiACIiACIjD2BKTwHfs8UAxEQAREQAREQAREQAREQAREQAREQAREQAREQAREoBUCUvi2glGBiIAIiIAIiIAIiIAIiIAIiIAIiIAIiIAIiIAIiMDYE5DCd+zzQDEQAREQAREQAREQAREQAREQAREQAREQAREQAREQgVYISOHbCkYFIgIiIAIiIAIiIAIiIAIiIAIiIAIiIAIiIAIiIAJjT0AK37HPA8VABERABERABERABERABERABERABERABERABERABFohIIVvKxgViAiIgAiIgAiIgAiIgAiIgAiIgAiIgAiIgAiIgAiMPQEpfMc+DxQDERABERABERABERABERABERABERABERABERABEWiFgBS+rWBUICIgAiIgAiIgAiIgAiIgAiIgAiIgAiIgAiIgAiIw9gSk8B37PFAMREAEREAEREAEREAEREAEREAEREAEREAEREAERKAVAlL4toJRgYiACIiACIhAOwRuvfXWcMEFF4R55503bLnllmGppZZqJ2CFIgIiIAIiIAIiIAIiIAIi0DeBZ599NlxyySXhpptuChtttFHYYIMNwowzzth3eHpwYhGYaP00KXwnVvlSbEVABERABCYxgQcffDCstdZaZQpppO++++4wwwwzlNd0IgIiIAIiIAIiIAIiIAIiMPoEdtttt3DRRReVLz7++OPDVlttVf7WyeQl0GY/7YwzzgjXX399CWvVVVcN++yzT/m7rRMpfNsiqXBEQAREQAREYEACxx57bDjmmGM6Qrn44ovD2972to5r+iECIiACIiACIiACIiACIjB6BF588cWwxBJLdLwQRd0111zTcU0/JieBNvtp22yzTbjyyitLUG9/+9vDhRdeWP5u60QK37ZIKhwREAEREAERGJDAddddFzbbbLOOUO66666w8MILd1zTDxEQAREQAREQAREQAREQgcEJXHbZZeGRRx4pA1p55ZXDO97xjvK3P1lvvfUCsrm5j33sY+HII4+0nzpOYgJt9tOk8J3EBUVJEwEREAEREIEcgX//+99hv/32C+ecc054+ctfXpzvuOOOOa+6JgIiIAIiIAIiIAIiIAIiMCCBj3zkIx1WusysY4Zdzv30pz8N//d//xfuu+++8Na3vjUcd9xxw6x+c8/p2sQn0GY/TQrfiV8elAIREAEREAER6IvASy+9FKaffnptAtEXPT0kAiIgAiIgAiIgAiIgAt0R6EXhayE+99xzYfbZZ7efOk4hAm3006TwnUIFRkkVAREQAREQgbYIPP7444UAOssss1QG+eSTT4aZZ565sCKu9FRx429/+1t45plnwoILLhimm266Cl/Vl4eGhgKCUl38qp/uvMNIO2khHvPOO29f8ekMUb9EQAREQAREQAREQAR6IYBs+Je//CXMP//8fRsrDCpfpvFF1pxxxhkLA4r0Xvq7H4VvGkbTbxTEzz77bJhnnnlakYHh9fzzzxfMm96t+2NLgLxK+z1S+I5tnujtIiACIiACIjDqBG677baw7777drz30ksvDXPNNVdx7a9//WvYeOONw3/+85/Sz+GHHx4WX3zxcOqpp4bvfve74eGHHy7uLb/88uGQQw4JbAKAe+qpp8JRRx0VvvGNbxQCItfYaIJpa3vttVeYaaaZuDTMoaD9+te/Hq666qpwzz33lOHjca211gqvetWrwg477BCWXnrpYc/aBYRuwmCpClv3jE0E1l133SK9bICxySabhKefftoeCZ/85CfD+9///vK3nSA0sdba2WefHe688067XBxf//rXBwSojTbaqCsBv+Nh/RABERABERABERABEeiKADLr+eefHy6//PJSruRBZMvVV189bLjhhgG5rMoNIl+yrMKBBx7YEfS3vvWtIh5HH310uP7668Mf//jH4j7y8JZbbln8zTbbbOUzKGA333zzgFxpsml5M568+tWvLn5ixUvY5nbfffdCHrbfH/jAB8Kuu+5qPzuON910Uzj33HOL5SJQzppj2Tbk+S222CK85jWvscsdx0984hPh/vvvL69tuummYfvtty/kfdaSJWwcYa2zzjrh0EMPDUsttVTpXyftE2jqp/k3spHfaaedFniGvCef1lxzzbDnnnsW34UUvp6WzkVABERABERgChD43ve+Vwh/Pqm/+tWvytH7P/3pT4WC1d8//fTTw8knn5wVVvF34oknFopVhEEvbPowNthgg3DGGWeEGWaYwV8Ojz76aNh7773DD3/4w47r6Q+EGJS5b3nLW9JbhXIahfC3v/3tYffswhVXXBHe97732c/ieMwxx4Rtt92249of/vCHQmDPCebeI4L98ccfH6ZNm+Yv61wEREAEREAEREAERGAAAsyuQkY74YQTGkM59thji4H41OOg8iUyJcpP7zCQ+NCHPuQvdZyvssoq4ZJLLgkLLLBAcT0nU3c88L8fyLgPPfRQeYt1ezGAMIeMe8QRR9jP4ogS+dOf/nQ477zzOq7nfmDogRKQpdy8Q1n+wAMPlJd22223QjmNvF7lvvOd7xTGGFX3dX0wAk39NELHKOeggw4KX/nKVypf9pnPfCbcfvvt4corryz9YKBz4YUXlr/bOsHApslNi6MvQ1WemEopJwIiIAIiIAIiMDiBJkEiJ5zSkNe1xQiqCLm33HJLbQQRTPfYY48OP+9973sbn/MPYFGBxa93bGaBtUWdy6UhVfi++OKLhULZLJjrwuMe1hYHH3xwkzfdFwEREAEREAEREAER6JJAN3KdD2r//fcvZpL5a4PKlzmFb06W9O/knJlpPMtSYDmZOvXP734UvjvvvHMxsy0XXu4aSl82gvMuVfh2kz7kfax/U+WxD1fn/RNo6qcRMgp5ynyTS/NTCt8mYrovAiIgAiIgAhOcQJMgUSecsjTDP/7xj3KKVw4FgiBLLzAVLlUSY7HAsgvmWC7BloOwawif73znO4uf1157bfjxj39st4oj0+tYisHcj370o0prC8JmqlqVAjdV+DIa/uUvf9mCLo7Eh6l0WCZjJZxaIqNo3m677Tqe0Q8REAEREAEREAEREIHeCfz6178Ob37zm4c9iCKVJRAefPDBQuHoPaAw5Tn2jsC1IV/mFL7+nSwrkS77ZffPPPPMYskw1tM98sgji8tYWtoSEFxAGcfyYDji7Q0Imix8sbJNZ6gRDnL6MsssU8zIyxlhpEYTqcKXMHALL7xweMMb3hB+85vfdFga//duCLLyNRLtH5v6aZQplujIzahccskliwhV9Xuk8G0/vxSiCIiACIiACIwrAk2CRJXCl9F8W2vs6quvDltttdWwdCGs2hpjrAWM4tZPFeMBwjerAJSrXgG83HLLhS9+8Yvlsg9M/nnjG98Y7rvvvvJdLBvh1zn77Gc/WzxTeognTLdjCQo20sAR980226w49/+8wpepcaxT7B0C99e+9rUyPkwx/OhHP9rR0UC4uvXWW7W0gwencxEQAREQAREQARHogwDrxJ500kkdT7IPhLdozCl0WevXDAbakC+rFL4YHmBdi4zJGr0sS8a+D94hI7Psl3e9bNrWpPDFEMHW17V3sJYr183lrKQxUPAz4nIKX5Z1YLkAHEsHkF6WdvOO/GFtYrn2CTT10zCEsYECezsDHgworLzyysWlX/ziF4WfVCksha8R01EEREAEREAEJimBJkEip/BFsEWx6h3KX2+pkE5Hwy8CIYK7d1hgYNXQrUMB7N+dvgehx1sBo4C94YYbwqyzztrxCtYZZvM577zCN6fERpGbbk6BZQlWJt7xPhOy/HWdi4AIiIAIiIAIiIAIdE9gjTXW6JiZhcUqys10DwiWCEOmNcfGvJ/73OfsZ+OxSb7MKXzZ6BfrXe9eeOGFgILWW1Vi/cuGWt61pfB94oknhsmc7FFx1lln+dcFjBTWW2+9DgtdZGjkWNt/IlX4YtmLMp3lKMyx2fEKK6xgP4vjPvvsEz71qU91XNOPdgg09dMof/vtt1/Hy9gsO93jhI2wt9566w5/Uvh24NAPERABERABEZh8BJoEiZzCl5H9dDQZi1ksZ83lhAiWQEiXO6hS+CKYMnUMa95nnnkmMGUJy4kvfOEL9ori6BW+WB4suOCCHffZkZYNPFLHxnSpMOQVvqeccko45JBDOh7DUtiske3GP//5z2GWHBdddFEhVJsfHUVABERABERABERABHojgCy40EILdTzEJrndbN7W8ZD70Y98yeM5ha+3InavCIcddtgwedXPaMNvWwrfn//85+Fd73qXf33BB06pw1L31FNP7bh87733hnnmmae4lip8sRDGUjh1GD94a9Hdd989sAyaXPsEmvppKNrZxNqc7xfZNY65PlKur+af6fe8G0MebdrWL109JwIiIAIiIAI9EGgSJHIKX3Z0RUjwLhVcc9YFOavZVOHL0g8sBXH55Zd3CJP+Xf7cCza///3vA1YU3rFW2sc+9jF/qThHUbvIIot0XPcK35xQ3OG55oemttXA0S0REAEREAEREAER6IIAez+stNJKHT4ZjN9ll106rnXzYxD5kvBzCt/czC/8sjwZs+G8Yy+LZZddtryUys2st3vxxReX9/1J3ZIOOdkaGZo1d1N33nnnDdvMjllxyy+/fOE1Vfj65Rx8WKnVtRS+nk675039NPpjfu1oyopfHs/H5t3vfne47bbbyktS+JYodCICIiACIiACk5NAkyAxmgrfu+++u1gT1y8N0UTdK3yZRmcbFNhz7EDMTsSpy6XLK3wPOOCAYWuUpWFU/f785z8ftthii6rbui4CIiACIiACIiACItBAILdcAdazO+64Y8OTnbcHlS8JLafwvf3228Niiy3W+bIKv2zyy0bG5tpS+OY2bGP91jXXXNNeVR5RKNveGnbRx0sKX6Myfo5N/bR0MKBOiZuu9VzndxACsvAdhJ6eFQEREAEREIEWCTQJEjnF6EhZ+GKJi1WCdwif73jHOwqBes455wxMn0PoNucVvlxLhVXWK2OJhdTlNm7zCt/cGr/f//7302CK3y+99FK5EzQXWNssXTM4+6AuioAIiIAIiIAIiIAIZAnklnRINxrLPphcbEO+zCl8UaBimZu63AZpjz76aJhllllKr20pfG+55Zbw3ve+twyXE5Yl+/CHP9xxjR/sXYF86x1LnM0///zFpVSGloWvJzU25039NKyr2VDaHMpWZk/mXLoUhxS+OUq6JgIiIAIiIAKTiECTIDFaCt9//etfYbnllutYxoF1qdgIwjvWCGO3ZXOpwjcVfPCXrrHGesAokR944AELpjh6hW9uOt4999wTFlhggY5n9EMEREAEREAEREAERGBkCLCkA0s7mGOT4GuvvbbcaMyuo3xlujprlQ4NDQUsH9lUrS35MqfwRZHM0mHeoaRmTV0/zZ6N5m6++Wbvbdgavihb2esi51Irzh122CEcccQRhVcUyauttlrHY7l44SG18OQacr7tTyGFL0TGl2vqp9EnStdPvvHGG8OKK67YkRDKIwpe76Tw9TR0LgIiIAIiIAKTkECTIDFaCl92CV5rrbU6CLNj8qabblpee+qpp8Ib3/jGDsE/VfiycUFup2CWdnjd614XWC6CNcy8IG4v8Arf3LpxuQ3g8HfggQcG1gSmg4FjfbnFF1/cgtVRBERABERABERABESgDwL7779/OOOMMzqeZDNeZDJzOaWn7afQlnyZU/jy/nPPPTewNqq5o446Khx//PH2sziy6a83VuAiS38hg3tHXGeffXZ/qTivU/jiYZ111ik2OfYPsrbv6quvXl7KGTJsuOGGHWyl8C1xjZuTpn7aDTfcEDbeeOOO+DLAwKAIfSQc61evv/764eGHHy5+2z8pfI2EjiIgAiIgAiIwSQk0CRKjpfDFIoLNLPyuvwsvvHChTGXNs/vuu6+wZkiFlVThi+J1k002CWxC0avzCl+epTPBOmjesesxAvKiiy4afvnLXxbT43yciA9TqWaeeWb/mM5FQAREQAREQAREQAR6JMDGaBtssMGwp1jaAUXn/fffX2xSlc7a4vccc8wR2pIvqxS+RIwNg7FEJq5pPLiPEnj77bfntHQYJ2Ck4B2bp2GFi4y5+eabl7eaFL4oxFGMe8fUfpTKhMlaw6nSHL8secbSZ+ak8DUS4+fY1E/LGagQe/ojLDeCMUqV5bgUvuMnnxUTERABERABERgRAk2CxGgpfElcbo21pkSnCl/8YwnMdDqviE3D2WuvvcIJJ5zQcTlV+GINzC7HXgnd8UDmh1mUZG7pkgiIgAiIgAiIgAiIQI8E9thjj3DBBRd0/RSD817Ga0O+rFP41kUM4wXW2fXr9+L/rLPOym4qzL1Utm1S+KLUZh1flrTo1uWsjqXw7Zbe6Plr6qcRk6OPPjqwbnSvTgrfXonJvwiIgAiIgAhMMAJNgsRoKnyZyrbRRhsVyy5UYcTiwW9OkArF9txDDz0UDj744MCUNu/w/+lPfzpsu+22YaGFFvK3Qqrw5SZCOpa+fv24jofcD6wrUCTLiYAIiIAIiIAIiIAItEPghRdeCDvttNMwmS4XOvId69vOMMMM5e025MucwvfMM88cZrlbvjSeIHNedtllhQWwv8753/72t7DuuutmLYJT2bZJ4Ut4GClstdVW2SXLuO8dS1CwsVu6fIQUvp7S+Dhv6qcRS8oS6zrjt8oxO5H1rP3MRSl8q2jpugiIgAiIgAhMEgLXXHNNsXGET85vf/vbMOeccxaXnnjiibDyyiv72+HCCy8ctvB/uttwznLguuuuC5tttllHWCx/wLQzcyiY99tvv8CaVN6ylilnbEpwxx13hD333NO8F89W7UaLJ+L/yCOPhOeeey4stthixd9MM81UCD1YXXiHNQhWIakjTgjGbP7m42T+EJhQIrP0hJwIiIAIiIAIiIAIiEC7BNiMjY3ZWJrgrrvuGhY469Uii+bkODwPKl/mFL7IyxgYsJcDBgLeIQez8fDSSy/tL3ecP/PMM+HSSy8t9pZgY2BzyMVetkUG9mnebbfdwkEHHWTey+NLL71UWA6fffbZ2VlubHiHtTP7Y0w33XTlc3aSrgVc9Z411lijI/zcJssWpo6DEWjqp1noKHNPO+20cPLJJ3cYqTB4wD4m5PuOO+4oha8B01EEREAEREAERGDsCCDYswkHa/IussgiYbbZZusqMqyf9thjj5V+mULnN9OwG7k14ehIsN5Vlfv73/8efve734U///nPxY7GWAijRLbdjaue03UREAEREAEREAEREIF2CKC85Y9BeJSjyy23XNeyWL/yZZXC1wwkiAvKX/ZweMUrXjFsCYduUo7Mi5txxhm78V7ph3VbkYWRV1988cViLWNk1nRmW2UAujFhCbC8x+OPPx6efvrpMM888xR5Pm3atFFNjzfkqXrxtFhI/7vVdcZHN9MqM4/pkgiIgAiIgAiIwCQnwG7Je++9d0cq991338DmHgg+yBA33nhjdgO41Nq4IxD9EAEREAEREAEREAERmJIEmhS+UxKKEi0CGQJS+Gag6JIIiIAIiIAIiMDgBFjHiiUocksvMK0pd5237r777sWSEYPHQCGIgAiIgAiIgAiIgAhMJgJS+E6m3FRaRpKAFL4jSVdhi4AIiIAIiMAUJ3DVVVeFXXbZpVK5m+JhbeBdd901u55Z6le/RUAEREAEREAEREAEphYBKXynVn4rtf0TkMK3f3Z6UgREQAREQAREoAsCrF91wAEHhMsvv7zSN5tT4GfNNdes9KMbIiACIiACIiACIiACU5vAFVdcUSwP5in4TY79dZ2LwFQmIIXvVM59pV0EREAEREAERpEAu9Y+/PDD4f777w/shrzAAguE5ZdfvthQY7Q3MRjFZOtVIiACIiACIiACIiACLRFgMyw2QfOOTdCmm246f0nnIjDlCUjhO+WLgACIgAiIgAiIgAiIgAiIgAiIgAiIgAiIgAiIgAhMFgJS+E6WnFQ6REAEREAEREAEREAEREAEREAEREAEREAEREAEpjwBKXynfBEQABEQAREQAREQAREQAREQAREQAREQAREQAREQgclCQArfyZKTSocIiIAIiIAIiIAIiIAIiIAIiIAIiIAIiIAIiMCUJyCF75QvAgIgAiIgAiIgAiIgAiIgAiIgAiIgAiIgAiIgAiIwWQhI4TtZclLpEAEREAEREAEREAEREAEREAEREAEREAEREAERmPIEpPCd8kVAAERABERABERABERABERABERABERABERABERABCYLASl8J0tOKh0iIAIiIAIiIAIiIAIiIAIiIAIiIAIiIAIiIAJTnoAUvlO+CAiACIiACIiACIiACIiACIiACIiACIiACIiACIjAZCEwsMJ3soBQOkRABERABERABERABERABERABERABERABERABERgKhCYNhTdVEio0igCIiACIiACIiACIiACIiACIiACIiACIiACIiACk52AFL6TPYeVPhEQAREQAREQAREQAREQAREQAREQAREQAREQgSlDQArfKZPVSqgIiIAIiIAIiIAIiIAIiIAIiIAIiIAIiIAIiMBkJyCF72TPYaVPBERABERABERABERABERABERABERABERABERgyhCQwnfKZLUSKgIiIAIiIAIiIAIiIAIiIAIiIAIiIAIiIAIiMNkJSOE72XNY6RMBERABERABERABERABERABERABERABERABEZgyBKTwnTJZrYSKgAiIgAiIgAiIgAiIgAiIgAiIgAiIgAiIgAhMdgJS+E72HFb6REAEREAEREAEREAEREAEREAEREAEREAEREAEpgwBKXynTFYroSIgAiIgAiIgAiIgAiIgAiIgAiIgAiIgAiIgApOdgBS+kz2HlT4REAEREAEREAEREAEREAEREAEREAEREAEREIEpQ0AK3ymT1UqoCIiACIiACIiACIiACIiACIiACIiACIiACIjAZCcghe9kz2GlTwREQAREQAREQAREQAREQAREQAREQAREQAREYMoQkMJ3ymS1EioCIiACIiACIiACIiACIiACIiACIiACIiACIjDZCUjhO9lzWOkTAREQAREQAREQAREQAREQAREQAREQAREQARGYMgSk8J0yWa2EioAIiIAIiIAIiIAIiIAIiIAIiIAIiIAIiIAITHYCUvi2mMMvvvhimG666cLMM888cKiE9Z///Ce8/OUvHzis8RjASy+9VKRv1llnHRfRe+aZZ8Iss8wSZppppnERn34jMVnSkaZ/aGgo/OUvfwlzzTVX8Y2l93v5DSPK3cte9rJeHmvV73PPPVeUtxlmmKHVcHOBPfbYY+Hcc88tbr3xjW8Mb37zm3Pexuxar3n7k5/8JPzwhz8s4rv55puHpZZaasziPlVe/Oijj4bDDz88/O1vfwuf/vSnwworrDBVkq50ioAIiMCUJnDkkUcG2unFFlssbLnlln2x+P3vf1+0Icg+++23X1hllVU6whnkHbfccks49thjw5JLLlm0T3PPPXdH2JPth2Sg/nN0vLEbpNz3T0FP9kPg3nvvDZdeemnx6Ic+9CHJwf1AHKfPtKW/++c//xnQb80+++zjLqUTSuF76qmnhrvuuqsniCh1vvCFLzQ+8+tf/zqcdNJJpT8y65hjjil/V53cfPPN4ctf/nL45je/GRBkcEsvvXR4/etfH3bccceelCt33313OOqoo8K1114bHn/88SKs5ZdfPqCk+eAHPxg22GCD4tpE/ffjH/84fPe73w033HBDuPHGG4tkrLHGGmHdddcNH/jABwpm3aSNcHj+1ltvDZyjFIf3aqutFtZff/3w6le/uptgirJ0yCGHFLx93iHQ7rXXXmGOOeboKhwEiJtuuincdtttRdoocyjVVl999fDWt741vPa1r+0qHDz96U9/KgRXKh/cQQcdFBZeeOHivOof38R4SAf5cfbZZ1dFc9j1T37yk2HFFVccdt0uUGkS3hlnnBFuv/324jLf5Rve8IYiv3ffffcwzzzzmPfKIx0Vyt1xxx0Xfvazn5XfKWWGv+222y686lWvqny+jRsM3iAo/OhHPwrXX399+NWvflUE+853vrP4vilzSyyxRBuvGhYGddTaa69dXP/sZz9blKlhnkb5wiB5S7287777FjGGJfXHRHXnn39+UYd1G/+TTz451A0StFU3pvHZfvvtw1lnnVVcph36zne+k3rRbxEQgSlC4Be/+EUh9yL7Hn300WGfffaZIimfmsmcNm1akfA3velNhQzTD4VddtklfOlLXyoefdvb3hauu+66jmD6fQfyHXLkfffdV4THwOQBBxzQEfZk+zGZZKDRzpvxxq7fcj/a3PS+EC6//PKw0UYbFSho+9DxyA1GoB+dR/rGsdbfPfLII4U8RH8OAyscugr0P+i2ttlmm2DfeRr3Uf0dG8sJ46JyZijC6fmvKYFRIz8UFY8d4cbManps6Lzzzut4Jhe3OJI9FJUbjWFFxV5jWHvssUdXYTW+bAw8fOUrX2lMX/xYamP2r3/9aygKco3hRAVhbTjc/PznP18bzgILLDD0m9/8pjYcyk3s6NSGQ5mIAsZQVPjVhsXNq666aohy58tRrMhqnxtP6TjllFM64u7TkTuPyrrKtP32t78desUrXlEbHvejZUdlGNx44YUXhqJStTYc4hYVy7XhDHKTchIr/No4UN7uvPPOQV5T+exPf/rT8t1R4Vvpb7RuDJq3UcFQpqeuDI1WegZ5zyabbFKmJfeNpNeq2pI268ZcejbbbLMynlGIyXnRNREQgSlC4BOf+ERZH1BHxVkzUyTlUzOZ1g5FhW/fALwMRF8udf2+49///vcQ8pM9f+CBB6ZBT5jfTz/99FAcWC3+6mSbySQDjXbmjBY78s/yknytclZuB/m2qsLW9XYJfOtb3yrrmajwbTfwKRhaPzqPFNNY6+/i4PcwvY1903aMRjJDf/zjH9Ooj/pvpulMGEeFaAB7OTYlEIVcGl6TwhcFkX8G/3Ted91116Fo4dtxL2r4a6Nw6KGHdviPFqpFOLvttttQquTecMMNa8MajzfjlJWO9JEmFKV0GlJW0QIgmwSEOtLumUfr56GPfOQjQ/D1Ah9+Pve5z2XD4eLXvva1jnBQ9iMkknde4YpCseojRfGSKhJJC/H58Ic/PExZucUWW1QqfaM179Cee+7ZESdLZ53Cd7yl4+CDD86mwdKSHuO0/Gwe/e53vxvGj28rWnUWbH0eEWaV0vcf//jH0Lvf/e6OOL397W8f2nvvvYeiVe+wsnfiiSdm4zPIxTgFfli5JU6f+cxnhlCipWlBOdu2G08K3zbydrQE9rbzIRfeOuus01E+028k/f33v/99WDBt1o3DAv/fhXvuuaeo76Jl1lC0GK/ypusiIAKTnACDqGm99NWvfnWSp3pqJ8/yexClFAYUyD4MGMaZKMOADvIOFAf0K5AT49IRw8KeKBfizK/y26IvUeUmkwxUlcaRuj5a7Mg/K9Pka5UzP4N8W1Vh63q7BKTwbYdnvzqP3NvHUn8XZx4P68PTR4ozxIcZkaKjijPJc0kYtWsTSuHbLZU4VaisaNGs1zmEEKtwyRBTwHCscnFadvkMz6K4ZJTBOwQQC5fjD37wA3+7PKcj7f2h8KQD712cCt7hJ05L97fH9fkvf/nLjrhfcsklHfHFMs2P/MMiNxoal4EowyFvrrnmmo5wsKD1Ckf8pHnCA3xwlse8i2eIgzkUvK973evKd6EEzrnUYvnrX//6MG/kpc/bOA16mB/yHwW/9+fjV6XwHW/pIGFm9UP8B3FeUCIvHnrooY7gnnjiiQ4l6vve976O+/bjtNNOK7kSp7gMiN0qjiiEsXg19vihM9umYxTYwqd+Ib+9e+qppzryHwVg2248KXzbyNvREtjbzodceDbgVde5yz3nr7VVN/owdS4CIiACOQLIcNam2VFW/zlSk+ea5fNIKqVG4x3jPUek8B35HBot+dHLulL4jny+jsYbpPAdnHK/Oo/cm8dSfxf3FOrQJWE4SH/euwceeKDDeG2sZ9hOSoWvt5qK64p6/h3nKFa91TAfs3XA65RWWHCacLL11lsPU9DaS3zlgOLKKxbNT1z4uwyLcKucVx42WQxXhTEW1/fff/8yfUcccUQ2CnDBWteYfvvb3x7m7+Mf/3h5H4V+lWN0xcLJWUsef/zx5X2sDXJLLfCRWhgc44ZFw16HktH8nH766cPu2wWvUNxpp53scnFEaWthcIQB0/p9+apS+I6ndFiijAkK7H4d0yM8E37n3PPPP99RkabLIaC49Vbfcf3vXDDFNT+t/otf/GKlv35u+KVi4jrP2SCwevVpThuN7EM9XBwvCt+28na0BPYeEPft1fIdq/N+XVt1Y7/v13MiIAJThwBGFFZvMWPGzh988MGpA2GKpdTyWArfkc14KXxHli+hj5b8KIXvyOflaL/B63S0pEPv9AfReaRvG2v9HToFaxdXXnnlrKEicb7//vs7FMNjOQNlQm3aFuE2OjZnioq8wl9UQIWoPKx8JloAlotux+nVIU6RD8sss0yIgmux4PKzzz6bfZbNvGLBLe6x0dorX/nKrD8ushNtbMSL+9Hqt4wbF6Ila5h33nmLe/yLip8QlxEof/uTqBQt4hfLT/EMG+dMBMcC5yx0jmNTMzZWy7m4fEWIyrbiFkc2eDDHhldzzTVXwRw+LJA93XTT2e2OY1SwFhuYcZFN/qLVacd93m8bgLHRWhwc6LhvP6JytliEm99pfLjm8/Xhhx+u3HDLb5hFnvnNjuIIUbnp2A477BDierxhttlmC5tuummIVjS8JkSFb3Zjs/GUjiKi8d+aa65ZbIqWptPud3Nk8xd2W8bFZS7CCSecUPnYHXfcEfj+cGzWt8gii5R+4cz3j4uDLYFdnKs2u/rDH/5QbNyHX75l/Lfh+FZ9OY0W55VxWGGFFcpNR6JitHLjwSeffDJcdNFFRbqpL9g1m80B2Rhw1VVXzYbvyyDfBxsBEg4LzMMvWrUXu1vHKZEhDjaEmWeeuTb51FtsuBJHaouND2eZZZby/YTBJoo511be5jbdiDMJwmWXXRY4xmUPio0z3/Oe94T11luvq8Xy2X2Xby4O9hQbZsYGvODKd7bccsvlklNe65cH7cucc85ZhBMHcIqNIstAuzxps26seyV8rC3lW/MbUUaBJkRBuHictpdviDqR9pT8+Otf/1q0q2yuxzc5/fTT170qREEu0FbGNfCK/KB8sanixhtvXNSFdXGpDVg3RUAEBiJAW7nooosWYfAtIydRz+La2CzrnHPOCXEGT7FhLhviUBewIXIctCzax7nnnjustNJKYauttqqUlYvI/O8fbTBt1fe///0Q144PyNFLLbVUsVEqsumMM87ovZfn1D0///nPi9/IZtSzcQmqEGfqBeq7uLxYkfbygXjC5rlsXMtztM1sJEZdSL3XzYasyHpxpljR/2AjmzhgHZZddtnAbvDIm1UuZUbbzqbG/LGRWTRiKeLx0Y9+tJAvq8Kpu24bzkSFb7FpW5wdVcghbIJLm7ngggsW7yBf5p9//mxQ0XAiXHzxxcU92uVUzkrfkQZCu06fjQ1fccQFeQPHZqVsnoyLRjgFu+JH/Je2T7Tt9AF4hj/aI67FwYsyPHs2d+TZb3zjG0W645JdRd7QJpImNluOe1kUj7HhNuWkG0e5on9EvpvMy+bTcSm48vFPfepT5XkqA8GCskefBg5s9MxGvfxVyS/9lHG+J76D733veyHOvCv6ZMig8KMPTTnIOfps1qfx+Zb6RRZFLsXlyoj5j0qTEPfQCdHCr5DX+E7ofxAH5Py45GIh4yI7xFma9lhxbINdR4DuB2WTjXVxpMM2mWcT8IUWWqi4nqY/LffUsWzuzPdLOqPRSFEuyctZZ521CKPqH++nDqEskD/45/t///vfX2x2XfVc3XVjiawajQuGeaVM0Helrqbc+TJrnvl2TzrppOLn4osvXvRx7Z4d+63/7HmOg4ZBPX/11VcX/UHqNfrjyJ7RKKj4jrrdtG3QtsCnaTKdD6LzSDmMtf6OvjLfGi6na/Lx5fvnG8Gx4fhRRx3lb4/eefxYJ42LH2vHuhl1Sx+gZceKN5IujrGhLTg0WfiyOQXP2HOMMtS53XffvfSPtat3sfIo77E+6WR0jIgxEsZoSG6JBUuztwRmbdrU8az9pff87y233LJkmq4Thgm+5R3Wn5SXKhcFsNIvVtip81YuVZabPOOnP7LkgXcsXUEZTJeDaLLwHW/psDSZRW2aTrvfzdEvbwGffh1r6Fhes7zKWDjKK0t/UP5ZlqXOeUtgLH5zrmmTSCzWc8xSC98LL7ywrPuMkR3Jwygo5l5fXLviiis6LKftOTtGwT9rEc/DbeWtt9C49tpri/WS7P3pEQs01tuuctQBO++8c1lW0uf5zfreudkZhDkID0Z+7X25Oq8qzul1qxc51rm6urHuOe5FZXoZV8q0d2y2aemgjMYOa/nbrtuRmS51GzxxDz/mPz2yNrusLDx9nYvA6BHwm8RSZ7GmuMnRyM51MlU3sWTfBL55jlFJVFsXREVEbZDUJb5dTesS3lHV1kYlb1kHRUVcx2wiwtl+++3Ld1PvNm3ee+aZZ5b+0xOsnrzMl8aT38igceAsfbT47ZmxIarlRxoO/vpdf93CisqqIdYttH6SXffH3NJlRJSZe+Yvt1eH3eMdqaMNjwMM5fP48TyYIWPPR2VLx+Np+xQVp6Vfe8aO7JtS1Y5Stn25sGfsyMxLZCf7TZ526+j/2XNVRx+Wl4FY3s5bk6bPI+/lnE9LUxnneeQVL8Ol7+E37XOuT+z7U1HZkYtOcc33iekz5hzffe7dXEP+ZJo3R37zLaSuDXZpmPbb982q4pim3/xRptFZ2O/0SF3my7y9047MoLM+WPosv+mzUl/36liux8Ijfanje7P7HFmfNXW+D8L3592g9R9htREGs0ZZB9ynxZ9HQ5lG2XPQtsBzmYzn/eo8UhbjQX/n+ynpUo1pfH2fhe94rNykWtKBzrd9oAgHdc4LWHRSzZkgk2so8MN0a3sHlWuTs/B4huUGvPNCCopB3J///OdCAXjIIYcUG0uxuRP3cpWoD2uin/tlOFKBrdu0IZB4YZcNs7xDOWR517TmHJ0N85srC36JDTaTS9/Fe2kcfbpQmnhH40DFlTpfNuOIZXp7aLylgwgi5BkvW6cmWroMxVHdQiHHNb6znMBgCYyWKWUYLG9hDsU9vFHMsabycccdN1S3JhbPecHUGCMIsrkMAgfT4A877LAhdtIdtJNq8ez36IXEXFkj3GhRUbIxzr6s2zXqG0uvxccLW7488ox1Fu15jrBD+EmdV/qZf/LJhGu7Rr2YxqHNvPUCuxdGeb+vby0+5HWVOziu4W3+7JjjSnuSKn0H4UF8fL7QISL8aF0wRIeATRw50nlmrelBXVPd2BS+T2udwtdP8a7KjxxL3k99mG6ESRiUMcsbjn7ZHk2ra8o53ReB9gj4up5ONs4PmFGnDeKsPaIO9h0qfueUGemgvr2bOjOtS3Jh0NbFmRb2WHn0yrC0/iGcPfbYo/Trl4SifqKNpY7Dn6+30nqTAFBk+nSa//SdXCeuuX6AZ+bbP3jZPQuX37kwysRUnNjzhO/zgTSm6cRvTm7tV+GLkspv2Ewbk8onvi+V9h+8wtcPABDvlA9xZ++HnEs318av581v3zb1ovClHSPPU5Zcsz8fJy8DdZOmnBK+lzKeyg+kNZd+rlEfpK4thS/yur3bjpRHzw1eVka5nro22KVh2m++Lb5T4mDx40g5s3xM6wHzhx+fDn5bOswPSuGcAQPyduo3V7b9QJXFuenoN8VCPk2dHwQknun+Ovj3Yfj7bdR/bYRBH9D3u413+n37/kZO9hykLUi5Tsbf/eo8UhY+r8ZKf8d3buUE3UKdY9DN/HLsZ+ClLvxu700ahS8KJ58BKJuqHI2fwUd48Aof+8BzDYWFZ89yjFOm7HL26P1S4XvnKwfWIGUtWF/h+2e5HqfS+McnzbnflI4OBZVCL+7xxx8filOsOtjlBBwsUoxpU8NHHMwvxzROaYeCkUHiwIePMpJ3+Ua/ar3gXDp9ZZYTnMdjOthIzXihkKXDY7/TY866Aw5+pJhvA2sJuKXP22+sGqoqTvuOONIx9R0Ce96O1BupgjKXLyN1zc8CyAnL1GUWV4777bdfwYb4sFYxZd3XfelsAa9YtHBQerNWNY7BCtbF9gIiZdDXi5z7jinv8Mr7xx57rKOzc8YZZxRh278289YL7JYerD5s7WNGkc8999wOZjlrETp29jxHBAezkGbGRxqGtxQflAdc/KgvdYevL3y8EOSrFBvGt+rYbd1Y9bxd71bha/HGyjdOTSweR6HC8/ZN4gdridRhXWXP4xcFgSmVGDDIWfbkhO40XP0WAREYnACWnfZ9xmm7ZYB+E+Nc+1V67OLEt0G8C2UWdZ/JX1jS+JkK1I20PamzDWQJg7aRNpQBNeptZCrfccfyLR3M88owwqDtQ/425bBZMbLJrzEh7l7ZSJhnO2tE6nd7zuKbDjhi3GHtKhbKtAsWPsd0liDhpMyYkWLtGPfZ1NMrg+KSA1zuyfk4cI4yHatQ0sMfZcPLavSjfBx4WT8KX+RsLGft/eRVTmHt5TufB7zXK3wJB16UB8sLlMd+HXzaHitvPI9L84H2jbzHER+UWJ4x70GG6tX1s4Yv76KMU65NZkMW8tzIr9R1W8bhhKLR8oByzDdvsjdW8nE5l/I+/lLF4A/igLY9n1q4+njVWfimSmc2+7b+Ed8aeZob5PHhc57Kj/2wS8PM/fZW13UGKsbFjnFJiFLuIVwvJ+InHVSj/HrZnPoRS38c309cGqKjbKJ87cX5ev+AAw4Y9mg6yJ/2P3jA1w1+Y+w26r82wjjyyCPL8gnjuGxeORMNIzxv4GX5lMqeg7YFw8BOoQtNOg+PYrzo7/wg5FlnneWjOOycPruVG462osAwjyN8YdIofL3SkIyoclQ2XkCiEfGuG4Wvn86PxWGV87unk8kIBN750WCsDX2BqDqvWz7Ahz1RzuNajx2NEYJBN45GmrxKhSyEEYSGnPOVNlOPmpwvJygcUodwxVQ9r8hI8417cU3arJCahme/myq/8ZgOL6imDHK/c1YUvuPId+X558LgGorhVDjnt/nH2sZXzHY9PVJuTEFl+TAaR5SIFhfKSq6ceSEWYS7n4lqpHeF4oSpV+MLMOgY+LDpwFheOvm5E8UYnmk4C1trWWfLPo0C259N4tpW3vC8V2Ks6sFy3+KR1L500u8cxVVBbuvi+zR/1vrlBeRBOqnC29+SOlI26JYosXhz7qRv987nzXhS+OaUEYaYdF2+pwrlPNxbtOYdg5f2lQnfuGV0TAREYnICfCu8H1FG2mBxGPZVTyHX7dt/mE1Zuw1zqCm/ViOzsnW/HiFdu2QaUkbT5VpekUzK9Mox3VS1D4xW6WIDmHIYchMefH1imjbb3c2QgP+f8smD4S61bPbMqhbuvN4lHr87HM6fMJTwU1dZ/wj9svOtV4YuyyhvFsKyFKRl9uJx3q/ClTOWssQjXc6Rf4p3vq+UGK/Gbbko7Wgpfyrgpn32cKeOkl7zgmMp83ZZxBlx8/uf48V5kdvMHL+/aUPh6pTIDNpSP1PGd+lkIpDt1Xn7sl10aZu53Pwpf0phz9FeNbSrvegtblK85Ln6piByT3DvtGrK+lSMMm7xDDrZ4mR/qVe+Ij/lB8WuujfqvjTBIn8WPo7cYtbhy9OUPf6nsOUhb4N8zFc+bdB7GhPz29bTvo+LH2p+6Mt6W/i7uu1KWG2QEM06xuNqRNt/HmbLTZChqz7Z9nBQKXwROX8kzIlXlGP22j5tRndR1U2C8koawWL8rVTox4mvvsWNaCH2czQ/KKaatULBpvHhXOg0ba+DJ4BAQPQNGbLt11rgYNzsyFZqR3pw74ogjyjxpGpHheT+qbdaQPlzWU2LJgqq4ECcECpYR8MoNH0buvKnyG4/pSAc3yFeUNuQxZRmBj/y1fOJoy5gYg1QhZH5RjFGx0zDTMfPTg/CTKhe9tbGFwZFRNsoG3ypWQXSwyB/zg6BiFjwWp5E8+pFz4kA5SZ1fCoFyBssqRyecRgjrE5+OVOHr76Vh0ZkxHnGznPR242/7FlKhr628JQJeYOcbrXO+7mSk3pwfJc5Zv5g/OkkIdnCtW4fR/KfHKh74S6eIUvdTJrC4pgzDzK8pRlhVnS3/Xnun5aMd6+pG/3zuvFuFL+1n2hb68OKmKmX5ooNsju/S4pl+z+bHjt6iJBW6zY+OIiAC7RGg0271CsdUnvFrkDatV18XK98xqup48zxygNUX6R4LLINm93IDy/Z+wjd/6TqnXhmWTsG25zmy/4KFQUeySiHpn7HzXpag89aa1MXeeWZVfR/aPotnU5vpw7Zze5Yj/ZMq5/s9ftkL/Pei8KUN8XIwyrO6dqVbhW+dMRDxtXT6NNK/tOvIi7nBbuPhZfPRUvgyM6bK+XKT9mG6LeN+oAflYpWj7FsdAS9vxYb8bwz7tfD1hht1ChOMouxdxCd1Xn7sl10aZu53PwrfnOKesOnzW5q22267jtd5GbHOkphZrRYGSxb24nzfzfcfvC6E/ouF7wfq4gZy5fW4AXr52jbqvzbCoG9p8fZGHWVE/3fCd48xhflNZc9B2oL0XVPtt6/rzWo/x2A86e+o36wscGQQKh0YfijOUjadovebzkLJpXUkrk0Kha+f4k4DV+W8FSIKiVRo5TnLnFxD4cPFatNnIP55N5WqF8DQ/JtSieveeWUnYVUJNSgWfaWOv4nuUGr4UXM41Smz0vSirEeBwXR4uFu+WZ4wzSN1fiQUpViT8/njLTN4Lh1J5r34pzFGYUH5srhwRMjOlbdcHJoqv/GYDm+FgmCW6/igPPNWAOSZtzpAweiZcV41lZ0pN96vF3R858b8eEHDM6fj6IXUug6if27Q89SyPe0cWfjeuoIGpR/nFb58Z3XOC1C5b8g/y/fKd4ES8pZbbimmNRrvVOHbVt7yfi+wo8Svc76zwtrX5uh0WFy7sfa35+qOvfAgHP8tkKacS+v+bjZE7KduzL3bX+tW4eunevvn7fzEE08suXuFDlZwlh9V36qFQbk0v6nQbX50FAERaI+A79jvtNNOwwL2g5cs59Sv87Jz3eCWt8pK5Wo/fZg6BuVQ7s/3G1AYeueVYcyeqXJYD1tdxBEZECMAP72+6lnfBqVWyukzdX49s5zcRVjIWRZPlBa9OnuWY93GUViVml8GW73rVuFLX8cry+hT1Sl7eUe3Ct+ckY/F0VtsEVdz5KWlqa5/iX+/v8ZoKXx9O2pxtiN9JIs7lu/edVvG/QwzZmrVuSq/bSh8TU7n6PsNaXyQwyzN+E2dlx/7ZZeGmfvty7Dvn6R+La5pPeb9eSMWX7/6epBweE+uruOaX+bGl2//nqpzX1f6NXitfPHNeu7eup++tqXRK/Pq6rQ0HlV+q66nz/O7yq/vm1TN0rDwaPssLansOUhbYOFP1WOTzgMu401/R5xSQzfKBv10Ztr4ZVaoh7huZafXARfe1Yab8ApfBAGvXKsa4aaB8ArGqvVwTXGYayhS4H401zLSHxGs/DSfVNnirc94rk4hiPDrw24SgNK4jqffxN1P1SL/WGtyEEfDh2UJ+WacUgtSPwKJorjJWTgc/TRF3uU7FQj5NKipQ8DywnjTusH2fFPlNx7TQf7Bmz9bS9XS44+wswEQuHorP9aR9cyrlGAWHop1809jbo7BBLvOsc6Ck2f8tP0mv/aOQY4opK2eIX7kd9X37IURhKt+nFf41m1gRtis/WXsvGBp72W0HkWlr3PNvz+mCt+28pZ4eIE9tcyyeNrRfyt+kMdb82BJ26/rlwfvY7CB74V6i++iynkLhG7apTScburG9Jn0d7cK36b14bwF2F577VW+xiu/vXVV6cGd+PUUU6HbedOpCIhASwS8ZT7WvHzH6Z+v/711Xy9R8PJSVZto4Xn52S+F5K2wfJzqzlOrV68Mw0qnznn5wb+DuhrLONo+rERTZ8oSnkmtdlO/fiCWutI7Y1anMMK/ycaDKHyb3sF7vHzn092twtcz5LybQfhuFb51Cj6/VJpXiNFGW5xsQ2LSmXN+Hc/RUvjWtZesuWpxr1P41pVxb/jS1E/zA+xYPJr7wYAWvhgWWDrSb9Xe4Y8mn+bkJS8/9svOv6vqvFeFb126/NIJXi73MwCNTzfHpnKcpskb0XhDEOvH2FIUNl3el33iS5zSuqON+q+NMLwBQVM97OuInOzZb1uQ8p5qv5t0HuNRf2d5lPZt0++POojZzt5o01vJWzijcZzwCl8acAOcTu3yAP0IVZ2FrFVguYbCh2fnZCSjvibk8BxKI0b5mQbnLR/S6QJWEVr8LczckQJv78C/nzKR8z9er5EOv0ECjUCbafFTxxFUvPMCp280vR87TxtSu87Rb0BF/Os+Xt9Qkm+M1Da5pspvoqSjKp1+ehAdGXN+7T1YYTVa51h31b6d1PLRrnNMO0hpmH4whe9/JB2W4X7kj4GDKqsc4uHrrV6FNEuHV/g2WcSirDd2foCK75bNJOxe0zFV+LaZt15gx/KszvlvxW844a0d6oT+qrAH5VEVbtV1X/enm+FUPZNer6sbU7/p724VvlVrIVt4vhz4pRso21am6GDXOTbgM785obvuWd0TARHojYC32rTvrulIW9GPQ54i7G7kby8/+wF3C6Mpjv5+Kiv2ovAlnWyM5Aegfdic0x6mcq6Xg6sMUIyhn6aeTum29HKsczAlLoMofL1MUPUur3D3srFvi1GcpC5l5n8jw9S5kVT4emVlkyx59913l22TV3rVxd3f81Zsdf1ULwPVyS9tKHytfJEfufVhffy9ERSb3przDL1xht23Y9Wmbd56NJUt7Vk7IptZWc/VI22ws3fVHUdD4YuloP9Ouj2vmlFYlx6+fcI3y31vHGKDCSabwZ0BO/4sL9L1xduo/9oIgz0njFtTPexnllbJnv20BXXcp8K9Jp2H7wfX1Yujqb/z+YLxDm2Dvd++E5Z7RZdEnWRljCO/x8JNaIUvjY8H7K0FU5jeupcGg0or9+czBY08f91aZuYsEnwFkU4X8BVNN0KYt2iom2aWpn08/fa7FaLEsN1E24oj1mzWwJCXWHua85ZyqYBvfuzoFfXWwNk91nSzcsIH3eS8dYxXcFY911T5TZR0VKXPC4Xe4oKpgpREVnUAAEAASURBVMaVY9Mman5kLRWuTTghHKaR1zlvEZwTEOue7eUeVuJ+Wgd1EoJsnfNTBLGK78d5hW/TQMfNN99c5gHClDm/tARMUZhimcraq6wNh6KY+s8Uk6lQ3mbeeoG9bk054u6X3vHWwH5UP90Ew9JcdxyUR13YuXt+3dqHGizOcs9zra5urHrGrner8E2nRtvzdvSCm7cG9msqe8W8PeePtMdWT1QJ3d6/zkVABPon4AdW7btrOnYjz+Zi5JVLdTOFeNbL/l729pY0DBqzXn/TX2qR3KvC19KCghPLZ9oXHz94kTY/U6zbtYYJ22+6lg7aGjOOdc7k4n7yxud33WwU8sH8pvHpReFLG+CVOcgVdfLgSCp8/YBHk8LbGyClMmld3ti98ajw9d8T8atzftDDD8Z7hW/dshp+9g7KQ++8oYQfSPB+OH/wwQfLMpiT57382K+yPH1n7vdoKHzZwNG+N45N9Zzd78do4JBDDinfRb8Fy3veCWOrE3zfFBnZ96PTzdTbqP/aCMOU1KSlaTaBN0xokj17aQty5WcqXWvSeYxH/V1V/jCrxb4H88N3Z99pv0szWliDHCe0wtebzzcpQ7yixcB3e0wbeRTNWOXVWeaRKWjx/XsZ+fHOC0BNQphXShHvJmHYv2e8nHvlCwJc3RptPs4oobDe5u/qq6/2t7LnpnSCU7oIvr+XrsvrA/PrDqW78voNSo477jj/WPbcTzvpxvKlqfLjJeMtHTSExJu/dOHyFAr5aN+eX1cVf3wHdi8VENJwEBzNb6po8h0AP3U8DYPfXnnX9B3mnu/mGh0hv+kEgwhVu3r68Pz6cWkHyvurO/cKX8pNnfMdSy9we2Gviif5bvmRKnx5Z1t56wX21NopTZvvgGB9Y86vGesV23a/6TgoD4QCBoL4Xqp4WhxSRa0fJGizbrT35Y7dKnxRTNc5b3HE7BhzfsomZaeqQ0en39d9TUK3ha+jCIhAfwS8oQHtA/Vo1Z/V/xz72ZjElJc8j1VrlaN+sHehkPLOLxfWjbzon7XzfhW+9jxH6m3eb4pW4uvXQPWKhqYlxmgjLL3pGufGrEk+sHj0I+PYuzmmm3/5NGNpbX5p27zz/Z0mC1+eY4k7r2ykHFYte+flvbTcnX/++WWcvIGBjxvnfro2cfXOK+/T8M0fMp4fmE3Tb/7qjuNR4Us6LE+bNmT0Mp7fXJxyb2HUyTv0p8yflz9hhoWo3UN+q3JeKTfZFb4wsO8aNnXra1fx6va67yehwGdmM+9MZXD7VsgH6irLs7Rf2Eb910YYPl11m/jBydJMmnqRPZvagm7zYLL683WMX+fZ0uv1aFaeuj2OlP6O+t70gKmC1+JtR18n2fIndm80jxNW4UvDb4IOGV9n3QtQzK0RGJr+fCEyv6kyyTfqfhQzzThvzUSlnAordNx959VPS0vD8hZQTUqb9Nnx8NsrkmDhlS9N8fOjhk2jI356PnmZfojeaoCPMOdSy3EvpOPfNzKUkTqH0t+X0yYlJmE1VX74GW/poBKzb6duV2vKvBdQ0sXLvYCw9dZbk9Sso7L1Vrx+kwAe8CPLCCBeSZYGiJW2xb3unelz3f6mDPplLIh3KvxUhZWWH+qBnIMHS8ZQN/DHUiLmvMKXdFbVWZR7yrOxQBAy5+u8qg6PVwrmFL5t5a1X+FKW0qmyFmeu+7JG+sxhJWvpxE9aDs0fCkbSAlO/xlobPPyoNVOCqhxWahZXyrJ3bdaNPtz03Odt+n37DjXxrGqLsSqxzgD+0gE3X08yOOLXfyQ+WLN4Kx/C6EXoTtOk3yIgAvUEfP2S1j25J1nKzOoqBsZ7db4O8Eu+pOH4tiSdZu8tkutm5yET0MbxlxofdKvwpd6mvqNNrJqm6Q0E/GwSrxylfala7ospoZ5LamVp9zjWOWsLB1X4phbG/p0+raklZ7cKX9/O0kbAxspUbsNA3j/SCl8vb8M5t5Yt5dDiyXFQhW9d38LLQP1aqXZbxn3fDRkz7VNZ/ns5kzzz7bcf0GUZsyrn90ZJFb7M0PJ8vXxq4fn1lvFLmU9dG+zSMHO/vYUvsxGrnKXJl/vUb9Uavvhjo1wLo25AA1nW6rvUECp9X+438rPVIX7g3q/VzHO2jjP9HDPuyaWtjfqvjTC8oQrl1vedPAf/LninsucgbYF/z1Q8b9J5jEf9nZ+pXNcm+qVPKDfoJsbKTViFLx+bVXL9NKxVwE14yjUU9gwKE3s3QnCu8sQC1wsqVZadrHNkYfFudnpMHevjWEWL37Z2lU/fM1K/vbKA+PdT4L0iCkvhnNCBEEbDYjxza714i8mquPhlJ1LrERilFT/CplcmGUc6FFtHpaXFh2OVUG/PcGyq/PAz3tLhKzXKfU7pw3RGryjjPHWMmHmlUG73agTJlGtuZJuRZ2OPoJoOuPBub+mJ36Y1nNL4dvPbW+egsOp1OhXfu6WDeiBnYeMbn3RQxAvihFMVhu804cdbWfp7fm02Sz9LzPj6LqfwbStvvcBOehAs07zlt7cOym3G50eNCcMv/0K6qGN4ztj7ercNHr7uJy65WRtMT/Rc00408WyjbuTdzESg/sytoevr8CaFL99vWsZh6S3cc+XDr+8Lc/zAmbaeJUQ8B8uTVOiGh5wIiEA7BLxlSrokWe4Nfuoi3ysDkb04k7/t+/YKUgvHLzuEv7S+osPu5WW/WaeFgbzmZ38gU3rXrTLMtw/HH3+8D6I4p97zSizqUe9odyytyEMpL2Qd/zzyQ+qMGcc6Z0wGVfgS39xGp379VfykCrl+FL6kh3CMEcecdadvj9MBaT8gWacQq7PwpT2jPbJ4wBL5EqUkS/N5y1bz00+/1CtGCcfLYD5vvQw00gpf+iyWJo5eDrI4sSSKb59zS91Z+SOMNI8IxxtI4SdV+PIteSUqfpAp+O7g4QfQuccf70xdG+zSMHO/vUUySw9UOYtrTilqz9QpfJkpZWFwTL87wmDQyJdf6tB+nO+b2jtTudUvQ2d+YJ5zbdR/bYdBOUrrYfj7zQtJVyp7DtoW5Pj4axjJMXuFMs9SepPJ+XKVs/DtNq3WFua+ewujLf1duj9T7rszQyz7DrAQH0s3IRW+KI5849KLtWgT7G4KDCP53tKIwoXFAYqVn/3sZ0VF4ONHRZsqEyweCHQ+LN5Pg8p0NtYCY8TcN5R07ru1DrR3jOURYcQKux0Zran7yzUOqTBA48j6nTR2CJ9Msba84z0wS602jINfAxJ/VNyMzpF3qSLxB3HqSs55SwbeR6NDh4g1m5n2dHBcwy1tIJrWG7X3dFv5jbd0eGUuTFDWkv8ocvg+vAIO7jmhDwZ+cynCgQdCOwMFrLGUvgfmOec7n4TD+4kHjSWdRM+P+0znqbLSyYXfzTWviOUdjHjXlX3upZ1CBg68Ehx2xJ1vAmHXCxq8I7UCThW++LEwsIxmLVU/UMJ96h7vUqGS74T3U9YR7gmP5+yPOi/n2shbL7Db++DDN0k5YcDGC7fUxZSF1KGktuc5WhisI4eA7utl7vuR/zZ4UI97bryfTuett946dMMNNxT1ia/TqGNydX8bdSN1l2eRWjD1ovAlHJgzTZkONkqjtENc1Wan5cPHycL1a6inQneax/otAiLQHwEULL7+qZKn0tC94oV6shfn32ffPu0bBhO0/anCh5kzOYdFnT3PEaUp08VROrKmv28fqIPTAapuFb5eicl7qPO++c1vFrIN9zwL3pMq8JBFfDyRGVEgYs144IEHDpMhaRtSZ8w41jlra9pQ+BJnFA8o5fjzU525h/ybOs+qbkmHnOKLd3hOyDTejbTCl3dh1GAMfVz8OdaO9hu5tVfHN2fPc6ScWr/Ch+VloJFW+PJeb1FPvCjXDJIwaI3Vte/vcv6Xv/zFR7c490utwJHnUb4gs/nBF0t/qvAlEPr+foDb/Poj8oYpAXlP6tpgl4aZ++2XBSR+lAcGKzAY8s7iniv35q9O4YufVH6jnmSmA/I5PHy5zRna2Huajt7am3iTF6lLl5/EX5WRVxv1XxthMJPFM6Iepv5FfsVgx+pYyyuOqezp6zfu99oWpBzT395AJTfwl/qfSL+71Xk0pcnyKffd27Nt6u98u0Oe0/dkwAODN/qRaR+ybianxW8kjxNS4YvwZx9eP41qHdBuCgzPI/ymCj2Lkz8SXs5q18eBEY20Q+zDsHMq15wlow9rvJ37qeyWjqYjjXXOIUg3Pct98oUp21UOoSFVcOXCzQmlPkxbtD73bHqtae0rH263ld94SwedGb9zdsrAflMZN206mAow9mx6TKcTeY6cs0meb8jT5+031o1tK3t5vxeE7V1Nx9z0EOoIr/StCiNnzeQVvihFveI9F07OUgnr3LSznT5LvC29VQpfmAyat15g5xtsyt/cyCvxwDUpGEkj4adT8trigfDfTb42DfQNWjd6axTSnCp3ulX4MnhgZSAtH/Y7HdD4b078//8MWOTKKB1LpiX6EfpU6P7/oehMBERgEAJ+3c1eOpheKcB0416cyd8cjzrqqFp5DzmxypCCd3rLTqt70iN1e242UrcKXyx4upFxqeNtJ/uURzpgl8bRfldZp3pmadj+t7WTgyh8kZvTTq7Fz44oglFcps4rRHKytT1fpfjyA/S0MX5JIB+n1JDAl4MqhsSVOFkciGvOIbd6+dz8MyiBUstvTttv39RPl7fwOXrnZaDRUPhimOT3IvHx8ufkS5Vyj0FkP9Din7Nzb0iTU/jCAGtVWzbAnuNI2MhByPHjQeGLrGLfnI8n9Zp3dq+q3OO3SeGLH7/siIWZHqnH08Etnu3WsfSZD5NymHN+AAgGufrAnhu0/iOcNsLAyMWnLT2nbPuBj1T2bKMtMCa5o+8nEJeR6K/m3jsa13ydOtIWvqSnLf0d9b0fyErLjP+d9iFHg2v6js5WJL07Dn9TyCnsBrJJcdRrEuyjopJqcqwp6IUQi5Mdsdaj0u/GIbjmGjELC6GSSn+iOS84W1qajrlRQ0s3IyR8YCbk+rBozBBKulGK48cLFz4cygCjM904psZUxYdw6PCka641hevXZGqq/MZbOmj0vOLPc+WcvO2WB2zte0zDQbhLLVmruNIx8NMifVh850yTH6nGM1dO/ftz51ir5xxT62CbCpH8xuKiqkHxI+CklXqEjQjTdxPXKiGb+CC0oaxN00R9jDUBnQK7V6fwJaxB8hYLLYs7ytyHH3442wlD6E83BeTdqcPaNGdhQrr4tqsGj9riQQfG1jqzdPkj9UFqGZamgd+D1I20o/atsXxC6rpV+NKhZokjwvBp4JyBuG7rVd5POaWugD9lyxxhWNjp8hLmR0cREIHBCPiliKhzu3VM8bXvk2NuuauqsKz94Iij3rF6yYfJ4A/TyJscz+cGj2gzkf+qwvD1l1csVr0PRVNqzUN8iTtxzc3M8GGhJKsaUKUzTBte5YxPU5trcsMgCl+sA2n3sOz0/TDLG5hWyd9+oI4Nt1NnYVRZINJHMkUefr0/L8ung5VeGZQu/+Hj0I3C1/yzZBQWvxjz+OWkaPssHWzK2o8jnfDxaSVM7/zmZnUD2l55nA449FrGeT8D5MjwlkY7UraoL5q+FWQ1lIFWFu15vh1mtfplQepkUeKCTMDMLZa9Sssc3wJh857UtcEuDbPqN4MP6AEsnRxTJand8+U5Da8bhS99L9JmdaiFy5FrlG+MhAZ1xpZwq5T79Afs/VWzMHw8Bqn/LJw2wqBPmavHSQNl29dhqcLX4jFoW2DhpEdmslKe+WNQdTK5XnQedem2tjD33afPtaW/Q3fA7G3eaWXeH1lOsuo7SeM00r+n8YIYObkBCESBNkTFXLjjjjtCbIRCLHRhlVVWCQsuuGDPocYKOcSOe7j33ntDFCTCoosuGmLDH+abb76ew5rsD0RFScFp+umnD1GIDbPOOmvPSY4Cf4iNcoiCQ3jZy14WlltuubDqqquGmWaaqeewYkeniA8Pkv9zzjlnz2H0+8B4TEcU7kJcJiNEa8jw8pe/vGAC315d3HyryKM4eFIwXWaZZcJqq60Wpk2b1lNQ5E9U7oW4Bm6YccYZw+KLLx5iZzDMPPPMPYUz1p6pY6LwEUjPXHPNFZZaaqmeWZAGwiGPojIxzD///GGRRRYJfEvduLi8QREHnqOOmm666bp5bJiftvKWgGNHqcjb2ACHhRdeuEjTsBfWXKDuhWsUros09VJ/t8GD/KAdoe6PCoIiDquvvnrP6SCJ/dSNcIMB32rqopVUiErx4nJUsoZoTVJ6ueCCC0IU2IrfUeFbntMu8q3Bc7HFFgsLLbRQbTmN1iNFGJQl/Fe5OFgR4sBDcTsqdMJGG21U5VXXRUAEJhABvntksaigCFGZVsY8DnYWdQntHe12r7JetGorwo3KyqJtoG7vVX4oI1NzQh1OnYfMs+SSS4Y55pijxvfwW9YG0SZTD8Oj17QOD3VkrtB1jArOgOxJOolrP3LzyMSu3VBJI3mKQ05Cfsy5OMAcouKuuBWNT0KccZXz1vW1qMgMtMvIqLPMMkvXz420x7hkQ/E9RSVjmHfeeWuZ5OJC2YkK80Jm41ufZ555ct46riETwQOH/6hg6bhvP6Iip7wXB5mL/rTdG6sjnIgX6Z577rlHpO6xtFFekEejRXXxHupL6s2J4Nqo/9oIA3780R+iv9lPH3HQtiCXX1YHTdZ6Npfmkb7Wlv6O7y4OPoU777yz+PaWWGKJsMIKK4Rll112pJPQdfhS+HaNSh5FQASmAgGUyXFNp4GSGq0VikGIgQLRwyIwTghsu+224ZxzziliEy0YQrTSKWNWpfAtPXRxQkdoxRVXDHGJi8J3tGAIvDN10XorrLTSSuVlOo0I5HIiIAITn0CVwnfip0wpmMgEdtlllxAtJIskxP0LyrbQpwlF09prr10YJ3A9WkGXg6Ten877IxCXbwvR2r14GEVuXKosO6ASLepDtL4s/MWN9UK0lu7vhXpKBERABCYRASl8J1FmKikiIAKDE8D6h9HxQVycghni1KBBgtCzIjDmBOIUy4DVUly7rIwLSldGrs21ofAlLJS8cYkkCzbQcVtzzTWLmQFYFMWN7ELcBLG8T+fv4osvLn/rRAREYGITkMJ3YuffZI09s24YkDQX1ykO66+/fnjta18bsBpn5lhcm7WwesVPXO6imD01nqxyLe4T9YiVLLNnmQGAQ76OS2EFZkFhYR6XfgonnXRSiMuFlUmMU6mLPCov6EQEREAEpigBKXynaMYr2SIgAnkCKJqYPtavY0o6U/l6WRKg33fpOREYSQLptGcse7Hw9a4thS9LGMV1DwNK5iaHYviUU06ZtFOIm9Kv+yIwGQlI4TsZc3VypOnwww8PBx54YGNiUETShrFUgVy7BK6++uqw6aabFstE1YXMcg9XXnlliBuh1XnTPREQARGYMgSk8J0yWa2EioAIiIAIiED3BLzCN+6EHj796U8Xa9D5EOJmEmHzzTcvLvk1fL2fXs5RILNOL+thpY717LfZZpuw8847p7f0WwREYIITYHkWvvt0Dd8JnixFf5IQYE+K3XffvcOK1JIWN7MKcYOecNhhh43bdZctrhP5yF4erI8cN+Ablgwsq9/ylreEY489NrCGppwIiIAIiMB/CUjhq5IgAiIgAiIgAiIwjADKF6alYq1etTEf6++yIQmOzS2qNrQZFnjDBdZEZI1eNm9iAyQ61G2F3fBq3RYBERgDAlj5M3Wbgabc5pFjECW9UgSGEWBDJpYQoH1i0zI2aZ5tttmG+dOFkSOA3MEmu7bfxitf+cq+NrgduRgqZBEQAREYPwSk8B0/eaGYiIAIiIAIiIAIiIAIiIAIiIAIiIAIiIAIiIAIiMBABKTwHQifHhYBERABERABERABERABERABERABERABERABERCB8UNACt/xkxeKiQiIgAiIgAiIgAiIgAiIgAiIgAiIgAiIgAiIgAgMREAK34Hw6WEREAEREAEREAEREAEREAEREAEREAEREAEREAERGD8EpPAdP3mhmIiACIiACIiACIiACIiACIiACIiACIiACIiACIjAQASk8B0Inx4WAREQAREQAREQAREQAREQAREQAREQAREQAREQgfFDQArf8ZMXiokIiIAIiIAIiIAIiIAIiIAIiIAIiIAIiIAIiIAIDERACt+B8OlhERABERABERABERABERABERABERABERABERABERg/BKTwHT95oZiIgAiIgAiIgAiIgAiIgAiIgAiIgAiIgAiIgAiIwEAEpPAdCJ8eFgEREAEREAEREAEREAEREAEREAEREAEREAEREIHxQ6BW4fviiy+On5gqJiIgAiIgAiIgAiIgAiIgAiIgAiIgAiIgAiIgAiIwhQnMOuusjamXwrcRkTyIgAiIgAiIgAiIgAiIgAiIgAiIgAiIgAiIgAiIwNgTkMJ37PNAMRABERABERABERABERABERABERABERABERABERCBVghI4dsKRgUiAiIgAiIgAiIgAiIgAiIgAiIgAiIgAiIgAiIgAmNPQArfsc8DxUAEREAEREAEREAEREAEREAEREAEREAEREAEREAEWiEghW8rGBWICIiACIiACIiACIiACIiACIiACIiACIiACIiACIw9ASl8xz4PFAMREAEREAEREAEREAEREAEREAEREAEREAEREAERaIWAFL6tYFQgIiACIiACIiACIiACIiACIiACIiACIiACIiACIjD2BKTwHfs8UAxEQAREQAREQAREQAREQAREQAREQAREQAREQAREoBUCUvi2glGBiIAIiIAIiIAIiIAIiIAIiIAIiIAIiIAIiIAIiMDYE5DCd+zzQDEQAREQAREQAREQAREQAREQAREQAREQAREQAREQgVYISOHbCkYFIgIiIAIiIAIiIAIiIAIiIAIiIAIiIAIiIAIiIAJjT0AK37HPA8VABERABERABERABERABERABERABERABERABERABFohIIVvKxgViAiIgAiIgAiIgAiIgAiIgAiIgAiIgAiIgAiIgAiMPQEpfMc+DxQDERABERABERABERABERABERABERABERABERABEWiFwIRT+P79738P//nPf8Iss8zSCoCxCORf//pXeO6558Lcc889Fq/XO0eIwNDQUPjLX/4S5pprrjDddNP1/ZZ//vOf4aWXXgqzzz5732G0+SDf2/PPPx9mm222MP3007cZtMLqgcBY1n0vvvhimGGGGcLLXvayHmIsr1OJwO9+97twzDHHFHXXpz71qbD88stPpeQrrSIgAl0SuPbaa8Mdd9xR+N52223DfPPN1+WT8jaeCfztb38LX/ziF4sorrbaauFtb3vbeI7upIzb17/+9fDwww8Xadtzzz0LuW1SJrSLRI0Gi2984xvhggsuCOuvv37Yeeedw7Rp07qI2eh7+f3vfx8uvPDC4sVveMMbwjrrrDP6kdAbRUAExozAhFD43nzzzeH73/9+uPHGG8NPfvKTAhbCxFve8pbwvve9L6y55ppdAfzHP/4RTjrppEDHFLfpppsGKr6c+9rXvhZ4b7fu+OOPr21Yn3jiiXDyySeHyy+/PPz2t78tgp1//vnDG9/4xvDmN785bLfddrXPtx2fbtM1EfyRTzfddFP4+c9/Hn76058Wism11lorvPa1rw3rrrtueOUrX9l1Mmi8KWe4173udWHrrbeufRYl3LnnnhvOOeeccOeddxZ+UdTyfsrlTjvtFOaZZ57aMLj56KOPhjPPPDOQzzTMOMJ505veFN7//veHLbbYomtBog0eDEggxJx99tnhl7/8ZREf/vG9wBRBcpBBl89//vOlUEq4m222WVh77bU5rXW9fMM+oG7z9bbbbgvnnXeef7T2HAFvhRVWqPUzyM2xqPuIL4MX3/rWt4r8v+6668okrLrqqmGNNdYIe+21V1h88cXL63UnTz/9dLj66qvD7bffHn72s5+F++67L7zqVa8qvhHCow6faaaZ6oIo7/35z38OlB06lrj9998/LLTQQuV9f3LooYeGJ5980l+qPF9qqaXCHnvsUXmfQbrvfve7hZKCNNx6661hiSWWCK9//euLegZh/xWveEXl81PhBnUddSHuXe96V7j00kunQrKVRhGYcAQuu+yy8M1vfrP4Qyal/hpNt++++5aKQerTlVdeeTRfr3eNEIGnnnqqlAs++MEP9iRLjVCUplywG264YWBABYcBylQepB9pFo899liH/A/3bvoxY1EokVnpu+EOPPDAQnYei3jonSIwKIHf/OY34dRTTy2DQVdy2GGHlb+rTujHXXXVVWVfFJ3RMsssE1ZfffVAX5R+y8ILL1z1eMf1fnQRbehmOiLR449xr/A966yzwm677VabLBRlKIzqHEoGLAlMKYffU045JWyzzTbZx1CwIRR36+oaVhQFH/rQh2qDQumLcq1KedFmfGojMoFu/vvf/w4odY499tjaWH/pS19qVNz+9a9/DXvvvXehcLXAGBCg/FW5hx56KLzzne8sFbQ5f4suumgxqkqFUuVQqNLhQsla5aiISMeCCy5Y5SW0xYOyjKBEZVjlll122ULJjVK9V4fyb+ONN+54rJs86vUb5gW95utpp51WKLM7Ilfzg8aDgaeRcGNV92HRjUL39NNPr0wWDeyJJ57YWO/+6le/CptsskmHcj8NlIGRiy66qLZs8wyDfltttVXHd4ISuUrhTl1a9035eDCQcc011/hL5TmdWNoOr/gub/7vBB5YT0xliyYGxxhYwdGe8Z3LiYAIjC8CDOYxCP7w/6wAGbSqq9tGIvZS+P6XKu0eM7pmnHHGxrZ0JPKh7TCl8G2baO/hjbSSs/cYjd0TI83iwQcfLIwXLIVjMXjGu2+44YbCaIjz9773vdnZw1L4QkduohNAaUs/y+sn6H/96U9/qk0aeg0MK+lHVjmMMJkVgFFTnetVF9GWbqYuTt3cG9cK3+OOOy4cfPDBZTpQDGAR++yzzxYjmCaw4gHlww477FD69SdY7H3iE5/wl4rzOoXveuut15OFb5XC9wc/+EFRAdvLKVAoCTnec889HYWPa3fffXd2Kn9b8bF4TPQjSqnNN988fOc73ymTghISy2+s/7D0xara3Gc+85mw33772c+OIw0hCnWzrLWbdQpf/DJa6p/5wAc+EJZeeumAIhjlkVc20SDnlL6/+MUvivLg/b71rW8thAis2X2lZmWGpRVS1xYPrDGxuPQDI3QOiROW6QxeePfjH/+4GBnz1+rO+U5QEvu8wX+Twrefb7iffD388MPDEUccUZeEjnvf+973ijqp42ILP8aq7qNh+uQnP1kMPlkyGLSgzmKZkSuuuKKjXJ9wwglhxx13NK8dR8rGO97xjvIajTLfJ5bBjNCSP+Yo25T3RRZZxC6VR95LO2BTRcsb8aRK4csz8847r/dae079+u1vf3uYH9oY0uC/c0aCX/Oa14Q//vGPRT3jv11mkGy//fbDwpkKF379618XdSwC2SGHHNIoNE0FJkqjCIw3Ar7jb3FD7kR2GS0nhe9/SdugZDcd1tHKm0HeI4XvIPTaeXaklZztxHJ0QhkNFsw4Y+CGPhJ9h7FY9g5F1sUXX1xApc+44oorDgPs631Z+A7DowsThADfG+XXu6b2k74aRnM2u55n6YuussoqRd+Ob8P34+jnVhnv9KqLaEs349Pb7/m4VfhiGea17Oeff35AoWYOxQTTqblujukVfl1clEu77757MW3N/FAwLGPrFL4UBDr7dUo/C7PqyHR/pi6bsgClIgoSr7DDuvOjH/1oWRCPPvrosOuuuw4Lso34DAt0Al/wyiTyNLWuw4qFxteUd/ihfLAOqTkUE+THZz/7WbtUKOJNGVmX976BRQHEUgx+ijuCL+XTFNLvec97ipGj8kXx5JlnnikaZiuPVEBMo/dLQKQKp6qGug0exG2DDTYIP/zhDzktBh5QaKLcMocyHWt6mzLWqyUfTL761a8WwaGgtwq4SuHbzzc8SL6i7DzjjDOKtDeNGBqTto9jWfdhLY+yzhwWz9RP5qh3qaNQjOP4roivL7Pm993vfnf40Y9+VPxkcOYLX/hCR93HKCl1OmUcl1Meo0RkFoZfVsTX4VUKXz/VDkUxFrr9OG+1iuKbWR/Uxeao41kKwpYy4DpWH3WW+PasjiIgAiIw2gRYjol63bu6AXHvr61zKXz/S1IK37ZKlMIxAqOh5LR3jffjVGHh+6NS+I73Uqn49UuAPqPNKsZICMMe9Cf0Cev66/RZP/e5zxWvRV+D3pBl/MwRBv1MM2ij3rD1rs1PP7oInm1LN2PxGOQ4bhW+KB1sqj7nbAKTOpQPrLNqSiNMsVGsmXv7299ervlLgWDNDywYUQLj6hS+ppRFAWRKQwu32+NXvvKVYmo0/lEWYM2ZW/cUZQZrvuIoxFi/zTzzzMVv+9dGfCysyXBkmQ9bbuHKK68sRldz6fIKTKyt/XrPRx55ZMe6L1gAs16uretcpfD1+cU7b7nlluw6wWx0ReViCn/Wb2EAwByKRcoXbqWVViqsgv2AhflDgUScTDFMeU/XmWmDBxbnng8Wl17Za/FB6cu0IdKDu+SSSwpFsd2vOnprd7gwsPGxj32s8F6l8O3nG+43X4kIyw+wTANWzeTrWLixqvuYWrrccsuV1tdVeQITvhXWJMdR9o466qji3P6xJjVlGle3XAKW+LZ+JJa0fhmdF154ISywwAIWZGCAgIaajcFYfxJXpfBlQyBmg+DSdqG42MU/RmZpN8xVvYv7vpyi/G1awsfC1FEEREAERosAHaQll1yykCVo41gTnQFu5FPkzkE2m+0lDVL4/peWFL69lBr57YbAVFFyisX/JyCF7/9nobPJSYD+GDNNbR8vLNqRIzAYqlP4pktY/eEPfwhzzjnnMEjprFAUvH79c9/H60Wf2IZuZlhk+7wwbhW+KNvMOpINuUyrn6aTdVe//OUvF5dTCzF2oWRqOmuUsT4uFpis99uk8GXJCFOoocggw/pxKHHNMo3CiZKsyrGuCII3AjfKAl/Q2opP1bsn2nU+fKZ+owBt6qigrDdrRCwMTcFImrFqocygZEdJg7Wqt66sUvhiZcu0AhxKS0aPqhxKfisDTBGwcoV/vy5zGrc0PN9BoszbaBX+2uLh169t2nCDKQ+2bjbKW0ax6hxKYpTHpvxGmXrvvfcWa7LyXJVysZ9vuN98JR6UAUbIx3LTqbGq+/xABg0aDWOVAoDN0Ni0zBwbYXorX+pkyikutRK2ZzhiIWvPpY02Da5thIaFLopeGqwtt9yyUeFLfWozQrAyxnq+V+enp1LPMLpc5ahHKHc46hwbyEn9I3ywKSQW8iz9wsL/fD/8EUev4E6ftd/UUSjGH3jggWJTFhgxkMRgRW7AyJ6zI8zZUI1yjrDEICTTuRkcs4FH89vLET4MvuGo6/xgEXG1JTNQ7GMlzaAA7SJW3Ky1zYg762EzaNs0LZLBXmYfMBsBjgyQosDaaKONijWd6+LSS5rkVwQmEwHWmPzIRz5SJIn6FIUvGw7j2txwiPaegWAGyfjOkXte/epXFzPmqKO8PFO3aRudMGQN5AXbbJn6juWx+NZzBhRFYtw/2jGsde6///7w+OOPF3Udz1NfMuOLKZq0Z4SVW/rNBVV5Sv1FR5T+Bn+0ZdRx1EnUhb4+YwCffMD5qal+0xlkgNzyRkw9ZTCTNgCurF9PPUv/KDeNm3ekdS8DscSRAXviTNy4Rjz9gD/P5hwyLe0PhgcMEtuzyE6+zayTIZmBw/uJB/U/eQovZnVW9fVycam6xuAFcaR9w/KLdpU2DmVo3QaBDCjTD5tjjjmKpZlID7Itf6SXwRLiiezbTee5Kn5cx/iIpd7IS2Qvyh/fCH+0w2bkUxdG7l5O4cu3jRwEa9rK5ZdfvthHwwblc+HYNWQWjDWuv/76oiwxgw7ZD9mcPi3rT+ccbTNlFYf8xsa8fMcM8rM5MrOgKL/IaX52ZC4srtGmM9BPe893TNwx+KK8sPFSzqUsqE+s3LOMjZU5dAT0A/txGBRQnnP1R9sMfPyQ4+g34VhSwvqZ6Ctshhl5ZN90bkkHyp7xoB9JuaNuRB71dZZ/r52PlBxp4fdTR7TNu9d6hO+EOg3H0m7UI6mzeonru+yyS4eux/zSXtE2T5s2rehLcJzqzu9pwx5AzBTm+6WOT/uOnhXtlRnxoXPBELPK+aVT+V4I31w/uoi2dDMWh0GPXbVZscKvdNEKa2gk/mJHcCiuhzgUFWFDUZiqfEe0/B2KEIq/WAA6/MVKa+iAAw7oeJ4wzX+08O3wb+mIDUHpJw3T/DQdozBWhhE78tn3NIVh99uIj4U1WY6UCfurS1Ps3JT5EAWWjnyIG1MNRYFliLyyMGLno/Qfhe7yut3nGIX40k9slLJ+vP+qc8qnlcUoANWGw/dgfnPlyVjUfSvEo45HVNCV74jWm7XxeeSRR0q/xCt2qmr9+7D5JolLVLKXYUTBJft8P99wv/lKnKLQV8QpDgxk41OVl21eH6u6LwoiZX7EBrUx/bHzU/qPS5F0+I+DVOX3+fzzz3fc86zuuuuuMozY2Hb449uKDfnQBRdc0HE9diTLZ6JCoeOehR0b9dJPHFjI+jG/VUfSYN8cx9j5qwwnKgpKv1VtBt9IFL5Lfz5sO4+CXuU74BjXqa99PipHKp8nnbHDVZZxe6c/xoGOoahorw2jilfsdJRxS+uPONBa3oszG4biIFn527+fc775uvqEe77uTJ+PivchX1/S5lfFWddHRn4T1/HJNQ6mlN8d9WJUZJW/22rzqJOpt9Pvkt9cp56IA+XlfWSuXHmhPaoKx8KKA1fZZy083w6k8YkKo6GokBriaOHZc70co9J0KA4IlulJ3xPX9hyKyuYynsQ59ZP+TmVV2kIvu6X++R2NU8p3+PindW9c0qPy/bRjdTLkTjvtVPksZSsqkMr7tNM+HnZO+5iLv12jbNS1tRZO7hgVgUNePrAw/TEqAYfimo7ZuFk+cowKtMryx/2oXMqGkYtXei1ublrbDlMm+5Vb4oypkm9U9g8hV/n0+/P999+/Ng20tfQ3/DP+HA5REZsNIyp5y+fo30Slavnbh8E532nKyH4j93z84x+vfJbn4wDSEPKaPWNHzyIq7IfiLLFsONQzUcEz7HkLp+5o/UHCSP21xSANl9/ReCabFs82GgaVcYrKyNJ/HGgqdCverz9HzqyT20dSjiRt/dYRbfHutx5B9jSOtF9pvlFGfZsWB2KG+UH+tjAoW2kYU/E3365x4xgHfQou1gfNfXvGiXJs+pFoJFjJE3/W/4d/2g/qRxdBHOzdde0q/nz7nrb/lpZBj5WKXHdjGucRQNYxbX0sXZ1GHouAxRZbrCN63Vj4+pEwdhpHs8/oZlROFCOLjBaj+efdVaObTAvHggCH1QBWFIyIMaLL1HmsDbBsY9SZZQTmm2++jnj6H23Ex4c3Vc7TpRAYUWeU2RwjiFFgKUbR7BojnrZ2dM7C11swMMWc0SMcI9eUD57HKpIRa6YfVFld8Iy3AGcknFH3KscoMmvMmMP60VuB2/W6YxOPqIgt1lkljCqLWws/Nlwd1spsUmejaObHjt5yFGaUZ/IBK8Otttqq8Fb1vn6+4X7ylUgwGhcbjiI+tlayWcIwisg0kNjABNamnWuuuQp/Y/mv7brP11msucuSI3XOW6Cwqdo+++xT533YPZoVLL1YWgeH1bpZBfMbSxKsbbxVPNe7sfD1Frd8K4RF+rASiQ17YVGEJYNZPxBuznkr/DR+5h8rgNipL5dcoW5PrbOw5GVU+rrrrrPHiiPlzZZqsRvMSGBd4NT5dajsHuWRsuldlcUcGxesvfbaBVPzT/1nVvd2jXWLzXLErnVz9Fb/LPfBNENzWKDYZnaUW88hlwasfHkmtTIhH5kBg8WSd9QrWGCZIz+w9sBN5Y30CgD6JwKRAFZxtm6dX3sfC1H7dszStV9g1LUspZPWSWk9Q72LHIDL1VfsZeDXjsefWeDRJnhXtYQOsjb1iHeEgZWf1bnUG7EjVtSJ1MV16wD6cOwcC+Y3velN9rOQJ7E4RAYxSy9u8l7aHmQ2ZD2T5Yw7foiLOdJkMySQS6i3zYIPP8QVeRErX8/D5BYLh6Ove5lFwswOHGFggZbW/1Vr3vslyIoA4r+07qZc2br9OQtfP4uMMLCAxjoTi08fD7Pgsvd0c6SNZSNlz53n0raBa7yX8pEunQdT4gEbNn21ckz+kXc+jpRpZP40DMKvc76dNH/Ekb4kFrjmeCfWsKn8Y/erjt6q1ecH/tPvkGvnnHNO2Vfltzmst8kH39bChfT6MgdL/HDPO2Y/MrMW58tdjiV+qA+8RR3XcLmNlHmXfcP/9RWKbz2VGTwLH4c0fwmDeFF2u7E2tndytH4cYab1R1sM/PvsnHqMGVEcfT1CHtvMB2aamRzm9QhRedXxnfAd07f1TFlGk+XlUjfScuQgdUQbvAepRzzjHD/qfltqDq5xwKVjlgfXfBgsnWczB7k3VZ3v89EO0T/FdWPh2y0zP/uJZQZtFo49348uwp5tOjbpZpqe7/b+uLXw7UaTjTVUTGjxx4hokwadMLux8PXWQbwjNsble+x9HGMDMVSliT/xxBPLZ+L0/6GoEKsMh7CweKpKcxvxqQp7Ml7H+pR8iw1wmQdNliDGocnCN1bGZZhxKtJQFNCG4hTl8povH5xjJZyOFNm7sC42/3EKfGX+4////u//Sr88YyNcFlbdsVsecc3s8h2MNtWFiUWnxZ1jlWUiI5reQsCPaHZj4ZuLQzffcPpcU77i31vlx2n5Q94ayqeVc77v9B2j+Xsk6j5v7UXdVpee2PHpyH8sf+r8+3vU01gIRGVqGUbsmHRt1eMteKosfLESIp+oA2InoKMu8HlJ2az7luLg3FAUhst4EucoCBTffVyaYSgqlst7hMuMFJ9Wzhk5jgJK6Y/w4tIHZb2AlRkWFz5eftYBYaQWD9RnUTlTvCsK+x0Wc1HgH4od1Y54xA5ah1Us3zcWTIQdN48c4rskzy0OcXpxx/NpmnK/4WzP11n4mh/aPCyQCCt2lIblU876yFtSk7dxIGwIawzCgFnOok8WvuPT2jRXhnRt5PIqGh2U36efURMH68rrcUp7z9+95RltvZeFkJvj0jod9VxuhgJts4XBkfrYy27IWchd1KP8ce7bAPxSB/owmBXnw6DetraCeNLWees/6iT8+zC6OY9Tckt2zGLyfRDqIyy0rL7LzfywONa9G2tQC4M6GoviqJgp4srRW/ByH0Y+7v4+4dA+kH4Lg7YhKoXKdxAXnw7Cov9iceBIe2UWqLRDOWts8sjHg3OzpiaMVGYkXf4dcSB12PNpeP43M8f885Rl5BT8YKnqZSb8MTvUP885bHwYWI5iXW3+KM++naRvZ/e6OZI3fnYKZcbiyPNYgsfByjIO/jvtJnz8pOWaNDHzx6ymscL2M+5IL+UhDR+Lf2NBOcYP3w5p4FtCZrP7zAzing/DW1vij7rB5yl9Jz/jie/cP895HHwo30EYzA6y/KCeOP300zvup1aVKQvqgahcKd9DXeL794ceemh5L41L1W/7xnPfcBsMqt7rr9PPtLyIAzrZNHgLX/wSX8qFfescvYUqfpAN/XtGQ44cpI5og/cg9QgM4Qo7+haeHedxg/gyn/BDXZD6iQMcpR/q3fT+VPvtZ8REY5GO9s36ZrlvrxtO1GX08Txz6neudfN8P7oIH263uhn/zCDnzpC38jRU3ok3Bnn5IM/SWPiGN1ridhWXbjIobWT4MKv+KGh0/NO0eCE6rUSrwoprqg0Lh3DbiE8av8n2m0aXj9+XCTjTmMe15LJccwyaFINe8EX5kAqIubxFkLFG1b+TKXjmn8bBFBfeD+d0ZtL3MBU+9ed/98Mjjm6X8aFco4jyYdo5CmwEPIs7xyqFtf/e0imj403hi6Dk09R0zndpTEbzOFJ1Hx0CE1ZIe13n39dv+G0aIEBQ5/u0BtqzRQivmmKZ4+o7+9aJT/15Adi/K3eOgJkqWH14dGjrpsESJoIbSmz/nJ2ngnaVPz+lhwEHe57vzecLQrrdsyOdd5bhsPSlClfaFruH0JQK8oRDO2Z+eJ+F3e2xF4VvrrPNe/zgJnHxg2WcW/w4onjPxY26yPuTwnfklIg5/ro2PnmbYoJvw9d3tPP2vdCu95t/qcIup3hAKZQqYVKFL9OQLT7E2Qa2fLxoq7zijPbI34+WaWUYKKZy9R1KQK9c6KfO8/JmnEHWEQfig5xG24EiIlcPWb1e927aYZ7nL6eY4z1xplSZ3lRu8wpf3pPe53nqVi9jImN4nt44Ic4A6bhn/uKa6mUcyL9U4euXpiNP7Dl/ZCCU6fuktds+Hc9TRqzMcMwp1/EHS+8PBZZ/v2dAPPw9O/ftC/G0690ckfGRg3kOpbkp3f2zKBssjk1ylX/OztPvK+6BMyyOKDq8HIUMZs9z5BmLA2U8t2wDilevLE2XpSONFgbfasqa9/i6B/Y+Dnzj9jzHKuV33Iy99JfWX54FCudcP8yX25zS2ccpd271au4bHpRB7n25a17ezdW7PJPKod74xofpFfmprDrScuSgdcSgvNuoR7wcnvZrbFkTq/cp1wxceP6+b+3lX+9nqpyTH75Opnz4tFt/MvfteX/+nDrH+qI+H8gLBtuqvh8fhp17/UbVErHm14796Gbs2UGPdbpcuzfuFL6MiHpBLW2s6qB0k0EHHXRQ2YBQCBB2EGYR6BCU6ZT6kUkKTSpEmYUZz9sfjSOdYrT6fMhUwAhPdp9jTnHWRnzqmEyGe+mHa0zJhyohOZfuJoVvqpCw96D8ozJCgEPwwULO7nHMCW5U9N4PDS2dEB8vBG+r1LxfRqa9v/S8Xx7eGhdBL1WoUQF74d/ilLN4ZSTd4sHRRuYtruNN4Yv1hqWHI3UMSiXqG9JNB4S6xvupU4paOts8jnTdl1qSp1Y4lO90lBoeTYKyn/Hg+cVlQApr6VxnuYqb76ik5dOe8UIr78OiBYtWBH46VFiC+s46HRKzgLEw7Mg32KTwRVCIm4x2jD7b86wpbWn2a6rZfTvGKUPFOowMBHmlLuf2PIK9+U+Pfv1ELLb8fd9e1Qk0vj3y1jg+rKrzbhW+1Ge5jpeF6wVm3+GgHjcOufrUnueIUtv85hQt3q/Ox6eCUvnSXr4gL9j3wMyVlK1XnqbWsqnfqt/eut4PWKX+mX1gceGYKnxNgcK9nLLKwoubDZXh0FbbdY5eRqkbHI9Ly5RhIKP4MLo59wqvKgVKXThePqrz13QPS1NjmrbZXuELl6qwvLVyXP6ow5+1lcS3qp0kXN/vSRW+zOawOBKeze6oik8v170VdK58+7DiEnplPGiz/D2vXKDP5+/ZuS+/yC92vc2jlQvKV6/heiUnSuWq51FGWX6k30+cSl7eqzNsYCDfwohLQ3S8yyvfmF1QFQ/fl/dyoLfsI01Vz6O8po1HbkL56/15Ful34f1ZGiiX/no351Zf5eqPQRl083789KrwrStXftYaFtQ+DiMtRw5aRwzKu416JC5JUX4TXo6n/2vlzLeVfnAKudj8UE959lPxnBkWxoN+Z8rAdCO5by/1a7+9LGRhc+Tbxzizl3apG32ivdeOVrf7d3Peq67KwuvlaErduuO4UvjSIPgpLyioUMZ0m+huMshPG62a4kFj6Su/1HrRC09kJo2an0pi8aWx8u+j0KWdYX+/3/jY+ybrkcqAD4ap5VSUVhHYR2UbhTWlv0nh+7X/x97ZvOp2U2E8ra22Kn5VrC3WUqUqFRVFEVERBRERQRBBkKIgWBAURx0oOBXBuTMdiAgiHTgSpw6c6sCJ/gX+A9ZWa12/0LV5Tm6yd9797nvPx30C52S/e+fzSbKyspK18pvfLAQo0x6Z9VCBJmF7gpZWyEg4hFWcLtBFGERChVhbwpi9eLDYa7GDoUEVU4UolFNNHrTMHjjriUUWHS32is9o976Nw++ZMdzG22pXwuvpDxZGvd3VdryCFe/a/G7H7ztB+zgJpQsi2hmahKAboa5OVtr+rYCxrT+Lc8YnfwgVtS+TBwzoSHjbpjUj8NWF+Egtij6h9VHGK/NE4Ej59I9desYnOIGNfkOwnHHT10UHp0ny/ayvm0dghwCj96enZRizmT5Cei0jdKgXn3eqxom5hExjxp8V+GLeYi09NS3DgjLDsoOe9WBRku97vqrlQS96YfzuOIGisbzaWKoKN/Nu215q7mGkadbGaX8rzwtf037X38pjqMCXE8A5xvF7c3Cmo4tjwirfnHQdf21+Zu2Q+RE20571WxMV0Gc2iduTXaP0tJyjMO17MGJzkI1I5icEzWpKo92EVoFvb9Gc6avGmdJ+FXAyb2f4nq88XSvwJby2O3VH0yNsra+2cy+f9p2eCm9Pe58SVgW+o75Hf8o+o/Nsm8/sb/ogfDfzd9gVrpu9mf6aYG6UvvIbrYmDNk4KK8lP19Han5iDR/wCPFOWNezFXugbKnwbrZEoj55opF9nGbVNEcTk+1N8xYIN8VFcFTqPwozeJ4Y9+nEuBqM82/enCnyhU20a+VsPNelccKf4yHNoxLl4a5/bS0c4DZ9jQs2SKX/M/JBrID2wqFp2sydGs91ums86JXGEDvbocfaV3tgb4cGhKWgVa1HWcdC6nIfJj2fGwCi+vt8ji9grm9F89z6vCXrz25UR+MLQIXTQTsBp2VMqP9NAnNCEaWJHECI3Sl/VD9oO96Mf/WgpJ+XlNO8oHfJQwUE7OR5RnlHeN/U9mNJ+OpBbRrhX9y3BICpn2f/wRwL4TFuFnqPTfW2amj7P1IFFhG4wYPMy85jxT8GDCSsJaVuW/E299RQANn21HCrIZmLrLbp0cXAVBL7QEvoIf8p4ar14bsernkJswx71+07RPsrLxKrC3Gxz9aHDLArz3UhFf63+LHL0NCeMc29Sb9OYEfhyGpt2HAl7M03daef27nyPzwl8pct87407PeUCHiqkJB1dTKgqtea19vy9731vwTnxnvHzJBZ5zoRvw6ydDuqVVxna1qSECh227APriWbqnnnpxmd7Ai3DpA/tz/pY4Hu1hZHZZvZvTzsxdygdY9OaMaZ/qqYOvdrTFqmuyrjb4suVj1eBL/Fy3M6UI4UtxMmTOcwrmcbMCczcHGx5+BkMoK26MZ/54nMYBYFJlquXXvKnW3mz2ctGmArHNC99bvlcpb3t3KRlUi0cFfiiuZLps0jWOO2znp7qCXzR0sg6Z5rpUzcEiCp4bNMf/aZcmU57areNo6f4mFP0ewp88fV9+5x1oP+132Z+Yz6NvLPvZdlb/1yB79bBENVYU9OEOq7aMo1+t2NNhW+tiRDFSGmB8t26gTQrgNF0eVaB7xpvqZqNbRpbvxOr3hg+F4OtvPP7qQLfNd6OtWa2sQp87xQfeQ6NOBfvo+hI8vzMidlGuTnIgUXe5QYb/YY1Je/AO7Ff26DING+qj7xAD3aODsqknKI39k7BhjlHzUDRBjN2fGfkiVvlOEU2s5XW1vcU6q75V0LgSwfQiwWYkPPSgK1K6vcjGkjTU0ZaVdZ14NJ5ejbENB291Kd30kzDrj2PyrMW5yZ/093KmQXElsBXbVvRruzIr+GHIDMJeHsKXOMh1IcBTAJGHCYL1MGZaPVUAd96AlRNb/Q8iwcLLwhgTlzkCWMDg5gLND0JCgObedLXNV6Gz+/pXzWBb5ZrxldGmQXETJy9YS6D9sEcIwylD+biBpqL0DMXg3oqDOZlT/3IR5lthBFb6cwIfLfSyO+6adcu3nQBTJ5rY06Z5JbO6JheW3RkmVpf572kJTN+2gZj0TcTvg1F6n1uAAAeVUlEQVTDgqsty9rvWYHv1uaO0lg13cAiJcvYCjXacnF5Xoa1wPf2CBJbzP37auKstCnHxJY/Umdfa2Olc1v8bi5+KYfyB0qrtk6TUhbVOsoFGou3rN+WwAyanvPb3kUjJ4bg95XnyfzTHx0MmMkbYZnOkZnmyG9p47kCX9LLvLZOWnLpWIbtCXxpM0wrceI8657h0+c9hyDW+lr7TefIkXAg46gZD2wf53v82y3wpb8p35R1Hvlb/VfLns8q5BzdC5JhOemWeUMn8n3ikN9m/JbvOVf4ptpGWxu8We7WVyzWeC8dX20aW7/vFoGv0uaZ/pBhTuUjwXsvjTi3zx1FR9Q0XtquTtlMCtF1cyzNTqYpIubSrX53k7+r5sCaGbvkOfbO3S2GKvCf6bdHyhNnZTNtmU/5vSbozW/38BCDt+v+9a9/dd8f/TKO15ef/exnNdkYOCVOzJYnnnji5GyC+Snf//73a7w4Ml++9a1vnZyGRgihVwkGor4Kxqy8853vrM9xsqx85StfWYJGoyzPvYeweVbipsD6KTpR+fa3v90LtvluVJ7NiDc0wP/+97/y6KOPlthFqTWMkxLlNa95zbC2satWPvaxj9XvQWjKL37xiwthQ52uPPLII8u7OL1R3v72ty+/24dQVytf+tKX6utggMuvfvWrNsgtv1966aVyzz33lHvvvXf5FrZ9y5NPPll/x0KoxAnG5dspD6fiQdoMf8p03333Xcjq/e9/fwl1v/ouFlnlwQcfrM9//vOfSzBaS9gQGi7P+hC7+SUWS/VVEOwSDGN9/ulPf1riNLMGvfC8ZwxvteuFDCZ+xGmbEgLxGjJOzZTYsJmItS/IVaB9//nPf8r9999/oQI/+MEPStj4qu/iRHf55Cc/eeH77I8QLJfY2KjBQ6hXQg1qNerTTz9dnnvuuRomzECU9773vavh1z7+97//LW984xtrkFjklDjdvgQPtbcSwvz6O+zJlTiBtHxrHxgf7373u0swd/VTbP6VN7/5zfU5hBIlTFrU5zgNXmKB0EZf/R2aAYUxgWOe+NrXvrYaPj8+/PDD5VWvelVhjmbOTBeL8nxc9RnPWYfVgK98jBOD5etf/3r9FSd8SzDPS7QQBi9zWiwyaz2Wj80DmIM9Lk4Dl7CfXJ//8Ic/lK9+9av1OU6UL+Ovvmj+ffe73y3BNNa358ynTbL+aQSuHQIhOCmxkXZSuRlzjL1TnNLlUMcs73vf+4bRP//5z5cQKtfvIfAtTz31VH1+/vnny1vf+tb6DE8QGhXDNPgQC76F5oaabHnDG95QwzMX/eUvf6nPpEFaPRcb20veM/n10tB3cQilQONZE+Tckd/DFmoJgUT+rD68I7zpWt7K04cAsEDb4JXe9ra31bmL+Yu8wpxZTTMEtCVOTS75KO1d41WYy5nTcbGpW0LLpz6HIH3hx3o8cQ30yr84ALHE2+J34SloI/AKAW+JQwOaVH0/O1eGQL3EpnON38NZE4YHj8MV9VUIZkqo2C6f3/Oe91SetOUFlgCvPGS7UT7KP+sI+7nPfW4Jztjk9+OPP17e9KY31f5LH6ad4SXw//rXvy7hZx5iU76EmY8aNDZPy4c//OFhNPoJvBsuBHrlscceq8+f/exnSwik6jNtyhpqy7E+oE+mC+FJ+eUvf1l/6to4v6cfhydKmJ6oP1kTvOUtb6nPrIfhd3Bho7qE+nV9PuWfYhEC3/LqV7+6G501FTQLt7VWbxP4+Mc/XkJA2R3D52LQ5jX6Da8VAqP6eUR7aU/aFbfGZ9N3wA0XwskSgq/6fKf4yJrZK/9OpRHn4n0UHdF1f2xWFHjx2FSotcr5jnU1MizGOTw+fPE73vGOOh+EZttCzxSPu+UZmQkY4qCByRPUF/Iv11W8SpkBc2McKpFQ849xAKikvCI0FgpyvDW3RxYxSm+PbGaU1uj9a1/72tGn5f2lC3zjpFUJEwm1QCxcmaCYmPe4rQZi4Q7xBHwm/WQienm1DaRCLwSLOXkSN05ploceeqiXTH2nTJ0yW0eVZ5jxNfwAwYQBwMFAs3hYc7ooCDvKlfiOws8IBnOCJ43f/va3i0C3lyabFAjscK2gA2ETfQgHs6QC3vpS/v3kJz9ZFmAIGhF4pDsKD8pCmXCUpRXwZn74MOdf/OIX66tQvagMe36P3coSdnHy58l+nDS4IDBuE9gaw214fs+0KxgTDseiIQWB9UXzL04eFsqJC5XHhZFqgp39807SPgr74osv1jKz4dAKeLUyYS6gIPDPjRR+P/DAA0uQMLZfYN5ZyIa6cN3AWD42D6F+X+LEV33LQixOwDQhLv5UwUJP4MvCJTfPvvCFLxQWFCMHo854xjHR5+Ydv1VowKLnox/9KK+Hju8sbHAIMz70oQ/VZ2XGw9b1tMC2Ro5/uhDfEnRmnNbPBSrvVTDShjvn96zAFwH473//+2FW0Dc2VHBKCyg3zB8On8VsT5CDgIe2TOG7Bb4VMv+7CxEIcw4XhDWMmZHQA4EI9BLHuIJ+r80BLZzK60DTU2jQhmOh+/rXv355nQvgfKG0KrQULgiRMgw+c04esOC3CmoQWMflObwuawc7lK9aE7rWhE78Bx1CmBiaTDVmyyfxMus6yps6qRBtxL8qzTxa4IvQBWEkbksAyVwfp3dr2C2Bbw0k/5iLEWan4A2++dlnn5UQ40cE2fDXOATfeTioFyNMkRU2JHFhC74888wzS7DbLfDVgz0joY6O2S28l4LLgwo54R3gVUcu10b0P+ZX+D6cCmHDXNvmGquX/rnCN3ilFDbCQ2Wb9fIavVMsLPA9T+ALxkmveL5dfCRpj9wWjTi3zx1FR1544YVl4wLhOgcnoIvtRlLOUwgXoUUpbFS+d4TFTX6PbKHdAJytL4J1jcsGXx6QYwMDofrIcYCNdS1uhvZuySKOks2Mynvq+xmB76WadFDbYjEpvcwx+GCCdv/NHMEOxowTzfUPVftRfqjzZ7iYOG8JF0Lc5Tvq0aN0opMt4UgPNWMNe1R5NM3r/Kxq2Ftqf3qREdhiL2Wt7jFAl7YYqRLoLaao9o/Sw3aeqgq1fSCY9CUvVEBG6cQkt4SjDq265VF4qKob9oJHWKGuGcRwKRMqalp2yhcT1+YfY0bHT8ahDTS99nlmDLdxZtpV26O1QarpoTIKLcqyo+qk3496vtO0T1VhqVvvksmsm6rbQefyffqMi8RnS8VSzdnMmIZAVTTT7l30FoK+5TtqVIzDLFfrxwJsCUud9Lvmg012/dY+o3abZcLHDEuGCSZy+UYfH6kWYlOT8vLH7bQZX2kYapO0U35r/dgVfxkb8MxN+k0xpjz6TZ+xN0l8/tbaX+Pk86xJB/CJk07dMmAWSekC9jgzffxgmBcsUX/jAiP9Ttu3NjWhFxrGz/v5J2N3vbCD50i6hBmFrfZLlVLibF341KZF+MyLi1DasZnh1ZQT4dv5Xu89GJlCIC3misyv5dW4RDa/4bf3YhBfTRUQhjk9yzjjh0C80jFoWZrPaePpzey99JWPgHa18ZUnw9Zp+z1/My9kfalXvsePRenybY32qwmjNNuU6SgfyyVx+V595qVUb6cszJ/6HT4JrPjr1ZWwoUmzlHWtvpouz1wqlvVn/tT5V8PyXueQEC5fKGN+w9d47XO2G/Vtv639VhMko7WszqPw2Wvp9b6pGQP4jZF5FR2vlEvTUlN0axd80ebJL8CnaBrnqtcrTwXeIz4bngWcaPfWjrBiMeK7KLP2b63DzHP2+d74PheDmfwJA/3L/j8yh8I9QhkG81ijtEPYuIRL8wMZ9nbzkefSiHPxPoqOgFfeg4KMIi9BxGxjYokfmhkL1pjLyfZZ4/E1/k19BqeUB6z5iRd+houNvwsYKw+0ZZJI6R425bfw3ZJFHCWb2SrH7PfYbN90lybw1YmPBm0FXbOV1HBbDUTY2BVdBh6DFcZO0+A5TgJeuAijd/utEg/Kz+UHbTowIDlhEKYnwDyqPG3e1/k3gxu8+IvTfF3hJHZoYQAyXLso6NV/RjAI46BCiTiJcEu7sthRoRdliB3RC+FaQX9vUYKwSi/q6AnXqMdReCjjMxK+sQhLTGGy9k5OuijbsuupbTUzhjU8zzPtqoJ16tUTSnERljLtLaPc5rv392XRPr3NnQVXj0mmn2b74/foMsLLDAN9gxb2sFDaRvi1DbaMr4LYnsCXcNjmy/xj178r9NUFD2Hb8aeMAt9ZOGcZ1GdhokJGNkv0O4v+XCCSDuXR7zxDq+hzWeZWSE6a+Q0a0BNi67iAwdQ8lIknnbauhGUu0o0chMeaBvMgZYemtkIFwmmfbTdMVOhA/tBPcNH02WBSgVNvsav2fUmHMDB41B2BvWKYePFN8/Hz9RJaur32t5fyP1ykuoWlCkG5UHMrvH5v+ZmeUEHn4RyfrcCXC2DzG37Pfid10TAICrUs0BIVghAW2gJPA/+ihygynZ7ARtNsn3UeREDYEzKqkAWhbJuG8pHMme130szyQetaXot6cs9DhsFvabPS3r0CX7VJCY3tXUSncy7laAW+XFqc5aQtegcKlLfszZMtPvpbeVf4snaOhCdPwQvlYM7W+DzfboEvc1ViAO/T5s9Y0DmsNwe2cdrfKuQkrx6O8CzKk7QXSjOW9XuYlLqlrAiSdXOGdZiW5VzhG2mxHk68aF8uL9Q86ENa31ago996vGympX0n3836uX7v0Y8jMJgpR5i7WHDiMu1eHKVFPdqccZRXbAW++o122cNHZj49/1wacQTe2hf20hHqpvdIZB9u56nQAlnaLcPQZ3vYzLxjE4l1G/Q17QLPxLuuYZJe98Ze1gkb+4kt4doL5jMceCntDS3fzXbQNVdoEnXDHyWbyXKe429KeyPApZh0QIU2bUhFY1WXdpfyd+tH4y+2INtv+TuYn00bvsEoVLuQMZnUaMGUVdtWH/nIR8q///3vqkpKOml/NAhEQZ21pwKOajPq4eli8i1BRKqKFOp12BmMU0z1c3TGEgR0sSmWcY4sT6Z53X2180hdYmFTbSZjz5M2CgFTQSUo2whsOea/ZQpkRvWf/FDjjwUFj9UFc1tNO2A/BjXzECZdUA9HrS/tT2Yc/B/+8IclJoblFTbFYjFSbW5iHxgVhLRFR6AQiC22bpdI8XAUHtgbUhuhMXlU+7SMAVR4UI8gr3SoTX7jG9/Inyf5mC5JG9rY3Em7nVuJzIzhNo3Zdg1h2oV2Q60QlX/sqmEDK4Rai20z+hQmAFIFpM1z7+/LpH2ooWKLNl0ws4U+ybiJiabWNxbN+bmq/oVgdPmdD5gGgS4mbeM9dno/+MEPVhvY2DpkPGpf2lLFzLS3TDoQrrUjDc3FzvIHPvCBal6HvFVFEJMSmM9QhyprLBCX9uYb/ePTn/50NdcTF7BU+3rQmZwrCEOfiEmex8Ux/tPGIi+xN/XlL3+52u4LgXmdP5JWxUK0YBZFHWPvE5/4xGKmgHbBzhVzUggBanxs3KbDDhvh1WEHGFth6aBfn/nMZ+pcxPiADmU9wKs1u9DGx/6l2tZiDpyx4Zv5B3NVQqhU+0ksMAuqo6jspWO89cZWS3szfPqk++Mf/7igMosLpmyxH5xh7BuBm44AYyrHD2MCfgKb3muutdMYmzIn2fGGZkBn08HLoJ7J/AlNC4HBQmMyTAi5buF5SUPpD3xI2j7l/o604U4arBPgJVoHHwiNVDt/bRjUbVH3xIwA8znz3ylOzXtBt+GFoO2Yx4Kupyk60kSdP80OZB7wWvBcOPJHlR5TQNz/wW9cCL0WMwfwl9Bt7LIytxKX+UZdCHwPteFL2mDJXJjmFuhPlJG60kegyfktywJPrHdWxAViF+5dCaFEnQPBLU781vZOMxykAR+0ZUYp88KHT9Z7BMCKPBgDIeCs6eOngweAR1F3u006qH1U8qW9MUmH6RR4+xACXxgfIfA9y4Zv1g1+hLGAeRDGA3xXzvWMUebe1nwLNjSJk472Jyx3iUBb4PuSv6Ovgq3a/Gete44NX/JVvp3frENYR9FurPHgeXR9RLnom+nuFpMOyBiQNaRj7MHDwasmPw8/dY4N30y75QNP5SMznZ5/Lo04os8dQUeoG/Mt6x111O91r3udvqqmj6AL6TBptyXryrCtr6YQeuuINvx1/530emvu1vtmqDNmbpAZMTa4Hym0Ey7I6aAv2O9du++JdGZkEUfJZsjvXHdlTTq0pyOjoouUfvQcjdSVsKtEfEYiT3hOpMXkspkn0vvoMMN8+caOy6jM+T4mqZdb9SIt91Hl0TSv+3NcRLKJK/hysoId7Zn66gmUmMhW44RQYSr/X//618N0OPU70z+ox0hVJ+t1BB7cIsyJ5eyXaz4mEDLvPX4IypZ8rsIJX+rAjmuq4qzVPSaYW1RR92DQi3PZtI9daOq3Vn++gdPaqQlOcOrp9LX02tMhPVzyHSeHMq3RCV/Cqnpohu/5qA/R7zN99amfmq/oxc93zBfssGv8fCb9sL+7lDvjtD6nRUa0Cto00y69k0NZjrCFt1mGYBRvOX1LfD1FQrlbFc7ZE75xGdSFnfQWA36TVpa559O2euo500BtndNnenrbJ3z3nxDtYe931wNPncfR3JhtNz21d8q8nOlj/ibHY8/nBBM0N79B1zJu+mgT6Om+DNv68N+9k7WZDt/CTuKSV8bn5CT8EnSZdQPvoa0Zb9bH5AK8e6Y78ilDT7W+PTGX8fXkXCw8V+k+5da55Xac8AWPEO5t1lVvV2eebnHsnXrLOqu/dhK5TVN/a/6aXvs8Sj9PjOFruu1zzsPM1+23td/wE6wr2vLob05TZ58694SvntjXPPKZeq6NnxBorJaVdMCipw13xGlLsNTb67PcrU8Zeuuju+WELzxP9knFRk9uH3HCN/v2OXxkpjHyz6ERR/W5c+lI1i3pCW0yOrmLSURts958mOlt+SqzgoaM1jVb6VyX74kvfX+tzGh3cPJdcR49M2+1mjSjtGfliUfIZkZlOOX9zAnfSzHpoAN31DDte5i/rcrDwGa80RHsTIOJMHYIl/AZL33s2SAgyvBrfuxcdwkyacHYtovnXlpHlqeX/nV8hwo4AtMc+Nk2+AguUGdqTSms1ZN2yDS2BL6kg9qzEtmMiw+z1qpw9PKGKKM605uwSQehWU9tvpfWUXhgfqSHKeVBgB6Xskz1+14Z853a8jtlYXnKGM68TmlXVAGV6dY25Rk6s7Y5k3nu9a8C7YuTFRfMhCgG9FNUY1v1ul59mWgR8PWEc6SD6tHMGNG0obtZnjWBL3EYN728iU/+bNrMMEUsEFEH7Y1R6ExcLvIyqkNazt4zgsieIANaAa3aYjSoz2iDiPe9hZeWg76N3eLe2OYddhwxW6Jx8hlGNGlda++YMLMCX7DEPnBPkH4qbYkTE3UsIiSnr2VZoU/ZR1rzEhnG/vUQXLqd9rUTwqgcA6eod+pmCTTvVPzj5GDlZ1JolWXAZ5MYGsf8mu/bOysyP4RjcXnjQnMyPD60ijlobcMx08GHNvzjH/+opthafhDaS5rQdo0z+wxfjjmDXn0xqbE1v4E386DWD+GM5s8815s3oPmYolLBXCvwVeFF+03zWLPhm+HgLzEppGXlGZ7oT3/6Uz38kt96Al/SYVMU4Uc7l/IbHGbWQlmens8cORKqUqa1sZDz25agNct+qsCX8jI+4DvaOZj+A29LX81vW+Xo1V/7EvM9mxK5qZFtgw8Wo7Gn6TKv93goMGAjaWS/Wud3Ngs0TX1WfqZnPpGw9BndiMp6gBnxR5vkeuAALDRffVZ89P3MM/wf5aEsbfgjMWjTbn+DkW6kUSa1gc69DolbzwRlpqebUK1JhwxzDh+Zaaz5e2nEkXifQ0eybqHVt2De3nWTYXRtSh+aWY9k3NZnTc245I87YNrvN+130mvqO1M3No96cw/jgvmV/g59nkmLMKfIIo6SzcyWrRduRuB7KSYdogGujEM9GRXkYBhL7NLXW49RpVV11pnCkg4qMKitRmPUWxxRN3rXu941E30Jc1R5lgRvyAO3NtNG9957b1XdfvDBB+9YzYJRqe2K6jWmPZ544omqdpe33s4UBDVAVJJQVUL1gxuoUVk4tX9kXkfg8c9//rOWh9uhuaE1CGwJJndTNTTLcN39WMxVVUVUGrlZ/KmnnlpUpK573WbKj9rf3/72t9q3UUWiL2IWYUo1pMkAuvX3v/+99m3GB/37lPHRJHfSz+eff37px4wzbmpFHfeBBx44KZ2YMKsKayxy6jhHbXR06/1awiGoqKpEpAcWrZrXWly+oXqNKi3zyEMPPVTnpPvuu28r2vIdDKAxqNLSBuCRN7EvgToPxAPLXnljF7sEw11jYS6Dm7XTxaJxMasQAt9F7fvFF18s0JZgcmsZHn744dU+wXjEQePXbtuNhU5J0yPkjfkMOyNgBO4cAtB71CVjY7DSlscee2wX3wDNgU6luQVoBKrp0ICRg08PwVn9jJp5LAi7QaGfpIWDlseirBtu9iV1hRfEhMXjjz++WsY2TegqfAZmN4jfc5gZQlUYbPfMG70097wLgU+tZ84dPXN2W+ky99E/aNtHHnmk0K5HOvAkffoB8xX9706uCWbqwhxMGVlLPvrooyf1l5n0NQw8B2ajaDN4r9GY0Dj6TN+mrC+99FJdCzBu7hT/luXINoUvBa8cu/ndfinQCPgpxhe073a20V4+cradbjeNmClH9rmrTEe0HvDUuD3rEk3nJj/Tr5inWcdBezEFesr66VxsjpDN7CnDzLr9rhf47gHWcYyAEbh7EMB2HAuxcxx2nBCm2xmB64jAM888U+IEWS06wl/sHacbCXzz+4wPkxanaRa7gXGCoWDPuXVszrIhm44NVoQjdkbACNwdCMSp2WofldoiyOVujJ4QFZu6bEDh4pRu+fnPf16f/c8IGAEjYASMgBEwAjcFAQt8b0pLuh5GwAhcGgKcfOakyjmOS20QaNkZgeuEABf2cJESAth0oaZ24YLMIwS+pN1efsdle1zsg1CHE0xchBpq4FmMEmqrFy4OWj74wQgYgRuLAKfc0J7TizC5ZIzLzhD8cuFkqGNeuJAzVHjrhWk3FhRXzAgYASNgBIyAEbgrEbDA965sdlfaCBiBIxHgpBBqpHsdapyooFtFbS+CjndZCLTmHTjZywlfdUcJfF944YV6Eg8h85b75je/WcIupVXbtoDydyNwAxH44x//WGkF6t9rDtX25557rt7avRbO34yAETACRsAIGAEjcB0RsMD3Oraay2wEjIARMAJG4AogoAJfNj7ixvhqO06L9rvf/a4ggMWpDV8Nc8ozAmTs9GLzvHVxAUtV5/7Od77TfvJvI2AE7iIEuFPh2WefrQLdttpxQU751Kc+VeISy2rTtP3u30bACBgBI2AEjIARuAkIWOB7E1rRdTACRsAIGAEjcAkIIHTl8jtOp48uUsL+LheJ4Ah7//33H1JSLtTAdjYX2HERzZNPPnlY2ocU0IkYASNw6Qjk5T9cmozD3MOply5feiVcACNgBIyAETACRsAI7EDAAt8doDmKETACRsAIGAEjYASMgBEwAkbACBgBI2AEjIARMAJG4CoiYIHvVWwVl8kIGAEjYASMgBEwAkbACBgBI2AEjIARMAJGwAgYASOwAwELfHeA5ihGwAgYASNgBIyAETACRsAIGAEjYASMgBEwAkbACBiBq4iABb5XsVVcJiNgBIyAETACRsAIGAEjYASMgBEwAkbACBgBI2AEjMAOBCzw3QGaoxgBI2AEjIARMAJGwAgYASNgBIyAETACRsAIGAEjYASuIgIW+F7FVnGZjIARMAJGwAgYASNgBIyAETACRsAIGAEjYASMgBEwAjsQsMB3B2iOYgSMgBEwAkbACBgBI2AEjIARMAJGwAgYASNgBIyAEbiKCFjgexVbxWUyAkbACBgBI2AEjIARMAJGwAgYASNgBIyAETACRsAI7EDAAt8doDmKETACRsAIGAEjYASMgBEwAkbACBgBI2AEjIARMAJG4CoiYIHvVWwVl8kIGAEjYASMgBEwAkbACBgBI2AEjIARMAJGwAgYASOwA4GzBb478nQUI2AEjIARMAJGwAgYASNgBIyAETACRsAIGAEjYASMgBG4JATueTncJeXtbI2AETACRsAIGAEjYASMgBEwAkbACBgBI2AEjIARMAJG4EAELPA9EEwnZQSMgBEwAkbACBgBI2AEjIARMAJGwAgYASNgBIyAEbhMBCzwvUz0nbcRMAJGwAgYASNgBIyAETACRsAIGAEjYASMgBEwAkbgQAQs8D0QTCdlBIyAETACRsAIGAEjYASMgBEwAkbACBgBI2AEjIARuEwE/g8AAP//sdgHQAAAQABJREFU7J0HnD011f4DIlJUiiigoiIiCjYUu76KYm/YsPfesP+tiA177x1FUVHB3is27GLvYu9dxO7+8x3fM+9zzyYzc++dvXt3fyefz27mzmRSniQnJ09OMlutZJfCBQKBQCAQCAQCgUAgEAgEAoFAIBAIBAKBQCAQCAQCgUAgEAhseAS2CsJ3w9dhFCAQCAQCgUAgEAgEAoFAIBAIBAKBQCAQCAQCgUAgEAgEAoEGgSB8oyEEAoFAIBAIBAKBQCAQCAQCgUAgEAgEAoFAIBAIBAKBQCCwSRAIwneTVGQUIxAIBAKBQCAQCAQCgUAgEAgEAoFAIBAIBAKBQCAQCAQCgSB8ow0EAoFAIBAIBAKBQCAQCAQCgUAgEAgEAoFAIBAIBAKBQCCwSRAIwneTVGQUIxAIBAKBQCAQCAQCgUAgEAgEAoFAIBAIBAKBQCAQCAQCgSB8ow0EAoFAIBAIBAKBQCAQCAQCgUAgEAgEAoFAIBAIBAKBQCCwSRAIwneTVGQUIxAIBAKBQCAQCAQCgUAgEAgEAoFAIBAIBAKBQCAQCAQCgSB8ow0EAoFAIBAIBAKBQCAQCAQCgUAgEAgEAoFAIBAIBAKBQCCwSRAIwneTVGQUIxAIBAKBQCAQCAQCgUAgEAgEAoFAIBAIBAKBQCAQCAQCgQ1P+P7hD39IO+ywQ9p2222Xojb/9re/pf/85z9NnmbN0D//+c9EPGc605lmjWLDv/f73/8+7bLLLktRjjHr489//nPafvvt0zbbbLPuZTvttNPS1ltvnbbbbrt1z8uWmoGVlZX0u9/9Lu28887pdKc73VLC8MQnPjGRz7322ivd5ja3GTWPG6H88xT4pS99afr1r3+ddt9993SnO91ppqjop8961rOady91qUulQw45ZFA8Y8qaH/3oR+moo45Kf/3rX9MjHvGItN9++w3KQwQKBAKBMgKf/vSn01Of+tR0nvOcp+lTy6LvlHNbv7uW40M91cknn/zkJ9NHPvKR5uYtbnGLtPfee08GiF9LicCsY9tSFqYnU69//evTMccck65+9aun+973vmmrrbbqeSMeBwIbB4Gf/OQnTfsmx1e4whXS//zP/8yU+c0yLpYKvwxjZSlfG/3eGLzbRsdgSP7XnfD93Oc+l17xilc0hAIE51Oe8pTOfEMQvOc970lPe9rT0mc/+9nEpBZ3mctcpvm74x3vmC584Qt3xlF7+I1vfCM95znPaR8PyQ+BP/GJTzR5OvHEE9PHPvax5v1LXvKS6eCDD043vOENm3y1kVYufvjDH6YXvehF6TWveU1CcOJI/8pXvnITx+1vf/tNrSBA3B933HENlu9973vTr371q3S2s52tKT8Dxx3ucIdBJDrk2bve9a70+c9/vonrm9/8ZrrYxS7W1MHFL37xdN3rXjed8YxnrNTC/90eqz4g/48//vj00Y9+NH3oQx9KX//615tErnGNazSDIgTauc997v9LuHJFud7xjnc0bZ4B0Zfr0EMPHUTcfupTn2ra2QknnND2nfOe97wNPne7290GDdKPetSjGhKrktWJ2/vss0960IMe1N6DOGLQm9bd9KY3TVe5ylXa11gQePjDH97+7ru49rWvna53veu1wcbKRxvhlBdve9vbGlmH7DBH+2QicKtb3Woh5O/f//739MxnPjPR1nG3vOUt0xWveEXLTuvbxIRntOMx3DKUf4xy9MVxwAEHNH0eWf6nP/2pL3jx+W9+85t01rOetXl22GGHNXKyFHAsWVOKG7KacRp3netcp5FFpXBxrxsB5Pazn/3sJhD9Cj2GBetpHOTWq1/96vaVF77whe11XGwMBNBjL3CBC6Rvf/vbTYZZTJlmPFumUq7F+DBt+Zg3POQhD2leQ89C9w63/AgMHduWvyTdOfzxj3+cznWuc7WBmCdCioULBDYLAswtL3vZyzbFecxjHpOYJ07rNtO4WCr7MoyVpXwt8t5YXMYYvBvlRp/++Mc/nuAi4fAwHoVzOuiggxr+6cADD+yEB85O5/GdgfPD5z73uetn8Jc72Lq4f/3rXytZSVvJ5W//8qS4My9/+ctfVjJR1obXd/X66KOP7oyn9DBbca5kknYi7r78EM+LX/ziiXc0H3adG0Qpyfbel770pRXSsvAlP0+yV37+85+372ymi1/84hcrF7nIRTrLf/nLX37lt7/9bWexwfGc5zxnZzz777//yve+973eeMaoD9pUJuo785NJ7ZWTTz65Mz9f/epXVzIp2xlPXvDobR+ZJOiMg3b30Ic+dCWvlnXmpw8bbb+ZJJyIK5P5vXnQ9+36ec973kQ81LU9G+JnBWTi/bHyMRHpgB+0iUxed+adtn7qqacOiG32IJl4WskE80Q+sjVqMULD19dlMXDPzWUpf082R3uMvAG/IWNJLdFsIdzWUyZ8i8HGkjXFyPPNm9/85m0e8iJkLVjc70Hg7W9/e4sj7WIWXQVdwPokfriNh8C///3vFcZ+q8dHPvKRG68Q/5tjK8MY48OsIDz5yU9uscyE76zRrPt7zBXywtpK35xh3TM6UgaGjG0jJbWu0XznO99p2yf9Bf0zXCCwmRA46aST2jbu51tDy7mZxsVSmZdhrCzla1H3xuIyxuDdmDP9v//3/9o2a3XjfXjKbExThahvPu/j6+NXqgmN8GBdZgs//elPV7K13iqguybF//jHP1auda1rTbxztatdbeWBD3zgSrbqXUWI5S2wU8HjyWcqqSs/RJ4tFSfyA+lGA7r73e++Kj8veMELivn5whe+sIrsBZsHPOABqwhoJgjZorkYz0a9ma0LJ7ACc8iFI444YlV9n//8519BQSy5bNU7URfUH8TEXe5ylxUINO10pJFXI0vRrIxVH3nr88oNbnCDiXRpv5SL8pEHzRODZcnlFaeJcLxH+6DN0940DtpHtg4vRdMQCxqWeBBU9773vSfwJ0y2Si/Gwc28BW8iTY2zdE0fVff+979/qvctzrwqptGsfOADH5gqnsc//vET74+Vj4lIB/xANliZ8Gkjj370o1eyde3EfdoKi2Jr4ZhQah7sehGE7zKUfy0wrcW5CMJ3LFlTKwP3v/a1rzWLrciemuzsej+e/RcBT/iyyDyNY7HS+qv507wfYZcHAXQWxnDGYXTijeqsHQbhO38Nml6IvyW4LYXwpS6ZY2LYcv/733/NdLstoc1EGZcTgTEIX0q2WcbFUi0tw1hZytci7o3FZYzBu0G6euNRjOqYh2NU4w0Hb33rW1dJX88vWR3X/LyzdhFwF9NYOOH71re+dYLsUiuHLiXnJS95STvRIVzeEjNRIAhhVpUMZMJgETzEYe1m75Ef3uV3V35YqbB38N/whjdMJAVZ4607syn7RJi8Lb1NiziY/HkrViZ42vhmXTmbSHiJftC5DEc6zh//+MeJ3OWjGSYwghzzjs6r7YiO7LGGCFULbqwb/arNmPWRj+doy0XeIEzUUc9q1UzZSw7S2vBB6HjCn7ar1r/eEpY48zb8Ng7ignRjdUudJ8w//OEP6+P2Oh+F0MZFn1xLp4I0H2MxkdTrXve6Nh/5mIyJZ2P/6MrHNGlBlFld4oO5unxEzURb9zJFw85yTZ/Q/kYeTNZxvdaE73qXfxbM5n1nEYTvWLJm3rLG+/0IeMKXfke/H+rytv8JGcL74QKB9USANshfEL7z14KNx11zj/lTWZ4YtiTCd3lQj5wEAuMjMBbhO37OlifGZRgr1wuNMbiMMXg3yu8thN/4xjeuggUjTasv/Hyk5qow3DD+BbJ42d1CZwuQSApgPlOzsdjsU3IgbpXQy2fWVXFV8+oS+eVfZAsBiqrl6y1veUtbgV1K18Me9rD2nSc84Qk+2uY3pC9WqRZ3PrdyIhzlsGcQA56ktMBsBzKMCL+RrUGsTPgQrFZ+yufJTAur5B4kqXdMmC0e2oknMy18PkOzDUd4bw07Zn0ouZzPh7EsTPj5XK+J/Hiy/wc/+EH7vGsyxeKHlR/LUO+U5Lvd7W63QpsvOdq+xQMhXrIwzefctGF8ey7FOes9tcBlC7N3+ezZNh8eNx92nt99+Zgmbt2KjbVHyUHyWh0gO2p1VXq3757KOfobaSlZuNaE73qXvw+ftXi+CMJ3DFmzFmWPOFcjUCJ82YUyxGHJrXqAyYkh70aYQGCtELB22KWjrFXaFu9mOdLB+jf+luCC8N0SajnKuCUgEIRvfy0vw1jZn8vxQ4zFZYzBu1E6uEeri9q8l3BqRHqPe9yDW6ucxcNpA8vuFvrRtne+853NR7MyQCmTseme97xn8yGyM5/5zM0HpLKSU/ywDR+rsg8u8WEjPlq1zTbbEM0q97Of/Szl7d7N/Qtd6EKJ8F0uWykmPlaFy1vtUyYXEx+a+v73v998NK32oR0+kpWtlZv3OOz5Epe4RHPt/93nPvdpysp9ynyve92rDZKJuJRXFprffHglW162z/xFPuKh+cAS9/k4xZOe9CQfZMP9/uIXv9jWD/XLh5xKLp/xm/bcc8/2Ue5U7TUX1AP1gePjQi972cua69K/a17zmomPwuFoR3z13txY9UH+tt56a4s2ZQK62l752r19uCWfS5syod2+R3uh/eBe9apXpdve9rbtM73IFs5p++23b26V+pD1LwJ85StfSfSLmrOPTPE8W6CmTCBPBH33u9+d+AAa7jOf+UzKZNPE8zF+gN+lL33p5gN1xMfHGTlAXV0W/G0f4GNVdhi+hpn3ekg+hqbBR+Z23XXXNjgfmyx9PJCy7Lvvvo38IbBvE20E+eK73/1uc9h8XvVsPuJ3jnOcI3HAPG0I/E53utNp8EZG5SNLUrZYbj4Oydfh80pnK3fywJfufOc7T7zDD8M2T+ibj7bl3RSJL05TL3kHQtp9992bNkX7tI+L+UjWovzUzwc/+MH0vve9r8EiL1A0X2fnYyjIg9Of/vQ+G6t+Z8v7RgbnRbVEHvfaa6900YteNPGl91122WVVeH+D8YYPaBEPH6ChP4P9TW5yk6bPW38q9UuNC1nIWECdgi/v5eNQUl4Vb+I1XJFRfNzS3FiyxuKr+d/61rda+XzIIYc07czCgl1eLGp+Ii+QL1nBa8ZS2mbetdGMqXxICTnv26XFY35e5GhkDx9fon0h2/gQK5jyoauuvFgcy+qrLqN5zIu9ve2NPke79I42UHPZqr75gCn1wMcZL3jBCzZ1h77CdcmBOx89xWUyuvmIBfHwYQtk/h577NG8S30M+eCoT+Poo49u2vROO+2U7nrXu/rHGCE0ug7tgHE/72xZFYYPTtoHdvkY0s1udrNVYebt22Nghzz/yEc+krKxQ6Kf5CN8Up44NHnlQx98MASXF2Kbj9Q2P/I/36fywlFCdvMOf/Qh7iEj8rEQ9lrV5903velNTX/KCweNfKEfX/WqV035mKb0/Oc/v3k3LzI2eaxGVHjgxwdkIh/35MNU2Tih0RHIIx/06ftA4awyPS+gVj/a5rFEhlC3tHPa8957750ud7nLJWSrySbGEuQx4Xjf5DoyjPGuy6GP8S5xn3LKKU2ZsxVQuv71r9+k499F5r/5zW9ubucj4drHlMkcH1RlfJ/WzdKGPV7ztr1Zx7YhZX3lK1/ZfEAYHZd5HPM2+ht/jMfoiegt6pC16A3Ihy9/+cvN+ILeZB93Lull+j7XjEF5wbzpT3xgGozQUZGr6G8lx9ySD3Jvt912rV5v4caUuYsaP7MhVjPGM1YwtiCr0T35EDW6Lhgjd3B8dHu33Xaz4k744Hfsscc29QE+2WgnIYcY65iL97lp9WDi8238fOc7XyNXkVvoteiB6MbTOmQruhD9zj6GzPjEPPNGN7pRVf75/Mzb5/ryPYtcGBKn/2gbfZCPWjHvzN8gSsw5GAuQtfSDkusaFzU8caMTETcfRaTO6IPWlz1HpO0xH1uYqPOaY56LzoRjLuH7NDKees4kd1PP6KjMheGb8Hfcccdi1H6sLAbKN+fVXWrxrtf9sbiMMXg3MLB5GdfMVWp6LP3E2nQ2WFr1sWr4QfRY3NOf/vQET7fULitYC3OYRGO1xgeX1LGanUFqrFf0vl1zni3P+fPboC3MLD6Wspo2Hw/DmYk2z2oOa0is47AKrVmU8q6uSGCpqg4rSitX7uD6aNU16VlYLLo2g8PCFdN6MGR1sObUMpe68S4r1i02/sxYH5b2ZziSvrqx6oP2QLloH8cff7wmseqauqzlBwtb4uLPHz+hEWXCuI3Dl/8Pf/hD+4z23Gcxevjhh7fhabve5cl6+5zjHdbCIScME1biSs6OSym1h1L4We4NycfQePXIDKysu5yuKuaBclVQ2oNaNBlW6meFagWLQHW07yOPPHJCXk1r4ZsV+FY+anp2DWYlN2b5iZ92rX3H0jefY3B8/9Z80Z9YsbXwJR/r7i6Xlc3q+1lhX+GoEXzi7hpLtM/5fND+8yS2TYd6VTeWrNE4S9eZkGjzgGxTxweGLN98GPIZz3hG+9vum08bpO5qjmcqh+098x/72Meu6FhI+91ITi18kdVWrlI/9+XSo2X02ofjN7uF8sS7jd/SUT8rqKVXm3PvLRx6iaZl981nPJjW6dY+dvl4l0mYiXxzbrx3ak304Ac/eOLxvH17LOzYDaPHcYFZXpBu84pFiOFImdX5PkUZLaz386LwhEzXeMACC3L/jv3mvP5MSrbPvXzRuGrXFhcWvrrbyu6bj7z2R3ZpnPPIdB0PM3mm0TYfQLM8IJ+oA/utPvlH18zky8RxWxqGHWQcs1ZzzG10N6K+yzW7XPwZfqpn+PD2O5MgtSSL9+dpw2O1PTI2z9hWLJi7af0LP0/OV9Ur9a0O+dtVP4zXXXot/SkbKq1Kx+oJnw8wlnbHsTuR5yVdQPvoPDJ3UeMnH5qmHFpuu+Y+OHNWsd3L5JlWQ3udDVnaMBZWff/tjfbFfDGrHkwc2saPOeaY5rslmi7taVqHjlvDhLh5VtOPNT+02VnlfV+e55ELfXHrmMwc5rWvfW0VD/og407JdY2LFh6MtL78NTtdKau6vEDcvpON5vTRxDV93OQK8fod1X0ynjlprb1bPhlrSm5e3aUU5zLcG4PLoBxj8G7Eo7tNazuwCac7bjkK0zt0BatTz+/5sMvwe6FHOrD1unSurglJ/JKzgVI7H2eXMlggGLOVyAoDA4oeHWaoQ7m1ylLFYAjhOzQNnSx5pV7LRXm6HMLT8orvlcaudzf6M/1AF0d2eMeEUJU4zqwtuWx10WII9r6tLLo+mOxandbafqkceo8y3O9+92vjyZbf+rg5E9rSAKM+Z22fd/hAk3c6seLs5FNPPXUFQcfZygzUfCyxi7z38fnflEcJHybNJWcHrtvACbnH1gwGcohqiCCIslnd0HwMjR98rB4e97jHdb6mfb10LpAq0hYnmGndcR9iRds4H0j0bhrCl/i1n9FmTXZbPvC/8Y1v+GSa9mFh5i0/57Vb/Vuc5EPzxn36MxP4kiMP9q75Hj/u1xQ3zha398wnfcVD8eJ+yekxMhaPz4cSZLMQMqQ7r6wZSvgqiUl5fFm4B4ldmhAzgfP1SnhdpOM3cgmfv41M+EKWWnuhjNpXfVtREpQFI9VdfFgW9XQsAyfSgXDzfaT0TQAlH3RRhXd1ImR1kC1sfBY6f3Ocjb2bLWlWhdXjeghXWnjROPzzefr2mNj5dksdMFab65rYKgGgdUAcpTqonac/BAvtT7PIF6tL8mXtmXv89u2N8Rq9wbt5ZbrqJV2Er+oWyCbNL3lmkcQW6fitMlzLWVqEgBjw5S3VlZL+4ICOQ1vx7cXu4bPQOtTN24bHanuLGNsMX+rRY099nXDCCS1sOoZZXYKt1jf3iceTPBYJC+b2rvm+DXG/NMaZTCa8d2PI3EWNn6V2TpmsLgwXnfuW9KhscbkKy5K+oHNzxW1WPZg4tI37fkdZaBPTOJ1bWvlpR6U2iaGAd5qfeeS9j1d/zysXNK7StRK+Wvfg4dsG9+gPzB+96xoXCZt36K5qN6U+SFvSfpwtjNv3yE9N31LdHmJQHXMoX6eltClf3tWjrzbX1jZs3uoDDBmviaPUn3xcG+039dHFZUxTHm1/nncjHj2flw+ne+MowjBn0ngYP7zTNk99M69Bp4WHQT7hs8iDfrMMbqGEb63A1mHwS06fc86rCgTrQOYjRLSTl+Ljnq6qM0nVzm+DTi0/tTj9faw7LV8MIAzI6mho9vwVr3iFPlp1/dCHPrQNyztmjbwq4Ca7AWamKFFuVlxKTuuTcAhOrCIQ0HTEvFVuAj//0T/iXHR9qPUDVgPTOHBhpZHJv7UhiKHSRMSe42MN3OU0LIqQd6Zk0TcQgNY39T2uUVpmaaNqvUd91Jwp6fkYlpVHPepRLQY+H0yufL+rxan3h+ZD3+m6ZnXQ8lZTYO19VhwtrCfdVWkhDP1BJ9BYWKlC0reQNA3ha3mClGOSigLJH5NRVtTtOfLTr66PVX4w0riQDShoDLTIcMhmJUhR2Dy5yAKF5RUf2WELkYwd1sZ5hmL4y1/+0qqm8WnXivGNb3zjpi+SPm0NSyMUOk2jNJb4jylCvpl1EfkpWYzMQsiQ6XlkDe/rZLnLwtfKjJVv3trNqw3p7mUFfdY7LBXtffDijHA71z1v31uBILXn5m9kwpe+ywKVlYVxquYUG5TMLsJXrYhpp/RP+ikOXyeXPFfdhzBKPpA3+rYuFuUtcCt5W2ab79IiLPHUHPmxMvMROu/8okHJGkfljfVd4pm3b4+NHQRj3l7eLjxZPZBX1WP9pETrCKyQQ8g5e5+JMoYOhiP9xY9z+QiH9jnh6JOMHzj0BIhylWOEmUW+WB7Mf+5zn9v2W9LSsZQwpQXheWX6UMKX9KkTWwym7ZesxWjfJospA3Vo5cP3H5GlPpRMhjjOW815tZnsoW8q1ixYlJzpU6XxohS+dG/eNjxG21vU2OaJJHCnnzDBVrnGtdYPMkV3F/A9D134yMfCrYJWPxxOG6DdmJ6DToClqLYRxm91No8p1e0YMlfHCNJYi/ETYkRx5Jr+bLKHNq9yzfDwBBW7n6ytE4bdJpznjGOR3lv+eiu8efVg38bJC+OxyUeTs1p/tWvqXsvCeIg8p83xx4KojteE9RyFz88s8r6WP7s/r1yweGq+kl9W7xjk2Y4I2g4kv/ZZcNF+Stzafvy4qGQsacCLnHLKKU2W0APQ5a2f8dzrDizEWN68DG8iyf+w0LcwyjfQ13VxgLmF6Va0f6+X0Te8s3hLhO+8uotPa6P8BruhXMaQMvXxbsThF5gZ79GXmC8jm6gLrWv0Td9OiUd1G97Xd6yu8Rn7p92lQ/xju6UnfGkMBhxsu5Jydt/7gG6TzRJgCAYVOphlqxuD8GVSpApeaTLHIGd5hyCzya3mhWsGB80v7/QRdz6Ojfpbv0ruLRZ9mZiU6kTQsFUfpQ4hXXKLrA/d4o4CAKHR51AwaZvWPrVcEL+17ZK6feHe9753NZkTTzyxbY/ETfv1DotTTbfrGlJ2SLksDYg5I3KJl8G95lTB6soDz5gEeNKvFi/3p8lHVzz6TD8myeSxy9GOrUwoL+oYGJkc8MegVHI68Xj5y19eCtLem5bwLZG5RMbkSdsl5Jy6scoP0WzY0D5LxzZ4xUyPy2FnhLYdbx1InlH2WUiwdDzBqVvDaK8lKwVPCpOmdzqWeasvC+uJhlkImVlkjaVv/jSEb+koGOJR5QhsdaGCa8MbHyuOkmNhVMNtdMJXt4TV6laPNDJ5oBNIjxOTFJMRNRl6xzvescXRLwop+cCkpdS+ecfqAd1kGkf/sj6Ioq0OHcjitTDoc+pQ1i0M4725Mfr2mNih03UdX9I1sVUCABx8HVFmyqt6ITqnOiWwSgsshGU8MSzxa21Q4/XX+v5RRx3lHze/OYrFwuXzgifCzCvTiWwo4QuWRupoJtCLLH+MK0bkaZgnPvGJbRisV9WpVToLFiWLHj3ugnyUnLX52vPSO/7evG14jLa3qLFN2z9HNJUm5eCDXGFRAdnGwmqJ0IOYsjaAzqiOBRJ7hl8ihAmPvmXhvHWgEVGlup1X5i5q/NQPRNf0L+qA+YjhgO8JXyXeSrtMwFKt8NDH1M2rB/s2Dskzq8OKz8pKHesCpMVJ+1Gi3B9V4fMzi7y3tGr+vHKhFq/d94QvOn+pP6q8BzfPv3SNi7oDzPdRywdtzeqDvqb1oYugngzmffKr8xh9V8cYdJLSfJvw+r4nlS1fnvAdQ3ex8m8Ef1Yuo69sQ3g3i4O6Rl7bmGt1oz7PnvrUpxYN6YjHLwLqu/6auNAB1tMtPeGrX3FVAFnZYTIDIczqLOQHA5CFoUPWtvPqCg5KnHfWYamgWRzkhxJXnDdacpACll98CE0/QWD1yvKjYf3KVyn+jX4PpUrLrMRNqWxY1ulEWN+1a6xiSlvOiW9R9aEWTuSL1ewhThUgKw8+gwfPStsSiFcJH8Jj7Uy/UQfxpXFyXWr/aj1JGAZNVvWJD4UZok/7IUpOyepY07ZrFBLLQ5d1r074LZ+0FRZ5yAf4PuEJT2jjIkwX0W3pmz80HxZ+iK9Wa32LNVo+sJzW6SQey84uNy3h67fLatzahnTrMmHGKv8RRxzR1mttGzPpqdUWR2SY0zyWjsuwcHpuLjJDnZ0fTbvyCp2GU5K01Jesn/Csq4+oxfG0hMysskbLwbWWxRPgOllhrPKyReNSIp12ak4tN2qKvIXVtrTRCV/KpIuUpYVqjqoxuWgLODrOGS7T+JBuFqc/Z17JBxY3ak51nNrYU3tX+5DqaTpWqZWXWlvqmf169vEYfbuWX70/FDvfTzQOrrsmttqnusZC3QKpsplFS6tf5EyJ4LL86Fg5rXwhDksHv0SmEoYzPy0ciw3q5pXpxKWTccWBZ4qlT5vnOB3zIatKTrcSU3fq1OK9izzS84PVat7iYiwAp9J4YWHG8LvasOI1S9sjf4sY20hHCd+++QHh+5zh7xeZdAchpFPNQSIwJmE8YrLawg4lfGeRuYsaPzmyzfpx165UT5Ar4csc1+IA7xIpaJhZ/eJP67r0YG3jnkyeNh2rV8oEmVlzKgMZO9VpfmbtcxrfrNddcqEvTk/46rju39VdmXrsCuFq4yLGQ9pulIz18dNf6YPsatF80C6tj9OmfNvTfuT1fiXsu6w1aXekzZ/nGiz/nvBdlO7icVqv37NyGV35Hcq7WRwQ9shaaw9WN+ozjqGHqnGKvY/vj+Cg7zLnQh+Gu8TIRXUD0iot5mica3m99IQv22m1ArhWJV/BYcDXyisRAihjFh+DeqkijWAlrmkdFa2WFVh5dAkmb1VJ3iDV2OKvAoa8KNlWUhanzesyh+ccFKsnfD8o+LzryjrhwYuJNEQf9aHtgucMCCW31vXhV6A8MVbKk91DYYD84Y+Jg7YHykR79gOMvcsqFWHsDzz4YAvxmFLFM9qrKeslJYs0LI7aWckod4p3zRLV8oYPSaRxIzRrDot3ywN5LJEkvEu6Fg5/SJ+ZJh+1/JXuq0VD3yqfLnKBSZdDYWHgwtIV3FG69KNZfUT3tIRvaVXb8odVlOHNbgx1Y5VfyTFIXcjz0p/WvU7O9exP2n7pXe6pBSMKvTolukrjh4VlIdLwoD+o03GNftzl9ONw0xAy88gan5+hhO+tb31r/+rEb50wUn/mlNSsje8W9sgjj2xx3QyEr5IJkG/e2YSSNmS7gKYhfCH/+H4Ci8dMRrDS0n4E2aVOCd+uiY3uHCH+aZz2TyY75mxxAyUZvcn6DwuJ5lS+6Xg3Rt+2NMyfBzslOSw+9WsTW8IoAVAySrB4mFQaRmzhNgcudp9xvsvpNxKmkS8Wp6VT0hcsjI5pjAXqtC3OItOJayjhWyPhlcwF05Jja7aVlQ9Jm4NMt/v4zDFq44oeXaH1ZXGZ3uTHC3s+iz9tG5637S1ibDMcTHcFL0/eWJiaj3xBl2SsZ+FWSRevd6kVJ9bqsziV4/79eWXuosZP3eHHfKTL6fmXKguVGKT+an2F+zYXp191jTHT6sHaxufRIXRhjTxiqVlzzC1UTujCuOZnFnlfS7Pr/rRyoSsunmm9Mo/scnq8BPqcutq4iC5i+PXpzBqfv9aPLnqDDTUG1GMffT1Pu8BtebD8e8J3LXQXS3MZ/Xm4jFJ5puXdWHTSeRz1wm8WhDE4US6CZ9RXaa6nO4PQQUqOObOSvugA6+WWnvClIq2T4HetrgKiEn8+LIOCkrG1rdU2yEyrdCHAdesyjeZXv/pVb92WDq/XMpMPFFJtNLpq1ZvABguggh0c+ggAf14Y2wq9RQtWkzaZNGxVCVGI1qo+UIStbZEHJlc66Gsehl6jsKrVHEplTelQSx7DQH3e1VXx0qDN0SQQBDWy1/LNBN3i5ozTPqcfKuuboIIZCwDkQyf8pTTUkqyvHfH+NPkopVe7p/nwFnX+HbXK9MSphSUOyDUj5w1r749J+HZN6C1fmh+UJHNjld8mTb6cXb9VuWKi3hW29swscJWE8lYaVlb1kd3E6ccSJVmQS12O3RyWr6GEzNiyZijhWzub0sqnk2olTVRx8hZ69q75ui1vnsmaxbdIXyc6RrQiz4y4oP/omKCTKG0nfYQvehPkupKy1oa8b/kwHJR8gCSuOdV1uibjpfeVFNIJn42PdjSA5V/bvS0eeXk0b9+2fC4CO9KqTWx5pgSALozwTJ1ayiiBSJ1aPde2TFs8eh6m4mzP+3xLR+Wsf0eP6vCE77wynbSGEr41LJXw5XiGkqsRvmp5ZlgM8Uv1UhsvSvnpujdPG5637a312KblNrnpZYGG0Wt2BzDW+Am9ry9P+KolPVZbszhr514XIK55Ze6ixk/FrUSAKC56prDOtd761re2ssnj3vW7pBfMqgcPbeNantI183vL8xB90NoA76ihytD81OR9KW+le/PIhVJ8ek91FW8dq+G4Zleo4ebHg9q4yJzP3lFdyMfd91vzqcc6wA+Z/oE8UQ5B9ZUh9VzLg+Xfj5Vj6S61dDfC/Wm4DC0P+rLqon28G/Wqi8zUJ4tL3mGtb+ML9YaBkHcYmaJrIYe0vfhwenRbSf778Gv1e+kJXwpunQS/j8BQyyw6rzq1KunazmudfpqKQVgg5CyvNBTdhqj5KF3TcCibpU08kD1sv0ehJH6LG5/fm9FBbpjSSzkxme9z2tnZktLl9EzgrkFj7PpgRUktthE4NWK2K/+lZ8QDOWvto8samokNhKoRc2DNwghbGyDFlWz0Z5CV0q7dUwGHktPlENja7vssB7ri8s+UeOYDAl1uLfOhSkxtQml5U4XYb++irjmrzuq6z++Tl9NY+JYWACzP5qtCq4tSY5VfB+C+sttzVdBURtvzIT7HveDUunyIlYG1az+WKCHTZzGklsJDCJm1kDVDCd/a2YbWPvT8Nj26AfLD6sETkPau+fr1981A+FIutSCDFDanCyW6uNVF+GLZreOB4VrzPd7zkg+W9z7f8miLWjoJtK2xVtf0H+Qzf6Yf+A+dztu3ye+isCMtlYn+iK55CQAWZq2++8YAJTKHyBfyrs7S8ZNYDdNF+M4r00lnPQlfPXPfsBjil3Z3Wdv244Vi2Xc9bxuet+2t5djmy25tB7/LMV/iY4JD6oUwnvBVy+wS8diVtj0z3ahUt/PK3EWNn/RxwxBdqMvpGKWErxpVWFxDfDWUmFcPHtrGu8rHM+37Q/RBPY7KPmZGPEPzMw/hO69cIJ9dTolUjtzsciwQW537eUVtXFT+prRY1pWePkMWmF6O3DAuRee+Pn64HMtv1zin6ZSua3GMobuU0tto96bhMigbdafYUZ99vJsa0BBe56keLyX6qTt2Ks3qjHMhntI3AmaNd5r3NgThaxMDgMJqpcuxgmWdyg+sat3LgM5Eo/Rn7+NjVctfid3XfCDg7D0qlsnLrA7LOL9aoJP+IQPLrGmv53sMgNopah//0TzS4U1JBv++j4RB5Fo99RGRls689YF1IHVm6dIOu475sHSn8bFetfj9YFWLh8mzd7p9fAjZ7t+338Rt+elTxpWUHWINbGkM8fm6r+Wjrw+vZT407tJET8uiExP/sR0lhmj31DXnXjKIoXxC9ul23r7J/jSELzh6uaT57qrzscqvuxzYjoVc7Pszspa86patpz3tab3vWtxmrazyxo8vigXXeo6dD6skS9fiI/EwwbQ23EfIrJWsGUr4oqx3OVXa1RpYjzVgUa7L0Y8Nj81C+Or58SwG4nQbPGOGOp1M632udVKJnsPYAAHIVnMm6XyETXdCrRfh++hHP7qtR8ZD+wAGfcXkjC4csvNHJ2UsjKmbt28vEjvSqk1seTYvAaDH6/gJNfGrw+rV+lOffNH37Nre7ZoIdxG+88p08rGehC/9yTDAtzGjzy9N+mj7xOHHC8N6iD9v/5+37a3V2FYqO7olePXpmH7XIAQuBCJndjLvgIBCf7H5hyd8j5RjhPqMSkr55N5aEr6LGj8xQLK2jvFIl7O6IbwSvmpNj1FJXz+x5zpnmlcPHtrGu8rHM93xNaTPWvsCEz0ebWh+5iF855ULfVgo4eutdv27fG/H2hGEnbrauKg7BzDymsfpblc71kHPkvcfkvO6vJHE0+bByuzHyjF0l2nzsqzhp+EyZuHdONbJ6gF51ud0B7UaY/S9559r/zulY+ecf2/M3xuC8FUBoNtAS0DowO4JPSXdrMKH+l1Ks56PikDHyniIQ8FgRYM/m+DU3oPYsbzadsda2I14n+0ttupGObusb7V8EFyGCz5Wql3Ob7/TsGtRH8SJlablkQUGO4dR0y5dgwEEKFZefQPMMccc06bBVip1YGLtTO/7a9LQPqJnGBEWwoAJIX8QeF1Oj4YwC65SePKliiHv9Tm2dFs+UBy6nA4eKO01N0s+anGV7itxwWSiqz5tyzJtRs+3JF6wtLbkCQ9LVxXqsQlftUqw9MxnW4zlzRMHY5Vfrfk553tapwrzkAWlUvw6cNc+UsR7Sk75yQB90rDyk0ufpi4AeFw17DyyRuMpXQ8lfMGmy+kOC50wquU0eNRW3RkndNK0WQhfMOOIFmsTLBjrWbV+1wbtwMIq3kqs8bzWPrUe1ovwVV0NQpqdJ+TZf1jL9AJ0IJXnjP3q5u3bi8SOfKteO7aFL/EbbmDq4+c5Dpmh8qxLvvz3jdX/rR36SayGVGw9GTCvTCed9SR8Sd+IWrBQIodn0ziLx48XQ+NQnMnLLP1/XvJpLca2WvlNd+wjfHVxqTaH1LmEH5P1jFxPUNXy5u+vJeG7qPFTrbe7zuvXRWraoRK+amHXNa/2+OnvefXgoW1c06xdW5+lnGpc4MN3zT2H5kfHOD3Cx6flf48hF3yc/rcSvuhoXY4P/oEXf+ziUVcbF9WQpa+/a3ylawg3S9+OdbDxsjZf1Xoe8j2YUrqWph8rtV5nnZeU0luWe2NxGVqeWXk36tvqAaOfPkfeLTxzMXMYAUEGozPVxhQLC7+n7UcXryzMIvwNQfjqxJlO2QWWrkDezn1tF/KDztz3Z5WLb2ERQiWngosKZXV7qNNVpq4tELrVkTyBx2ZyWDqYMkT52KrZRYj5smtH4vzdLqfWLH5BYOz6oJPrllyUGz9J7cor7dfaYu28aXtfyQL/0RGd0GENWnNqfQem/owutWRhQGeyWHMIUst71yHlZtVF2KGrthDRFnffF3btDEjCU76amyUftbhq902hIC8QHCWnxCjhUNTMgbeVm/oxq1N7br4OUGMTvl1ySgfS0ocn5i0/5ePIAMOgy2KbMQJCiT9dgNMjfzjqoWssYTGB980CwPDVVWVkRs3p0RvUl3fIAyuLX1yxsORPZWONkJlX1lh6NX8o4Ut5aos2yHltA35LqE3eiYNFMt++kT96LA7hNhPhq7sR6EuGFbLWL2TWCF+No0ue0vat7a0X4UuZbOxWAvqNb3zjRDPkKB7ySn9hAZRrP2HihXn79iKxI7+1iS3PxiAA/FbH0vckGB+sHeDX5At5qjl7v1Qn9o4SDp7wnVemk8Z6E76qf9XOCSafLFjZuFQiY60/gCnyblo3Rhseo+2NObZ1YWBjRh8BpDpwbfFDxzhP+CpBRB3VCB/ql3eR2b4/2Dhe0gXmPdIBjAwL2s5ajZ/f//73J+SFn2uQD+SwtmPyo4Qv4zr4mNzw1pTEYY64rL+YrjaGHjy0jVs+unyOprKyIIdqTj+w6Xd1Dc2PEoPTEL5jyIVauey+Er7gUZtrMu7Dqxhm1K+62rgIJ6BtvPbhddoH8z7aGH9syy85M24iTiz9LT8s7pSc7iwzkrgU7vGPf3ybts+jpeFlw7y6Sykfy3RvLC7DyjQP72bHhFEXtMMu59ucN7LSUwPYPV5zzCGt7tHr18ttCMIXcLD6MMDozJ6MIoyuwhK2jyTjnZIzoVIamDW8KgikNy0R688H8YKPtEx4Wdn7Pmil+dsI1wziKvwRqn3Wzr5cSqpSd7V6YNVZFRG/dXjs+tCD2CEqSlv4fFn0t37gCGWxdLA44dW6l3biBQ8Dr7UfhE1posGWNlXCdCVL86T9EGKR9umdpke6pXbNOxy/omnWFHEfP+3D+ijxcwxFyXEcgpWbeq9NoGbNRynNrnu6jZp68OS/V4TY5uOdTRooV0lRhiyxMuOPTfgSZ+mjJXruMGFKdT5G+emj2oexgvQOHFUJZyVYnW4hRp6W2rAedWFb7C0O375Li0y+T5bGEiWO6QdMFr3T/gauNUJmXllD/6c/o4h6ApA86Vjnv3SvkxXySNv2so4+qzsd/ISaNPR8X+IhDMo/dcGikcoKnvO3mQhfMFAi1spYOlqnRvjqMRDgZ5Nk4sZRD7ooThq+vscgH/6bWv9/LYeVl7aoTrdyWpjaxHqevr1I7ChfbWLLM+1TXQRiFwFAH6QNGGbIIOQJEx6siHQssTA1+UKeas7e9ZNYDd9F+I4h09eb8NVdNeBRGv+w8NP6KO1OQnYann53j+JZux6jDY/R9sYc22pl5b7pgfhdTvsaY7N3EJI6vlBP3hlBRP1AaKM3qkO28j0Mqz9/Nr/1t5IuMIbMXdT4qboRZWX+xq5TvgPCIqPqZ4aFEr5gplvYafPIAO+UhCNO1d8NS+KfRQ8e2sZ9nkq/2Wlm5cQvnfF84oknToTxRODQ/HTJ+1Le7N4YcsHiqvme8KXOSjsCtS8Sxu/m0ud+TkifMqxr8avhFn225lRHV73B6672PnySpY2PTuyd/4D873//+4kg9n5prNQ8zDIvmUhoyX6MxWVQLJ2LgGeN76lBoDtReZ/2xpzRO3RnJaoJSz9Sp22ItuZ1V8KySKZjS8kYSuNcy+sNQ/hyjo91Fnw6B9v7GBSYsOjqC8/Z1j6NlaiCbEoEAqXm/JYV0oRc6forTVJUuBEHihITHKyk2LruLZo8mVfL30a4TydTC0zKz8S+C0OeeStqLKC1QxEP1nVYjkBOMcFRUpjnKBm+84LZWPWhgw7pYZnUVy4/gEBE6QSBeJis89EDBh8ULz1fhueHH374qqqnH2g7ol3TdxigP/vZzzbxKH6k6ZVZi1Sta0kPywkmpLRXVpyVeOI59VBznIVGGP6mnWgiNO1dfNoNpCMKAvnxRAKY1dw8+ajFWbrPsRFan7RBMGMAos+rVQx1VGqfaglHnYE3yiNHbPg2Di60uS6nynttZVtxtmvIO/oVf7YV254deeSRxSTHKD8RQ7BaWvgQsliUgyVnvCvG4OgVOCxLtb0zeWACgqwAAy+TSta3+tVu8kB7gwilLfn3eV4aSzgXTOucPNFfUCKwEtBnVt5SPxlD1kAqWhr43hpQlaw+wpf3KQuyiL7IVnydoPHcy3BrMNSB5sNfE6+ewbXZCF8tm5XdW0KDlco3w858bTcQyEzGIaRYxFNLN4t/PQlftdQgPyWLC8Yiy6v5NSV/3r69KOyoK9U1/MR2LAIA3QjZY7iVfF0kLMkXa1c13+IsTWLtnS7ClzDzyvT1Jnwpg5ehWPGhg3JWLDJQ64F+WHJ6nBPhkaH0EU+KlN61e/O24THa3lhjm5Wp5ttcrY/w9YQ8E3l2fFE36NRaN7RndAjvIC2treOjv2HpxzyN8z9Vx+a5JzFtDCQt78YgfIlzUeOn1/MVF65p3xrGE77M/dDb7D3GdXRVjDdof7o7ijCeJJlXDx7axn091X57HRjim7GcPx2rKYvf4UCcQ/MzK+FLGvPKBeLocp7wpay0dbgZ5id8s4Exwuocv7So1TUuQsLR7ywOi5++jAW1LrgQxhPrmn+O3rF4zO8b/9SQhHeYBzFnwJgFea9yBLninaVTGivn1V18Wsv0eywuYyzeTXejUif0DcZv5A9jAnNYb3xR+tg6Rlta57RN+uhnPvOZFRZ5iNPGKEvHG3otsp42DOELKByYrOBa5/E+lkqzkr2kYxVEWjVXIld8PvxvGpV3CB0GBx+29LtkSebj20i//VEVpTKX7pW2iiAs1VK49J7dg5DxJJDhNlZ9oMBYekN9yH7vyGeJQCrF6S0ZNS62jHgBVoqDtv/jH/9YX111zSBaetff61p0YeBWjGoE0KrE//cG/VvPtfZp6++aBTBRzZuPWv5q90uLE5pXu2bAKDkWvvrqUc82GpPwRUlRZczyqj4KEJYuNTdv+S1eVZA1fb1GfteOF2ACMmQsKVkDkQcUGN3Oo+naNYO91VVtLPFKnr2rvh61UlJItR/pe13XXtZwjI6GR16oG0r4otT35ccvbGk6XCNf1NrB8sUkECtotbDebISvn4SU6huMdBLJb3VYmXS1bZ5h4Wm4rifhq185Jz+lRXHKphNq8t8lY+bp24vCjjKpLF0rwpd0wEPbi9U7k2OIc21ztfZGPDVn8ZUmsfZOH+FLuHlk+jIQvpRBj9EwXLzftdvLE5P2bslimPRKbt42rPUwq3U5+RpjbCuVT+/ZXA2/y7HYDCFjeJZ8xkQbu0qEL/H3EarEi3wqzdUWQfiSx0WMnxzLgEWv4W94UnYW3yH8wdPue8KXfLKI4UlyC68+fcrL+3n14KFtnHwOcVj2qQW45l+vmaOWDDmG5mcewndeudCHgxK+EGolHU6xKB0HQhpd4yLPOctXSV+NU69Lu/94X5234OwiiHmPsVIXKjQ9veaIH+aW3lmY2lg5j+7i01q232NwGWPxbmCjxzhavdR8SOCaw2BrSHuk768n2Uv+NxThS4ZRImodjsGGlcB5yF7SsMojvprTFdlaI/H3S9YrxE9+WT0gPf8OvyH8ahYttfxthPs/+MEPiuUtYaD3SsoU5eWYD0jAGvHLgMwg48+G9FiNUR9eEdL81675sETJkV+IlNIASpuBZOsbqIiXLVHeEl7zAjlY2lZeyhPtsZQf4iNPkF1d/VC39/edw1tK3+6hKKlFp5aHfoyC3uXGykdXGv4ZW9CUwNA800b7+jqDBivNXl6gPGP5rf2qj/DV8xP7LHyx2kDxhgS1iZHmHSUPhajPzVt+ix/isNQGwYW8dH1AgzjAubbYxv0aWWzpo8DoecmGBX0fEo32b1YV5Knm2LVRag/IMSzwqW+Lu0TIjCFrUDRt3CuduT2U8IUg4MgY4rA8mw/5jTXUUAdJxIciT8kf2FCZTRwWJxY0G8kpWe2JVisHC2VWvg9XzvpWAs/eU59JUWkCSrtm0UUnmD4fWnfoWzWnfae0la32nr+v8rsm+1ROofT3uXn69iKwI/9qZeIXWHSRx9ePln0aAgD9iLpnQVePRKO/WnubZSy2d2tWq+R3COFLuFllun4zwJOjQ7BUohVMS063gtY+rMNCIHkpyWTuETdkWJdDRqDTGa74kCnTuHna8BC8yMuQtjfv2NZXZhuzagStvo/u4i2uwBZdBvnCGGP11hUfxgne0s/iQSYyXpWckZuk591ayNxFjZ8cVcK2Za9v6ThW25nKOyUdCjzRnZjX1OYR8+jBQ9u4r6eu3ywqsMPM2iRlsD/aFXNPlbsa19D8DOlzGq+/nkcu+Lj8bz2CAx6G9qfH6ikW7Aysua5x0d6BNGdBwc+B+I0hRo0jsPfNV7nPu6Wt/RbWfGQ8O/lK9UybZfdszRkGXWPlPLpLLd1luT8vlzEm7wYmHKuEzDa5b/WDT/1C3DMH6XPIQPu+hMZh18QzzS6dvvRmfb4VL+ZMbTiXJxgpD7wpnxGTTn/606dznetcKU/+03bbbbfhymIZzgNbygNnOvnkk1PeUpvOfe5zp/322y+d73znsyDhD0QgC5aUFfSUFYq01157pX322SdtvfXWA9/+b7BlrA/K9a1vfSvl7WJp7733Tuc5z3nSVlttNVW58qCW8sCfvvjFLybiy4ItHXDAAWn33XefKh4C58lL015pt+AF1vTD7bfffuq45nkBeZDJsabfbLvttk19X+ISl5i6zufJw7TvZuIz5cGkyfOuu+6a8iQjXfjCFx4cDaIb3DORn85xjnOk3XbbbfC78wYk7UwUNP3rzGc+c1PvZzjDGaaKdt7yW2KZeE3Z4iPlCV3ac889m3Y8TZ/IK/HN++B4lrOcJeXBP22zzTYWfa+flfiULRUT8Zz97GdPe+yxR+87pQCZLG/iIe+MZzvttFMp2Jrdo//Sn894xjOuSiMThClPcpv7mWRN2eqmDXPsscemrNA0vzPh214jZxifs+LftA9w6aoXMMQhp5EjNZcnESlP3JvHmSBKhx56aC3oFn8/T05SJvkSPnK+VLebGaR5+vZGxw7dJ5MQTfUil9CTSy4fJ5TyBLR5lMmXlC2jSsEWem9emb7QzBYSQ5aio6HHmzzfeeedCyHrt5DF1N/pTne6xBg7i1uWNrzeY5vHjrrJi1nprGc9a6M7TTs3ID7qhzgY39C/ZtGffb7m+b2I8RNdB+xwO+ywQ4NfLc+XvexlUyZUmsf0A7CuOdopWNLviZe579A5xHrqwaXy0PcpL/oxDr2HtjFLGyvFP8a9RcoF5pjZCCVlwqtpA4xFyLQxHHHTbpj/IV+ZE3fpmD7NvPsz3eIWt2hu5yNIUiblfZDqb9odfYE/xtZ99923OsZWI+l4MI/u0hHt0jwag8sYszC0IbgVHHzILPMvygS3Qjx5QaoZFw466KBO2TdmGfri2rCEb1/B4nkgEAgEAmMgAHEMOTmPy1/JTXlL3zxRxLuBwLohcIc73CG98pWvbNI/4YQTUrZIbvNSI3zbAAMuUJ4vcIELNIt0BM/nVibS9C5bQqYLXvCC7W3ITBbzwgUCgcAkAve6171Stghrbuatq23/1VCQVhAz+UiJ5nbevdEu7Gi4uA4EAoHlRWBR42feHdAsRhsSeRdUUa/NFqspH6HRBGMBnffCBQLLhACLFxB7GM3gmOOFcd0y1VDkZWwEgvAdG9GILxAIBDYVAqzOs2I/j8vbnVLe0jdPFPFuILBwBPKHEBMWgHmbWps2pCs7T8yNQfgSFyRvPnLGok35zN50qUtdqlHK89eOU/4IQsofqGuf52MN0nHHHdf+jotAIBD4PwSwMmERxVw+JiAdcsgh6cADD2x2Q7BD7klPelKzu4Eweat5Y4k11LLO4g0/EAgE1h+BRY2ft73tbRM7eXDIDBZm81b2xioXq1asJvNHkltA8vb9lI+saH/HRSCwXghggYmlMTos7ZKda7h8TFTKH5Zbr2xFuoHAQhAIwnchMEcigUAgsFERgHhie8asjq1cbJNd7y1/s+Y/3ttyEfDb47DsxcJX3ViELxYX+QzRBMnc5yCG8zlqadpjRPrijeeBwGZC4KijjkqPfOQje4vEYiT9Dmu8cIFAILDxEFjU+MkxTde+9rXb3ThdSAXZ24VOPFs0An6HGOnns3tTPjc3rHsXXRmR3sIRCMJ34ZBHgoFAIBAIBAKBwPIjoIRv/npyesQjHpF22WWXiVd9/loAAEAASURBVIzrOWh6hu9EoCl+QCBzTq9ttdNXsSTCGuOe97yn3o7rQCAQqCDA2faHH354e56mBuPc+PxR4PT4xz++OTtTn8V1IBAIbDwEFjF+Qi6zmPTsZz+7OcNYUYJA4zse+cOG6eCDD9ZHcR0IrCsCnvDNHxJuFjrjKId1rZZIfEEIBOG7IKAjmUAgEAgEAoFAYCMhAOnKFu+uj45wfiAfvMPx0dTax6GmLTfni3JGL+f/8XFKyKmx4p42LxE+ENjoCLCd9ZRTTmn6FB+n5PzCHXfccaMXK/IfCAQCBQQWNX7yoTU+kM2xS5yvzwfXdKG4kLW4FQisCwL0iZNOOqkZ9/iILUeShAsEthQEgvDdUmo6yhkIBAKBQCAQCAQCgUAgEAgEAoFAIBAIBAKBQCAQCAQCmx6BIHw3fRVHAQOBQCAQCAQCgUAgEAgEAoFAIBAIBAKBQCAQCAQCgUBgS0EgCN8tpaajnIFAIBAIBAKBQCAQCAQCgUAgEAgEAoFAIBAIBAKBQCCw6REIwnfTV3EUMBAIBAKBQCAQCAQCgUAgEAgEAoFAIBAIBAKBQCAQCAS2FASC8N1SajrKGQgEAoFAIBAIBAKBQCAQCAQCgUAgEAgEAoFAIBAIBAKbHoEgfDd9FUcBA4FAIBAIBAKBQCAQCAQCgUAgEAgEAoFAIBAIBAKBQGBLQSAI3y2lpqOcgUAgEAgEAoFAIBAIBAKBQCAQCAQCgUAgEAgEAoFAILDpEQjCd9NXcRQwEAgEAoFAIBAIBAKBQCAQCAQCgUAgEAgEAoFAIBAIBLYUBILw3VJqOsoZCAQCgUAgEAgEAoFAIBAIBAKBQCAQCAQCgUAgEAgEApsegSB8N30VRwEDgUAgEAgEAoFAIBAIBAKBQCAQCAQCgUAgEAgEAoFAYEtBoJPwPe2007YUHKKcgUAgEAgEAoFAIBAIBAKBQCAQCAQCgUAgEAgEAoFAIBAILDUCO+ywQ2/+gvDthSgCBAKBQCAQCAQCgUAgEAgEAoFAIBAIBAKBQCAQCAQCgUAgsP4IBOG7/nUQOQgEAoFAIBAIBAKBQCAQCAQCgUAgEAgEAoFAIBAIBAKBQGAUBILwHQXGiCQQCAQCgUAgEAgEAoFAIBAIBAKBQCAQCAQCgUAgEAgEAoH1RyAI3/Wvg8hBIBAIBAKBQCAQCAQCgUAgEAgEAoFAIBAIBAKBQCAQCAQCoyAQhO8oMEYkgUAgEAgEAoFAIBAIBAKBQCAQCAQCgUAgEAgEAoFAIBAIrD8CQfiufx1EDgKBQCAQCAQCgUAgEAgEAoFAIBAIBAKBQCAQCAQCgUAgEBgFgSB8R4ExIgkEAoFAIBAIBAKBQCAQCAQCgUAgEAgEAoFAIBAIBAKBQGD9EQjCd/3rIHIQCAQCgUAgEAgEAoFAIBAIBAKBQCAQCAQCgUAgEAgEAoHAKAgE4TsKjBFJIBAIBAKBQCAQCAQCgUAgEAgEAoFAIBAIBAKBQCAQCAQC649AEL7rXweRg0AgEAgEAoFAIBAIBAKBQCAQCAQCgUAgEAgEAoFAIBAIBEZBIAjfUWCMSAKBQCAQCAQCgUAgEAgEAoFAIBAIBAKBQCAQCAQCgUAgEFh/BILwXf86iBwEAoFAIBAIBAKBQCAQCAQCgUAgEAgEAoFAIBAIBAKBQCAwCgJB+I4CY0QSCAQCgUAgEAgEAoFAIBAIBAKBQCAQCAQCgUAgEAgEAoHA+iMQhO/610HkIBAIBAKBQCAQCAQCgUAgEAgEAoFAIBAIBAKBQCAQCAQCgVEQCMJ3FBgjkkAgEAgEAoFAIBAIBAKBQCAQCAQCgUAgEAgEAoFAIBAIBNYfgSB8B9bBaaedlrbZZpu07bbbDnyjHOyvf/1r2nrrrdMZznCGcoAp7hLXf/7zn7TjjjtO8VYEHYrA73//+7TLLrsMDV4Mt7Kykohn5513buq9GGjATeL53e9+18RzutOdbsAb5SD//ve/05///OcmnnKI5b/7r3/9qynDvHUzBhb0v1NPPbXpg/PUyzyoL6NMGauO5sHF3p21H3/mM59JX/rSl9JXv/rVJqqb3exm6XKXu5xFu1T+3//+92Ys2H777dctXz/+8Y/TU57ylPS3v/0tPfjBD07nP//51y0vkXA/Aj/96U/Ta1/72iYg7fryl798/0uFEJ/+9KfTRz/60ebJYYcdls597nMXQq3PrbHKOG/ukdHPe97zmmgucYlLpKtc5SrzRrmh31/mNrPRgP3Zz37WyF30kAc84AFp//33n6kIb3zjG9MPfvCD5t373//+zXxnpojW8aVoV+sIfkfS3/72t9Nb3/rWJsQNbnCD0A06sFr0o6c+9alNkuc4xznSLW95y0UnH+kJAtFPBIz/vZx1/rY6pvnvjDXX/uc//9nMk850pjPNn6kpYtiQhO8vf/nL9MxnPjMBPu5hD3tY2mOPPTqL/Y9//CM95znPSUxKcX2Tdwi2t7zlLenoo49OH/zgB9u4L3axi6VLXvKSjWJ1rnOdq73fdQFx8PKXv7wZ8CDbcOc5z3nSpS996XSnO91pqonW1772tfT0pz89fehDH0q//vWvm7jOd77zNUQEA+k1r3nN5l78mx6BP/zhD+n4449Pn/rUp9L73//+Bt+znvWs6YpXvGK6whWukG5729umIYQK5MsxxxyTXvnKV6aTTz65yQgdm/q+1KUule5xj3ukXXfddVAG3/nOd6ZnPOMZTZ7sBdrgPe95z3Tzm988DSEZv//97zdt+aSTTkof+9jHGrKUNvM///M/zcTzhje8oUXd6X/ve99LH/jAB9IXvvCFJj9//OMfm75w8YtfvPEPOeSQzvf1IXGAEf0MbB7/+Mfr41XXYPrSl760wfQb3/hG89wwfehDH5oue9nLrnqndGMMLOjDxx57bCMbjAwkLUiTgw8+ODFZGtJOSvkbem8ZZQry6LnPfW4j57773e82RaH/0Hdoa3e84x0XMokcox8/+tGPTqYIW50cddRR6X73u5/9nPD7xheeQ4JO6y584QunO9/5zsXXkFPve9/7mj79yU9+sgkDmXSlK10pXe9612tkjX+R8e9pT3uav937Gxlx5StfuTMcco0+jWMcQpaGGweBJz/5yQlCBtmHDoD+MK9DhiCvcI985CMbPWqWOBmfjjjiiObVd73rXU37myWetXhnrDLOm7ff/va3yfTFG93oRunVr371vFFu6PeXuc1sNGDRN17ykpc02UZGozPO4pg/oN/hmGTPa9wySx7mfSfa1bwIrs3773jHO5o5N7EzD2feG245EDCDMeYvzHvDrR8C0U9SGmP+Rg1iIPfud7+74Ss++9nPJsh05lPwMHAozJGGGF6ONdf+0Y9+1PCAr3vd6xKGCDg4DPil61//+unWt7512mqrrZr7a/VvwxG+THAh3ow4BRjIo/3226+KERV9hzvcoSXfCPj85z8/3f72ty++g9UeK+UQTDVHRT3rWc9qSLdaGO5TubUJu733oAc9KD3iEY/oVbAgxZ74xCfaa0X/Xve6V0OebURlrVigBd381a9+1QgAJfB80pe5zGWaSXcXWXvKKaeka1zjGm2H9nHwm5VULKsOOuig0uPmHhaStM83v/nN1TDk5+1vf3vq6sQIOgSb9hcf4d3vfvfGQqSLPGZ1vm/1l3YOSdbV9rCqReGDYDBHX/rFL35hP1f5LPBc/epXT0YirgqQb9znPvdJT3rSk0qP2ntjYMFEiInR5z//+TZefwGZDtl/4IEH+kej/F5GmfKe97wn3fjGN+4sH6QvC2h9i3OdkfQ8HKMfv+lNb0q3u93tJlKi/d3tbncrLqgNGV/YIQL5Pa1DEaC+vXvFK17RtHl/X3+zyMiikDom9LTfaR0Tacrf5cAM7HDUNcpWuPkRgKS/wAUu0EaErvDwhz+8/T3rxVhk6DKTLGOVcVaM7b0gfA2J//rL3GYmc7r8v5DLr3nNa5qMYlDw4Q9/eCLT6CwQCTgWHVgQLLkgfEuoxL0xEAgiawwUp4vjxBNPTJBMuOte97rV3apB+E6H61qG3tL7yRjzN+rn61//errpTW/a7lgp1Rlj5etf//q0++67lx4398aaa8MrYRDXxcNgJPOCF7ygMz/VjA580MUVWRRbZSu8FfvhfSayi3BsEz3yyCPbbXGaZhfhiyUFhJZ3NcIXQuq+971vQ0zYOxB0kHjkAYJNK61rIowSppNkiC0qnQYGQWLbp0inNrG3PGDh89jHPtZ+pgtd6EKN5Rw3KD8TG3MI9+OOO85+ht+DABNqOpvVB/VEfUPcgS2LDOa4h3X1Wc5yFrvV+qzaYDFlqzc8wDLuvOc9b4IIZvVU2w4Dco30pQ2+7GUva+OmTi960Ys2pKfWLUQUJEuJrEXx5z1z5B0LkDOf+cyJtJW0xOoI67zSChNWm1jRmoO4YpUMnLBgNotbnhM/g1Ypnp///OfN4sdHPvIRi6rxuwhf5MvVrna1icUaFm/23HPPhFWjxkX/eOADHzgRt/0YAwtWDCHPzWqbuOmHlBkymj6t7hOf+ESzkqj35r1eRpnisaV90H/wsUbU/sO9r3zlK03bmRcL//5Y/Zg29KIXvaiJHmKNBbnaSvDQ8QULdba6a//3+S/9Lo0LWOgyFppDccGK+k9/+lNjoWVyjOcsSt7lLnexoI3sog1P69hVUhpHNR7kAHKCxSospNkJE25+BJQcIzb0kW9+85tzHRFEPGORoZq/sPAF2dUuCN9JTJa5zUzmdPl/seD4kIc8pJmfIHfRzdQhK9j5gWNnI4uFJReEbwmVuDcGAls6kTUGhtPGwY46mysy19NFY40rCF9FY32vt+R+Mtb8jXk3vIg5+AXGPxY7GQuVK2M+Co9w9rOf3YK3/lhzbY4FZD6scz84A6yNSVt5GJszW59sMzPSxYYgfJlIYu2o1pdUogFYInxZ1T788MPTCSec0EKl79QIXywUUZrMsVXqVre6lf1MEMKQr2zvxREnqwne6pOKhKgyh/Ujk2bOATYHEaLb6bGIwjLKO8qvxCCTeLbEcBawOW+BydZ9ttqH60fgNre5TdtOsJrFqhZS1BwEH4SwtbeahZUOsGwZYHXItnESF5M+jmJAqOOufe1rNxbDzQ/5hyUqAsEc+VEBRnvnXcsPgknbEe+xhZwzNO3Yj3vf+96NBawSsRC8bMM2x1ZATZf7f/nLX9LZznY2C9LEQVwaD5N8VtPMcY4aRKg64qbNWp4RbJY3+lDNwvfZz352a80G0QGpCoFuDktarNrNIdD32msv+9n4Y2FxnetcpyWYyfN73/vehoS3xDhiBotK2xY5tpXjMsoUiEwGLlvkYFsKk3kdsJDbyFCz0EZ+0obGdmP1Y+rNBuHvfOc7RWVg1vFlSJmf8IQntOML1yz+mGOsUSLV933GJ2QM98395Cc/qVp3WJiSf9WrXrU9SqZrcar0btwbBwHW2hlLrO9YrMgeSP55XBC+86A33btB+E7iFYTvJB5r+SsI37VEN+IegsCWTGQNwWctwuh8NAjftUB4/Di35H4y1vztWte6VvtNiVvc4hYJDkHnoyyQwpeYYQy6iBpmUqtjzbU5noKFFuM9IJ45Klb5QvIBv2Nz6HmOV+trkUtP+HrCCStFJrN8HMbI3BLhC9lKpeEgZ174whc2Z3pAAuNKhC8HKe+7774tEYV5td/a27yc/2HJhOUjrrSdXBsvJAjpK0HbvJj/aQdnYsfHT7y1Jlvp7cD7rvPfOILCzpgsWYZZmuH/HwJ0SIhEHO2Ec2pVOFhI3eYNmQmpqQ5SSy0rSqQn4bFYpZ6tc3MOJ4SZOrbGm7Uox3hwRpt3kMC0Kxx94otf/OJE+9LFBIgb2o+StBafWhJzDcGkjnMjWWzB1YhunulCic8zbRohbA6yGgvKAw44oBGENcIXrCB3TVhiSYo1o3d6hh1WiCysqBsDCyxVNW1kCxbX3kH6YlVNveLe8IY3JIjiMdwyypQXv/jFzfE3lI9+xGpm6fxi7R+Q/UxCt9tuuzFgaeIYqx8TGe2SQZh84pfcLONLKR5/T4kh+gVnTusgzWKknS3MdelcYEhfFvuMJKQP0+emcexiMEvgOI93GuTGDfu5z32u3YLN7iBbTEIvQT+ZxwXhOw96072r/bpLh5su1o0bOgjfxdVdEL6LwzpSKiOg89w4w7eM0dh3g/AdG9G1j29L7Sdjzd84wuSCF7xgU1FdZ1LzPSP75hBkqz86c6y5Nru0zWCHfLHLu/SxeeZ55Ne4DuZu7GIe2+lcshb3uh7pgCXVOc95ziZvbOWG6CXTWiElwpcvTmOZicUm50ZiacmZhl2Er5ISTLb5+m2JpCUzv/nNbya+Ro05urL2nFNplcfEChKh5rDetW3x3pqTbeRqscjqhBGUPj620kIwYRXEkQNM1MN1IwBBRUfD1SxuecY5smpZykKEOlZl+JAgDutFrBhrjjRpazi+1q0dW9s7zznTpkRAc840RLERUp5ghlC14w3oM2oFS7zmWG0yC3a29NlX2+05K2Rve9vbmp/kee+997ZHEz5HKxix6Se0kNd2visTvbve9a4N+Wx9pEb4eqLW8jGRcP5B37PtSsQFma6LJmNggaW/Ee++fD4/HPtiZ6dC7rPFZAxneBHXssgUFjmsLbN9TI8Q8WWmPrHqRqbSHmpnPROGuLBmpS6xMGdR47DDDqu2v3n7sR49YedL05bYKmuO9o3VPG6W8cXi6fKV0C1ZQrMlF6UQ9/GPf7x6TrQeS1Fawe7KA+MH5zyalfPQ3SKMTfbBIOSaLoiwkGb9FwWL8RDljHpm7OMDkMgW0kUOa/8t5RVSGytX5A7H5bB4wELcoYce2pzn35WXUnzLek/rkfpmbLEjZegnQxS4WtlKhC/EJOea0afZdcExJFiU3+QmN6keazKUvCM9Fibp19Q9312gjXDWucnvWl65z24CZCuLach86hzdiTjwS1iUyujTwAKeRRFz9LHSFj97XvORQehvKOsYD6Dg0w/YMTAN4QtBRzyM7dQB8g/dg/F5//33ryXf3l/LvsGCJpMYdE36MH0ZPZfdTBzVA5bop9QpY2BJdyGja9FmVMaw4FU7q5b0Vd4zRtvHC3mGoxy0M/oa8ok5COWlL8xyNj9H/zBn2GmnnZqPl/43lf/7j8x93vOe1+DKOI/e5R07lTBUwTGfMZ2KvmBnp1MOyoNjVwZzI3RXM05BRppuQhjTabj2RzpwhB0YsLhN3Vr5mVOxGDqPo/2weIUsAF+OI7rIRS7S/NGXVSeeJp1Su6KukRv4YMgHL9liC1YlI4hSG0duIX/5Q/fGgGe33XabyBrymA+Vkg7t54xnPGOTFumwc87PJXWMIj+lvs1uP9LEYZVG3r3DoMLGanQkmx9iGEWe2K3I7jpkELoof8go4qJOaQ8l2enT6foNJuh3LBQzHhMfbQ1deZ999pkwbOoifOkHlIcPpRPPqaee2vQ9ZCljkO42rOUHQxHmwdQZ4wz9ibkS5WSOjuGIjaF8D6h0PF8tbr1vRzwy96IP4pATtF/0kJLhA2FUTiE/KRv5sb6G7mNjhxqZ8G6fY4y0hWAbx3kHozQ7qxTdVeM1GW0EGUfvWTuBA8EqEblHv6+VyfJF/YEv7YBy0s/RIUiTucHpT396CzqTj56IPAIv/tDRacO0NcbaLr1xVpmDjklbwsFBcbwbdQ5pyII8uKLL0D91R2+pgGP1k1LcG/nevPM3K7vO9f3ufAuDTz8xvq7EP4w118Yoz8hkLI27vufFXBMdAIfer0e4NjdH+DdIzudOXHWZ+FpZy788cK7kClk59thjJ9LJAwnnCjd/WamZeEZ+stKzks9fXMkCon2WB5r2naw4tfct/7li2ud5cFn13MKZnwfMNnwmztrwWUi298l7VojbZ/au+nlbfRs+W2xNhM0DV/ssN4KJZxpHXM/WDrPStZKV4ZXcGVfyQFXFN0+82nqg3j3eecBpn9Nm/fOhv7UNZmHRGU8mpto0s6I7ETYr+2258gRy4pnmhXZr/SgLo1Xh6D/2p+/56yxo23ge85jHTMSTleCVTNit5EFy4j59g7TxfXz8pr1b3rIlaTGMvZeVlTasT2cMLDQvtBdLt+T/8Ic/bPNC/pEHpXDT3FtGmZKV6bacWSmcu4zgkQfpNk6re/Xz2bXFdObtx5nE6EyXPGRSo017lvGlr77zBKfNA30iT9ba9OzdTJCuMI4hr3Rss+fmM44Ybq961atWxWPhSj791d7N5Ovgd/MEo33P95G82No+A+tMZre/LS3zwbarz/CMMBbe+0ccccQKONl98CqVc9nv5cW/RjZSDhtzsnV3W65p69WXl/HOMGIsycfjtOnZffMzwbOSiZkijo973OPaePLxPqvCMB7mXUptGItT/fzBzVXvaX6R6eRB39Fr8MnkyKo4fBk1Tq6RG6rH5YnxSiYZVsXj3/O/VYfTfHFNH8rEVpt3dFf/Pr/z4u6K6rU+Hn5nUm4lT8iL7xPHWvcN2oDlK1uZr+QFnmq9IMMyiVHM61q0mUwEtHlDPpQwtnt54t6GzYvcE2HpV1bGkp8XXVYyeTbxjsVb8zPp38aZFzFXvZsXJtrnpFmKX9tyJmrbOPJiRftuPu6tva86S6kc3NP8ZounNp5MCDY6W+k96pX86rvTXGdycgV9oRQ394g/H283U/zarvLC6Ar9uZZO3vm2goz1efdtPO8YWxWHykLkRV6oXRVG080E3komjSbSyguW7Tv5OwETzyxPmURqw5CG3Vdf6y0Tj22YTPw27+LnBbyqbOd5JrXa9zTuIdfoKZlAbPOp5eb6YQ972KDxOC8qrOg8ysfDb8b2rvk08ob2U3qX+3lhZIX+a89LY8aQMjNPq6VD3DxDjyrF5XUh+rLlx/t5x2KnnufjR7b4OPzvTCRN5MueM4fKi/vV9+mzfWNPV7+mnTHe+jwP/Y18tzZteVY/L6qs5CPYivHPI3N0rMgE70omvqsYdc1Tx+onQ/HaSOHmnb9ZWfPCYctXdOlxX/7yl9s6ZByw9/HHnGvrPIW2o+n4a52zjDWf9mlUiVx5gMVo1fkIx/7NpBblw8erinGJ8C2RXH2ErypOeYV9VZo+DypslIhg0LVnTFL8e/63TjgQWvo8m4O3ceUV2+ZZtvxoCPC8xX4lr1Cu5OMlVnhWUhI1rriejRQGN5RHq1OUMMVSiS+ITXuWVzlXUMCzResKA3c+LmGFgceel3zq1NJ51KMe1RmWCbqFzVZJnWFLaXGPRRGLQycLtfCl+0xUVeGj3BqO/pCtWybu8dwUJnwNb9c6sGbrgWIYC5u3L7XlKC3mWLguvwsL7Yd5Bb0zLyhFhil+3sbRGb4rT/ZsGWWKykvaN3nNOxJWUIbzsR4rEAIos5B/kOBWlpoPeaC4ca2y0Z5BGNbi6Ltf68ekTd/lz9LBt3v4+ViUNt1Zxpe+vKnin63y27T63is9174zzeQcJUmVlGxdNDgfQwlfFCzFuFTHkGQob75s6AM6wbV4fL0xjtqzjUr4qgLIRBcsmNBYucDB4zPNbyWQtL0Qf2lixWS8tAihJIsnfJmc+0k88h6F1hO4kM6l/NPXfFgbOwwL8z1RpGX08YOltj2/2F7KS+keiy+WvvkaL/eU8CsRvhBP2u8sHt+uuQ+eJV1vEX1DyTDGfK0H6kh/k1faUUn2r1WbgVgz7CC5SvWlCynkV7HMu7Ta9w1rSHbfH4YYhGjajIeWLzUOsTDIe3uOny1SV+Vd49DnOg6rDofco/34OuGe/Vn6+CpXlbjhfd+eqWslPTWermuVX1Ze4qLt+3xqGbvi1GfarrTPkZYvA/fQG/V9rrWNl/of72Xrxfa90mJPKS3Kp6Qv7dAwKE3w8zbnCUyQ0T6vGgf9UZ9bm/X1B972zNLnt/YDjafrGn1B5+IWny+/1kVpPIbs9fVPXD4e7jGfKuUJnoCyWR7widOXVce6WQhfjM80Da5J16fN/fydlFV5VcLX9zOfV+LIVn+r4iiVn3vUIeODb7fEa33eL8ZbWQijdcBvXyZIYdqcT5+2qvKDOInLv0/eMJ7y7/f99kQ0ecsWw6vGTNLz+ZtX5ijhq/VFWuTD8DO/pG+P1U/6cNrsz2vzt2nKTV3kHc9tvfkFkDHn2qr7quwv5Vf5HNqSb8eld6a9VyVy5cG6Er61AukgUyJ8S+/1Eb55G0PbCOjMpTjsnl9JY9C3Z/jW+fFZTdBn/lrDIpT1ua7wsnoJmaVCWd/lPqvG+n5cz07yGnZMpLTjGvFuz9U6g/pCYcxbdSbagNYT5GytM2Nla2H7iK287akN6xcKLG9dviq2pIkVUld4/4zJf96WNzHoTjNptnaM7+Pmtyp7fXlTCwtdfCnFW7rXh4Va1mGtVorD7qnVNLh6CyILN61v7QJ/GWQKk0vLExNliG2vaNpzfKw6a2VmIcTaA2Gx+GMhhfAoiN7yl7Zfi6t2v68f23vW7vrGAAtvft/4YuFKPpMVw4p0SwskpfdK92hvFhcECOUuhSvdU5IRhboUpnZvKOFreaM92MSZOuZ9bQNYBvm0WFiw9wkL2cGCE+FoL1hY2HPzSxNMH+8y/s7n8LdlUWVRyWwmM7PmXclQw4pFh7wluYmTxRsWQnRSg96FwqxpKsniCV8sqixu2jVWOmahha+TX577uLEOVpmSj6lq46BdUwbVBSGONG9aRiV86W/Wz8lf3+KqxqnXyDwrHz5pfOtb32ryQB8uWYKRX42Da11sJB50DLMExeJE+zTPS+PsIvqGHyfJCzuRbCGbOmHBV8lryB4IAS3zWrUZ3TnAArumadcs3JFv/jx5pISxH7fVgph3S4t+lob39d1S3flFsNJuPtUpdXyoEb6WB+rGyttlGOAJG+o1ny3YYoieq32ROrQ0hvq6qIkcU/lFmdT6cojRjU9X25WVmTGBSTxhkSf5WyctHoRhwUbjKbVx4oWURD6Z/OIdSGlLB5+FOev/6Pjox9qmIBt1IZMx1t731pP0I3tmvt89iGWuPfN6r8ptwuQtw035rawYUSBz7X10OHs21Gc3n72PD8GJvOJ9DJNUR7RwfjwGT92hRxtDrtocCes/1e+Jxy+aMFapzOEa2W+6D4s/arRheZmW8GUXluoozPfoF7QL/rjW8Yiw3mBNxzzyQT3BPVi7Yl6lBizEYeUYWi+Eo69bOU0+l963MOZj0W46FeFVJyQMuPp4dN7KXJny0M7BBH5GCX/GcO0DPq7SbyXokI2KB3qfzs/9zqd5ZY4SvpQfOayyH3mhBk/eIIzyjNFPSrhsSfeoc61nz8P0YcH77BRjXLO2TrssLXTZc/x55toq39kF3ZVHdnlousiarvCzPBNet3q5xRC+VLwK864GxeCqleNJIISaPTfrt1IFMehaOHwGYA2nkzufpr6n17OQIZpmXE+SxCjohi8CgkFMMdJJH3XtFS17V30GBR20LD7uW7g+8p5Bx8IiCC2OIT7KlA7COhnuep/yMVH2ZaTfoJR5bLrisr6GXwpnzymjKX+lcNzT1TG28dXCle4PwSKfK9ZiTb6UgNE4iUv7PnnvE/T6fte1xrsMMkXlERMda4tdfs1yFYtOe6/WFnXyMK2FFbj29WPD3oggL4vtec2fh/BVKyEU7loaffdRPnUS5y0eu95HCdfJKUp7V3j/bBrCt0R6EJ+fXGi/59raCL5aXGte9HgZwvkJpoZd1ms9FsaTmPn8yBaHGqk1pFxM3BRPxp6S/MbKW8NBfGj8SrJ4whcdigkTf7X2xC4li9/LVY0bIsCTIuQDosj6LPFwhI/lT8tocoVFBiWu5sFQFXp2NFi66uvWbfLnCV/yb+XH9xNWiwssNZxaWy+qb3gyDALLk7nklwVaHb/Rkawc+FqvY7YZXTjz/cbS1wm87kaiXRu+6EYWXn0WQCCJiWMa2QqZY3h4S0zIFUvXwtA+NV0wtjAQDvpsLQhf0ijpp9qWS8SG5qt0jZ4AdmDoyUvCk6b15WnHX97XdgVeNRJTLbl9Or6N1/oj6SlJXjoSjTAQBlav5En7AtaWVq9+PLPdfvquX4RAdtn7/lgG1dH9wgb54k/HSurF7g/xadOWNn7NQMWTtX489sS2HwMsL+i8lp43cIFYt2fUZ+noAMY2JXsIPy3hizWgpcOcSxdeLJ/wCEo+eyJeCV/qtlRe5LnWH23S4h/qz0L4Ulel+FW/931K9YMa9n7htm97u88D8RrukPv+OX0MYpc27NvXvDKHOC1t6lXHXcsHdWhhqDe7jz9WP9E4t8TrofM3xQaZxHhiY4rVET6yoKRP8v5Yc20MlyxNrMN1IUXzid6i/Z13+ohmfX/odZXllQdbDOELaJ5l9wMsndev1lA5XvnRs1h5/oAHPGCVAuVXhwnHAKCVpxNwnvPHJAMlmcGG1VTS0m0qhKmdnaZxx/UksVvCg+37hjt+aaDyJIWFZysOkwjaDO/pljzC+EUC0ldLj74Or5MAr7SWymL3UHz0TEUmFyXFxcKrr4S0lRMfawxw0LB916bI+jbPe5BPFv+QsjH5svAQCH1p2/NpsPDbefzOAjBUAsDyo9ssLd1Z/GWTKWqNY2WlLUH8QVihtEK4QITYc3xPgPszk0qkk+Flg6JXqux5zR/Sj+1dUw6GtDt7B39WwlcXbkhzaF/UtLnGIlDHCxQaH6brtxJKtOOusKVnQwlf8C2RCRYnZL61Fz2PG8LQ7pdkp72Pr3LUTwA03LJe6+KGXyTRLWeeGJqmPEqGgmvXVkusrQ17Pcua9JRk8eTdkPwo+eL1LZ04Kznn46WdoFzzp3JZywjhi8UimFlZ/OTVx9v3m/5KXIxhJUsRe19lpSd81Qq678xstfqmv1n8i+obngzrIiKUzPLfGFjLNqOTNX+sA2OS6R3IIR1rWAiwdkG92u4Dw3heX8km7Ws6rutOFrMUJV1dcPZYrgXh6/uhll0x0vtjXauOOa2Vk7YrrEa78qRzJqxRLay2cdoK+rs9U1+PciMcbUuf6zV1ZrghC+wZ7dPuczSf3cc3fRMDBrv2pLK1ddL3Y6rpSsSPhbnGbdeU29Lvw8veMV8XSMiH3fc++Kllnh+P1QLTj3Ual/Zd8qxtQ3fgef1S40BGW3nxpyV8tRxdx10x/7Z00Mk0D0r4dulZatU6y7g6C+GrFv2aZy2Pn1/Rbq2sXcdPQL5ZOAx0NP6+ax2zIff7wk/7vEvmKOHbZYyhureS0mP1k2nLtJnCTzN/03KrHm1tDx9ZxzOtJ31Px2TCz8rfIaM0XRaSbQeEpcd4Y3NODctuAQszli+8bvVyiyJ8IdFUqaYCUP5Q1hAKpixyX63SSmdBHXXUUROVzbvEDQGigzGDuU0cPJGhQoQ0EeJ+YKcxsFKh2woIN1Yj2VLj8Vvz/UTXcOG+dlSua5NTtjxpWL/VRtsU5xZZGiVfFc5pJv46QNMmGZBK8ZfuMRFAYeWPNqYTcspF/murWD4+60v4/hm/FSedmJXCKuneZf3q350GC78NmPyhAN7lLneZIJgMB8v/tMqNz6P+XiaZogopZUVWlRRG6k6tM5B1KsOUlEH+sdBR+9OB0bZpKj6l66H92N61NMin3Rviz0r46na4LoWyKw8oLrobhDFlGuKY+lClujZB7MrDUMK3b6uuTt7UaojjjKxPedLD50u3yPsJpg+7jL9VrpaslXRhqWvi2VU27Xe0l66wSkqCrYZVkqVvYspCHv0WJReSlsmbblXXXVW66Ee915RzzYu/1jKio2kb7yIGfDyl30qW1CxC7T0d9z3hq1Zj3hrM3je/FnZRfcOTYZavkq8kNDqvhlmrNkMaunDlrbf1OIeSNZvJftobeglWRVhOdpF5Wq6ua/0YnJ5Pa4sB6O/IbJNx+gEgPapCFzRIby0I364jtHRO0lXeIc/AlX6EDkp70YV7cPDb4fvi1HZV+xCaxaFEI2dD2n1t476vWhh8tUz1Fqcari+stTkIaHtPZQtthSNnwAOdxHRhxmxrK6X5ns4xa+2XuCwOdFlLf4iv856+I3HQkS0dPx6rlbRaP5fyUAtL+S3+PmMnJfqnIXz9eFTDlHxr3ZAv1XeV8PUfuNYyq3UgfVyfDblWTPw8U9833Dz3oGF0rukXJXX8Rl+r6e4q/zheQ+Pvu9b2Q34ZT5DlNQvNrvimlTlK+Nbm9aRniy/kT+cmY/WTrjJt5mfTzt8UC2SB8RW0Gd3VTD2hD/rx1N4fY65NXH4XP+mSD3ZdqJ6PvqH502NDLE/z+lWWVx5sUYQvgCIQlHijgvwf5K8qWrUtqn47i4+HQZaJj933Ey8dnAjTNcjotgLC6iAzb0PZ0t5XZQ4suwgG/7EplM4uvNS61h8YrlYgXVYWxK/nwqmy2JU2hJK1NXwmxF3hhzyDcNCV76GEax/ha4sg5FNX80t50nJ5QqIUnnv6zlAsIF9MQVcc9Zr6VyLZnzdWy8/Q+8siU2zLoZW9qy1h5aH1qYrTG97whok2afH1+X3kEnhO048Nf6vfRRC+nJdq5SS9aUhayy9yXi0UUGJKH0qy8CVfj0RhUbIUpu/eUMKXnQ5dcenOFz2eRRcN+uoe2Wm4+glmV9rL8IzdIJZ3fPDwfzpOoNDOkm9PhnbFoZZofsKnJEupXiBqIfF1QqTl02slfJX0gGTqyl/tmZZR0+Farcdr73fd1w+I9NUB1hqWvieRjPDjuVrtltJW4l3H2UX1DSXD/NECPr9sfbUyezJprdoMeUCGmm7BhErzpWdj2lnV+hzS0d61vJtP+4W0mEVGk4a2Z9VRbLwxAtr6ibYTm4+USBmdh5R2E81yhm/XPIM5imGi2A29hsRFP1IDFYvP+/MQvn0L7WpNrd8X0DbuFyq0jDre9fV/trRb2RifNR7t/7ZdXBeIsEpVC28jKXUrvS6MWtxG+JbajIXBt/bu+6iGKV3romqf3FJLOz8e6wJCn96iJD0fT7N86UJeV9slvMpKw9Li6fL1mKUh45HOiXS3gBK+pXqzPChmiyB8uyy89dgZP/5rOa2N9/ldaVn51YdwVnJM40ceYRmuGOu7XM8jc5TwRTb4uO236uBK+I7VTyydLcmfZf7Whw9tQXcR0n5rMmPeubblxXNE2n65RgazgKFjou4Csnjm9YXXrV5ucYQvoNIAWGGHSLMBkYGTL/aa8FXCiNW4WmVQkUyijfAgPlYqeR+LYiXuUPY0HlP0rIHoM3/Naq2lQXjdEubDxu/6cQ5MzqzOwbFv9VoVL8LrGYIlnHV7gt+ipR8W6NreRLxKlHVtDbI8oFxYO8KHRLBn8/oMhIoZk5u+OC08fimsKhJ9VmwQQ1Y2yIVSfHpvHixQ/BgIVFElr5AwpkDqLgGUdU17jOtlkCm0T8McH1nWVTYsOy28nounZKM9H+L3LYhM248t7zYBXwThy4TSytq1qGR58z4yX0kMxqhp5T6EsZWZvPRZyPg82G+dAPsvQeskB/ln75R8lad6dANb8g0rJQZLcfAhHgvrJ5il8Mt0T88qszJ0+cjPmsLaVS4lQ/us4ZjAWB78onQXece4oASRxVHztV5pxxZu2gmilVvLaHGZT19hImlhp/XVkpRzArve1y+FK5HHO9p/+87t1w+16tbaRfUNJcP6LPXVetDL0rVqM1YHumvCjnVgfDKdo6s9EZ4PA1lYay/mc58JnKU1jW99wRbodSHFdByTXaSDbObP8lI6i3UjEb5Y8FpZDM8ufx7Cl225XXWjuKnBjrbxLsJX9Za+/k8dWjl9X9Dtw9aubEHPyDWsSw030291J0wJJ+QbaeJ34WDxosN2hfPPdJzqk1tKYPvx2PJJXvt0SCVg+Pie5Yn+bPiWsLBw+MhfC2v6uj6vXevRW307OohDj5XSxSXVhTYD4av1Z7j2+UMIc18PHFnGnEPnXT4dxhX/3rwyZ17Cd6x+4su12X/POn8bggv6so3FtKHa7m3immeurXnBkIPFJp1roQdwXAR6qOpL5Inf+v4Y11WWVx5skYSvB7c0EOk2A8y2/Tul3wz8/r4Ohp5cVGExZECmAZkQnGYw83naUn8zMCtpropgDRO2lRjm+F0rjcShqz1+8qdfmWfLfC1N7uuCQ+mL9vquWgaRx+OPP74zbn136LWSnAyyfe+ZoolfCmtKL/ntEsi8q2n3EdljYoFQLvVpFeqzWgSVMCndK6W/CJnit9qU8qb31CJYlX4GVOs/LHhBjgz568J1ln5sebW68xMze17zKZOVgy3WtXB2X3dkkFbXGaD2jvf1zHniMHLDh+v6rTKHBc2usF3PhhK+fdv5dOufWgMjswzfPrmsRLq2ta78L8Mz+rKOP1bePh+ZNm3+lQw1YqEWh34NHoJSw3WRdzrpxQqLRQ3GBqwOmZhj0aYfoVPCV89bZIyYRQHWMoIhbUsXEslfSX5q+WrXarVb2lKt72H5bHXox3zdDdJ1BiLx6UeWlKRfVN9QMqxPH1XC3lsDr1WbMcyVGLdjHdALrA70uAR7x/vo/LR7rD91q6XFMYuFuI6BjF/UN/HRvu2sWD3zEQsnNQhhkd/nU4nLZbbwxdLfsMPH6AXCiz7KNnB2cRFGd8D1kXceC21XfQYTumVXrYG1jXcRvtqe+vo/5bOy+wUztZ5k4YZ2YLqxjl2mD4Mb5Tadt9YPjYhbK8LXFiYoV5/c0gUpLRPlUKu2rqMHCKttQwl9SBPDF33Stwv9bbgQfpo5Mv3V0qjNWTQdHcf16IHNRvhq/WHsNER379uxqTiWrtmGj96glppWN9oWx5A58xK+Y/WTEg6b9d4887ehmKCLWptBPg15r6Qrds21a3GygGfjvYVRo4AhC0r23jS+8LrVyy2K8IX5569E8CqwMPI2KNNo/GSd9y0ufc9fM4lRZdIfSK7KXG1gtzi9cNNtBRYm/LplL0StkT3Uad82LcVSJ5ElpVzD6kf/PPmhyj4T5K5Jrlp/d5GcnItlgg2/zzLS8so2NCankEA2abJnJV+/tj4kDes/NeVJiSjdvurTpu9ZXJSv6wzhWbFAOFt/Lgl9zROEhuHdd7abvtd3vWwyRa3+KG+ftZySP8g1K68SJ34yZGGm8efpx6RjMgCFfZp0pyV8dfIyy8ejdMJKXktfe+7LP21aJ0CzkBiWxlDCl3Zg75R8XeTUyRuTf+tXyMbalifqXydbfoJZSnNZ7ukxAZSBvlH7U2snthNOWwYlQ/vauhKNTGA0LSVZ9EgHJTKot9L53sSj9a2EL89Urs9yppmW0WQL55NqvJAFWp6h18hjbY9d7+nirCd8dUJ4j3vcozMvupNFdwQsqm8oGUbZkR+1cutC3kMe8pCJcGvZZsgP47XJcTvWQa1+sRar5bt2H9moVkF95y2X4tEtqugJRtqptTbvWd6ZiOrE1H/whbA6R1hmwlcNHdCXa7qtYjwP4esx9fWh4y8y1p5rG+8ifFVvYTyy90u+7sajzn0Y042wVFWCXy1DdUcBBKLJsNrip43ra0X4alvu0s8pq7VzZIYfj5GHJkf75g06z9KdSIpN184DXXgjzWkIX8phmPNuF2mJLmxlwtf63myErx5lMPbxdYpb7Rp9T+eeOucaQ+bMS/iO1U9q5d9s9+eZv8HZwFewOFYbXwwvdghYH/Xya6y5NlyB8Qae4LV8mK+LYuj2dn9Mv8ryyoMthvDVFTwaQm2CQgWo8tg1gBOPrkT6ylNrJgYTr0CTJ528slLs47DfauXRN4Gzd8L/LwEMuanKBFvn+gSGYqdKOcJGn+k1AkAV2pKliSn7tJ2apawSw4SrkZwoj6qk6FZ6zVfpmlUobXu6Su3DI8w07JBjDCxf+D4+fqviTRmpo1I4Fdw62Puw82ChFkOsaNeENwMFyj/55Y+Jvs/HrL9tUkC8yyJTVJEvtWUrq55fSP5pv/bMtzN9ZmHMh9REgeIP2Wj3zZ+3HxOP9b9pZeg0hK+e00o6fsHQylPzlYCj/+iEtfZO6b5ZmFEns5CGGudQwpe0asQy9Wf4E85P+G0SyzOOsaHtaB6wGPVnvfkJpoZftmuz4qJ8WA505Q9dwWQo4add4FUylPdrMgWZpjuH6Huarxp5pzKzq23pFk1P+KqlNtvsNV29hnyjH/Gnu1e0jGrFodZ5lH2acVHT1bHcL9ZbOOSU6hae8FXrP/JfWzjjvrZ/bw2nz9aqb/gxuXY8C7qTEgG+XteyzRju9qEr6heLMOsrNWtMFhSQS/zZWaoWl/mqY3e1aQvvffqS5UMXOvQ8Ut6xs0ppX0xgKUPtGIppCF87SsLni9/6QSw/D9Hw2ub1ft+1LlCViGne93qCl/99aWi7Aufa8Ubct3oAW+rF4tY23kX4ep3Xy0WLj3BqnKEWiBZGj8cyK3BPIiuJqFjW5ggmD/AtnZJvOCCjSs9r91h8ADv+kFu1Y9xUvhHWj8eqy7DDq6ZbqywnPR37WcSzvOCXjlhEd7SyWthpCV9dJKCt1bDRD655ebMehK8dFVLKr2FRky+8o4u3fjeQHlHY1V8YB013n8Y4Ab3G5HKNZEdvtHJQx1ZO7Sezypx5Cd+x+omVaTP7887fVH/uO2ZGjxj08mKsuba2P92R5etQj3aiHcNV+DBj/BZet3q5xRC+AMqkwgQHCl1J8UFoWZha5TB5sjBMYEvkMYKMgcvC1cghJbQYvEtf7eb8Lx3M+s6UGqPxbJY4GIh0QsugVVM6amWmnShRUbL+QEFRgUS9l0hU3eJKnN6qw0/AvfWM5RFFS9tEFyFn73ifoyKsfbJ9ppRfSGxWyCwcbbrUb3zcljcdoH0YVbCYKHsS3ivuahGocY2BhU50/ABhaemEAxxKpKSFndZfRpnilXn92rWVj4mKEh6l7Sq0YWs/tPnS5EG/+k6b8ZPyMfoxebZ+TP1ZGYb40xC+atXiLSb70lJiFcxmVQ7YEaLjTx9pzHjFCjoTA0/gkGfNV9cZvuQZjFHutKzIXIgqawd+wktYPd+XcIRhlwTYswir5bF4/ART01ymayyWLc/4tUU8zbPKXY+5hitd6wSa9OhTalFm7+i58oTxltUq89TCVwkK6snLQupbt+KSB9+uUNoVE9qY5ct8v2tDrTe1jEr48q5ayJOGWoxZ3H2+P1IF6xT/jlofkY4nfAmvYwuTDb+LBN1Bv4ZuVqua1iL6hpJhVi929qzmRQkswvGePl/LNmPp6CRKtx3XdAQ+oGtlQg6VdEDN9zQ7wCxP+Cr7LT2/WKOW/haGtDUeu+4jfNX6m7h8/7V41prw1XyWrG/ptyzYW3nx5yF8eZ9+5XVRfmt7sCMSDAdt410EFuGVtGfsKfV/nfSTpxJppdbCVv7SzgOdp1g4Xz4rx1oTvqSjcou683KLMUwX9MizH491nOB5ae4KZjq2l7BR/Yt4wArsmVczl2fsMszMn5bw9ceY6XhnuHO8o8WPrwuQhFkU4YvRkuWDY4Msf963MLMSvujqiq1+ANHSYs6qcznGXnvW5yvfQpumvfh3dJzX84HHkDnzEr7kdYx+4stc+o0coa0zfjFfKoVZ1ntjzN90IZ85J/PTUnmVU6P9Y4Cj4caaa/sFzNKiIDLTPtRKXkoGpJq3ea6rLK882IrrnJGiO+2004r31/rmbW5zm3TCCSc0yeTV+7Tffvv1JpkFbTr88MObcPmMxXT7299+1TtZGUr77LNPez83mpSV+nT+858/ZaBTtlpJmexpn2cCL2Uirf1tF0B2hStcIZ188snNrSwQU97Knw488MC0zTbbpLzClbIClzJp0TzPE6KUO2s6wxnOYFG0/r///e+USZI2riz0Uj5HL+UBNoF/Pmcs5S/OpqygNu/kga7BZqeddmrjiIsyAv/85z/TzW9+8/Se97ynDZCJg6aO2huFC/A/4IADJp5kJT3l1dz2Xlbs03Wuc52UB6BEG81CpGk/FiBbcKUb3/jG9rP1//GPf6RLXvKSKSu7zb1MjqT8gYamjefBLmUyOWXrnuYZ7SpP0tNZznKW9n0uMjGbrnSlK6WsRLf3MznQXtcu8kCctttuu/ZxVmDTRS5ykfY3ecnKelP2HXbYIWVrzJSVoKbtWqA8aU950LGfVX+PPfZo2ixloN+VXF7caPqMPcuT3pSVl7TLLrukL33pSykr3G0foo9kawcL2vpjYZGVu3TTm960jZcy5lXCBCak8epXvzrlszTb5/TJW93qVu3veS+WVaZksjZlq5W2eHkinDJpkXbeeeeUyYCUrefatkxd50Ev7b///m14LuiHhx12WMrKcnM/K/dN38hKaPMskzEpD9LtO8hS5LK5Mfsx/ToP1Ik84A91Q8YX4spERLr0pS/dREsaedGiKPdL6eYz0lK2sJh41NevGS/yBGniHX7QPrMlWXMfWUX77XJZkU+ZFGmD5I8Xpt122639nZWtRpZyI5OPzRhlDzNRl+50pzvZz8an7HkRKWVluMEZOQI25hgPvYzlmZezFt584s3WfSlvf29u5YngqrQt7DL5+ZzyxNiDy5OjifZey+dJJ52UMmHRPM4kRsoTn1rQVffB9+CDD564T/+kLdDv0E2QeXlBoQ1DHV/lKldpf3ORd7ekPElv7hGeccccMtnGKsZBxkd0IMY2wqJPqSuNHflbCSlv9W2D5clMuta1rpW23nrrRvchHtN9aOfoVea0jJnwTXkB0x5hyNCMZaZH0k/A04+l7QuFi7/97W+JMcnKSNs79NBDE3WRFzSatmrP7PVSX0NPvPzlL29BGp2BctL+MwGV3va2tzW+Bcg7aJp+Y7/NX+u+gf5BPaqjzSCTqGvwYAzO1s5tkNI4uNZtxhK/2tWuNtF+qR/aHjq4d5mcSnvvvXd7G/yvd73rpUyuN32BOqAs5pDFBx10kP0c7CNnVWajr/t+8Pe//z3tuuuuE3HSDy960YtO3OMH7d/0kmzFlugv6v7zn/8k6sgccw3kC77qn9mSuK23TCKmbbfd1l6Z8LVPMyca6vLENp397GdvgyO3wPdc5zpXMx+ij5vOa4H4veeee9rPXl/blQVGP6Oc6Bz0JcYZS4f2AK6aL23jmfBN2YLRolrl54WYpg2Ynk184Ej/zwRGo88wPzOXF0JS/jaH/Wx9ZBFtz+aDPMhWmc0crw2ULzJ52Yxtdo82etxxx9nPCZ85K/lCrqFH15zp4cx1syVlLVjxfjZkasYKk7/IhkxYpH333bfRz5Gtho1FUBqPmUOrjsLclr57trOdrZlbUGeGDRgjL9EvvWNugO5Rc+iltAMLkwnfVbpo7V27j86PLDDHPMDGRMZfG094jlzMpKMFbXzVhfIZ1s0cYiLA//5A373f/e7X/CIOr/eV3tF76OTo5uYYdyj/Fa94xQmOY8cdd2yCMObnxVMLPuHTz6kLXKlMtHHmuuYYE6lD2gE6NPVrfQ5ZRD9kDjfUoS+bbog8Zl5FH0O20X+zVXwbVT5+MOVF6ub3GDKH+czRRx/dxEe+kVclBxfEHB+XF/Am5PdY/aSUrt5DL0I3wIFTJn318dJejzV/+9e//tXoRdbWKDByBQ6DcYS5Fvj8//bOA9yeoyzjGxICIRiJiKGFIEWCiAgoir0gtkeJXVREUIkCJrZYQrUgYgL4iIhiC1ixRBEfFRtGVLD3giixa7CAimK/zm/xW94zZ2Z295w9595z/+/3PPfunt3ZKe/MfDPzzjczOk5P22h111577Qo2S461r7766i4Z9Qz+M26lbqDH4FdoE4InxFEin9f6WMPHW97A2YxKSnxVtmGbt/k2KS9I6P6P5VpT/NIZwNahOszIJaU0+B/h5Nek+NZmjzUeLFtIDeCoP6lBLlrtql+kUa3k8rjEb2Y1S1aY6pfv37yPr1qBBIZTrswAlXDUZYQtf/IlfLlfxCsphNGyU9u6bERCAABAAElEQVQ6IQ1MRr8txa9UdpgFT53mUf+oM1im5Gmp/Y46xrXmhuc6S1uKM8+wICvN/PL9UlhgXYzldi0O+hzLglaaNn13EnUKFujMKmv6S/eU50R+VHHB8gjLtdK3+oxDo3LrqyXrcZR14jsnn6a2L7oNBt/MCSNfIaC41O6xLsjDYDZd9Usixtbc5N+oxQhh5cvyplr4chCbhl2Kd8mSU+NDG506/GtlhYNUsbLSGfq5GGs4+7xPncAhPblVUC0eWH4qlnme1L7juVrFsLKphKfmzZRVDYl8WilHWN+Gnle/4p53aiWXW/gST9oktW6Nb/MrS/RyK2JNY27hi9+5BVrJuraFIe/S4GIlD/J48Vu37qLvWvJT3ZT8iGetk93xd5d1Iw14hzKKLlLLlIifXmtWsGopu4syE/iyqknj09oWhG90P2X9Lr8fy4MIv3Rl6wj1r2a5q+0E9SRv88Jv7R/Vli1rHdOwww+uu7bwJQysLTX8/B4rQ+1LULc0jmP3Wq7YOqGlewi7ZHGlZXzMwpf4sNxcdXCepvjNaozcAlbTQ78m3HJlBY6+5z6RWytuWm0b40r84Zr7o78DI8aX+nzqvVrVafzjHmx0y7tSnGnH0BXxTe2KX2BQixv+UMYi7eEPaeQcErbO0lUZcy18CRdr/DTpMRpXxuKlMcm+LHzpB0XeBg5cWcmg+MU76p4+13vayXAH76Hv4l7TFW7zK/GhvsQ3U69sDzWljrEVjm7Pgv/b6pwlLHyJxxL1ZAyvGLuAO3jlK2LHvj+u90uO31g5ONYviXLZsjRfaqxN/1XbtAi7dG1tvbJE3lSJXHlxIrd00P03phK+utdMi/AFWPYEQmGXMgWlxeCn1CDnmZJmJY/oNJT84RmdABRz/l3pN+HF3l4l/+iAo5hL3/rZm0lexUI7dyVMa89aFTPNdlYJUojJqYN59jLVTr/GhQ5Hq+MzpfFV/+I+HzAHVihRymppAoNGhuU6c8gG/I3OCNcIp3ZlUFib8KBBLi2TC7+WxgJSO+9QBn7gM3bwRMRr0+tJ1SkQ65GngUdcKa9Tygf5WOv4Q1xSd0qdmCXrMXWUeNNhmpNHU9oXMAhM8L+2HLMWrnY+w5+xK+1Y7p9uG8NWLfn70m+d+GH7hNzNVMIXsoQtjvAjj/vc+kN7xyQC+c9gL+JEHQy/5251EH7s88rAMOJLHZpTLnQAC5k+Nd66RQoHiYKlbuET8UHXtbYdYSAdbksECv2z0gCZTjAdfdXPJcKX9ECUcLChDmgiTPQChEIp3ZwaHu5IY8kN7azqrU0m61gSWGqrqXsvf/nL+22ZIh41wpe40aaz52O41SvfzVmmuYu6oXqWfi19UvJf8SPO/AbvGsG1jzIDnrp/IvGaQjYw+QX5WUpTsqic1I6Vypk+izaGONX6cdqe0LfX7/VeJ7fQ6/ou7skn3lFXtEzFe646SK7lG+7UD/1+6n2ySC325SClGRxrGzeX8E0r4Yb0oYsor2ocFGknDTXjBLbMC3f0eaeki/aMsVleZvAHHTClT6htFrqkFC6kvxJfrfMOQldS1kp+xbOI86aEL/7QLytN1lNuyUMtoyXCN+JC2SiNu4kjB1bOKQ+0qYzj87EBeRr5my/ljniMXWmfKWuBcfjHlfYSfqDWhuvEXq29I3wmb8JfJnXG4lR6jy7T9OJfPsEUYTDZWfKDZ7Ql4a5G+OKOPmBp4pj8Y7Itz4taeKXn5CdbwWj5jzhBVrfG1dvoHO2ntsqfknr5Fj2RnqXqSfiXXzn3Aaz5Y2/s/P1J/a39isjTKdcaD8NYgL5wrSzSjrfKS+C01FibMSvbXJEvpXTR9tb6ARGXJa7C61ZvT+SWDgm0vQhLVVgynwYmHUsf7na3u3X3ve99u0mm0RJDluljTs4ydMzOU0PRLyWJZRLidPT2jW98Y5casn6ZDku/WI6UOjCzliKOBmIHWyPAsg7KTerEdmyvwZItlrOeddZZs/zG7D8pxH5JE8v8UgeuuNR5lqdbOGYbEeoE5ZhlY3OWwG4RbMfWJmlPnn4ZRFKgfblPBFF38cUXb+Ptxt/edNNNfXxYrsOyOOp06jR3Z5999sZ+zvnwJOoUykTqFPXlPjVQ/bImliWjN+cIS3yoN2mg2p133nndJZdcsrLVyBy/7HY5BFhCR/sTywDVZ92SoLWlgy5jpAxTf6jPd77znbuLLrqoqR9Tp78PkuX8uK9JGtQMWy+lQUi/dLjm1s9XEaAOg3PqNPdbdrAUbgmdRp2mLcN/2sJSGVqNyfqv1Evt0uCz/2NZPm3hzW9+83WHx/QkEWX9ck7aeMrnpttqUccSWdnnATjRxqEHW7KPukEYtLlIInyH5e7oBbawQGfTFibSo7htQiv+pXfblhn6YJdeemnvNW3znCXrlDXygKXk1AF002kQyij5RXnS7bv2nTb6B+h+trGj71TbQmKJeLHVCLqHPKV86lZES/gffkS/JZF9vc6kHsxZuh7+HOo1dDPtM1sjlrYonJI28KPugSdjHupfS88zDqY/jjA2b+Uv2xix1Q+Sb0vVP5zxj3qEfogt6dARjOlJ/0kScKSPRfmnPM4dg85NC/128o8xG/UNTJYME//R7RdccEE/NpiK9z51TguzpepJKQz61Mgu9Wkp3JP6jP4mW9qAOf1OtuSYWxaXGmujL9jiBB6D+BAXOJS54+NNsZ7CW57RhO+mwPo7I2AEjAAIpENiussvv3wrMNjrTvew3cozf2wEdoAAZZw9WBHI32SlNIQC6Rp7+CrhOziYcMNghX3JmFBAkgVDx17+uTCx+oAHPGB4zKQbHT2LETitCOyrbtQI35OKq+7/vKneOalpc7yMgBF4EwJMNuk5PkzsMMGTC3vhxtk9kPGtvY3zb/3bCBgBI3DICJjwPeTcc9yNgBE48Qjkh7RsEuHW4Ryb+OdvjMBSCHBQFIeVQMCGpK0r+pnr+L0E4YtfHHTJIQshEDocnITVIVZBHBLIAZchaTnv6GF04dZXI3DICOyjbhwC4Zv26ewPzGKilcM9ESxIWV1XOqztkPPccTcCRuBNCOjkTlr23x/IycpXVkdggctBTXrAHQcpxSGpxtAIGAEjcNoRMOF72nPY6TMCRuBYEeAE2zjlddOIpD0wBwvJTf3wd0ZgFwjkS/Ox7MXCV2Upwpelm2kftw6SeUxYcs6p9V7aNoaU358GBPZRNw6B8GUJMVuxqaT9UbuHPexh+sj3RsAInCIE0v6w3WWXXTasAGolzWRvCx2/MwJG4DQiYML3NOaq02QEjIARMAJGYA8IKOF75ZVXdunwnbV9C7GugYBFllhaDYHMPr3sh5ULVj3psJjuMY95TP7Kv43AqUdgl3VDl07rHr4nCVQlfNMhKf2qgIc+9KEnKYqOixEwAjtAgEmvZzzjGf3e4vmkD7ogHeLUpcPDuvd5n/fZQej20ggYASNwchEw4Xty88YxMwJGwAgYASNwohGAdOXwn9ZhJewxyqEhCG5bB7DMSSyHW3EYD0QUByDc8573XMzvOfGwWyNw0hDYVd3g0FYO46EOH+ehXzW8X/nKV/aHE7FHJwfnTT3Qp+afnxsBI3B4CHCwF/v9v/71r+8PbmRrh7mHNR1eqh1jI2AEjEAZARO+ZVz81AgYASNgBIyAETACRsAIGAEjYASMgBEwAkbACBgBI3BwCJjwPbgsc4SNgBEwAkbACBgBI2AEjIARMAJGwAgYASNgBIyAETACZQRM+JZx8VMjYASMgBEwAkbACBgBI2AEjIARMAJGwAgYASNgBIzAwSFgwvfgsswRNgJGwAgYASNgBIyAETACRsAIGAEjYASMgBEwAkbACJQRMOFbxsVPjYARMAJGwAgYASNgBIyAETACRsAIGAEjYASMgBEwAgeHgAnfg8syR9gIGAEjYASMgBEwAkbACBgBI2AEjIARMAJGwAgYASNQRsCEbxkXPzUCRsAIGAEjYASMgBEwAkbACBgBI2AEjIARMAJGwAgcHAImfA8uyxxhI2AEjIARMAJGwAgYASNgBIyAETACRsAIGAEjYASMQBkBE75lXPzUCBgBI2AEjIARMAJGwAgYASNgBIyAETACRsAIGAEjcHAIbE34HlyKHWEjYASMgBEwAkbACBgBI2AEjIARMAJGwAgYASNgBIzAGYzAWUdJzuD0O+lGwAgYASNgBIyAETACRsAIGAEjYASMgBEwAkbACBiBU4OACd9Tk5VOiBEwAkbACBgBI2AEjIARMAJGwAgYASNgBIyAETACZzoCJnzP9BLg9BsBI2AEjIARMAJGwAgYASNgBIyAETACRsAIGAEjcGoQMOF7arLSCTECRsAIGAEjYASMgBEwAkbACBgBI2AEjIARMAJG4ExHwITvmV4CnH4jYASMgBEwAkbACBgBI2AEjIARMAJGwAgYASNgBE4NAiZ8T01WOiFGwAgYASNgBIyAETACRsAIGAEjYASMgBEwAkbACJzpCJjwPdNLgNNvBIyAETACRsAIGAEjYASMgBEwAkbACBgBI2AEjMCpQcCE76nJSifECBgBI2AEjIARMAJGwAgYASNgBIyAETACRsAIGIEzHQETvmd6CXD6jYARMAJGwAgYASNgBIyAETACRsAIGAEjYASMgBE4NQiY8D01WemEGAEjYASMgBEwAkbACBgBI2AEjIARMAJGwAgYASNwpiNgwvdMLwFOvxEwAkbACBgBI2AEjIARMAJGwAgYASNgBIyAETACpwYBE76nJiudECNgBIyAETACRsAIGAEjYASMgBEwAkbACBgBI2AEznQETPie6SXA6TcCRsAIGAEjYASMgBEwAkbACBgBI2AEjIARMAJG4NQgYML31GSlE2IEjIARMAJGwAgYASNgBIyAETACRsAIGAEjYASMwJmOgAnfM70EOP1GwAgYASNgBIyAETACRsAIGAEjYASMgBEwAkbACJwaBA6a8P3f//3f7g1veEN3/vnnd2efffbWmfL617++u9WtbtWde+65W/u1rQf/8z//0/3Lv/xLd5vb3GZbrw7ye9J+3nnndeecc85Bxv+kR3rpurNEev/t3/6to9y/xVu8xRLezfLjv/7rv7p///d/P5awZ0XUjicjsFR5Om5d9OpXv7r7pV/6pe7Xf/3X+/buwQ9+cPeoRz2qicPS9fvP//zPu6c97WndG9/4xu4JT3hCd6973asZvl8aASNwshD47u/+7u7GG2/sI/WFX/iFG/Wtvud7vqd74Qtf2D30oQ/trrzyyu6ss84aErmE/+jsr/mar+n9fNCDHtQ95CEPGfyfctOK35Tvt3WzBAbE4elPf3p3dHTUXXzxxd0jHvGIbaO19+/dXuwd8iHAVhmkH3HNNdd0d73rXft2/MILLxy+m3ozVkePuw5OTcdS7r7pm76p+7u/+7vuoosu6j7t0z5tKW/tzwQEWmV9wue9k7/8y7/s2zR+vOd7vmf33u/93lM/tbsTgMCSYx04APyDB9xG0JH4c+tb33obbxb/9uAIXwbf1113XffN3/zN3W//9m8PgLzXe71X9wEf8AHdVVddNTmz6FD9+I//eHfttdd2v/Irv9ITrHj4bu/2bv3fox/96O6+973vEEbt5r//+7+7l7zkJd2v/uqvdq985St7v+55z3t2dFgf8IAHdB/2YR/W3fGOd6x9Pjz/4z/+4+7666/vfv7nf7772Z/92T4+b/d2b9e97/u+b9/x/diP/djB7Wm7oXL8wA/8QPdzP/dz3c/8zM90v//7v98n8YM+6IN6JUyn95JLLpmdbCrel3zJl3T/+Z//OXz7lKc8pbv97W8//J5688M//MPdj/3Yjw3O3/md33lSA0++/uRP/mRfPsjbv/mbv+kbFcrHu7zLu3Qf/MEfvDJwigDoNNPxnyuUk/d///df+2zJugMJ9RM/8RN9WX/FK17RMVnyru/6rh2YUH8YEE6Rm266qSeSfvAHf7Cj4UXe5m3epvvQD/3Q7slPfnL3tm/7tlO86d387d/+bd+ZJc8Rvr/DHe7Q35f+/dmf/Vn3Dd/wDd13fMd3DGFDNlPfPvIjP7L71E/91GK+lPya+4y40UmcIne/+927L/iCL2g6/cVf/MVeb6CDbrjhhn7Sio4L+UF67n//+ze/j5ebltX4Xq//8R//0T372c/uwBn5xE/8xA49vUtZojxtq4te97rXdVdfffXkZFLWP/zDP7zonnblIz7iI1befciHfEj3oz/6oyvP+LFk/c49ZyDzrd/6rf1j2rMf+ZEfyZ34txEwAicYAfoZL33pS/sYMrC5xS1uMSu2f/EXf9Hd5S53Gb55+ctf3vfN4sG2/uPP3//933e3u93tei8/7uM+rnvRi14U3o9ex+I36sECDpbAgGgEkU57SZ/40MTtxfHlWK0MMt699NJLuz/6oz/qI8cE7px+SqSoVUdPQh2MeO7rep/73KcfrzJ2+Od//ud9BetwEgK1sj4HHDgbjCiQL/3SL+3HjXO+t9vtEZg7VlxyrPMLv/ALPQ/IuJk+DQIv837v9349DwCfMUV+53d+p/uqr/qq7qd+6qe61772tf0n8HdMInzUR31UzwNO8WenblIjcDDyj//4j0cpI44SINW/BPBRIj1G0/Sv//qvR4lMrPoTYXzbt31b0y/ilAbgTX8SgXWUlErTH96nBqPpz+Mf//ijRC43/TnEl8m68iiRa820g+Fv/uZvzk5emgBY8/cP//APZ/uTOjJr+fPJn/zJo/6k2e618KNsxTUNbI6SpfqaX2lwNvpt+KHXr/u6r1vza8m6k4j50Xh95md+5lFS4mvx0AdJuY76833f9336SfU+EWBr+fMHf/AHVfe/9Vu/teZeMeQ+EVtHiZyv+rHNi7G6rnFJg75qUNSdZK01iuNXf/VXHyUis+oPL7Ypq7nH1LE02bUSr2QJkTtb9PcS5WkJXUTZ0vwbu0+dzCIOyRpvzZ9E3h995Vd+5Zr7Jev3mufpwSd8wicMcSEOFiNgBA4LAe3vJsJ3duTTJO+gA9Bp9E9UtvUfv9Ik6BAG/aI5Mha/OX5t6nYJDAg72oxW279pHPfxnduLfaBcDqNWBtPquSPGUVG2nvjEJ5Y9GHnaqqMnoQ6ORH/x12//9m/fY0qf3rJfBGplfU4sksHSUCdqffE5/tntPATmjhWXHOt84zd+45D3oRfzazIIG01QMuAa9edzPudzjjbpd40GPsMBy4YOQv7hH/5hjUB4x3d8x6PP/dzP7YmZPJN+7dd+rZquZO25RtJ+4Ad+4NHnf/7nHyWr3qO73e1uK5mXlpgV/fqrv/qrIwhmDRtCGj/wLyd1kpVn0Z80I7DiB35CmEHk5AQ3neAx4qYYyAl9mJYIHz3sYQ9bST8E+pOe9KSeZMgxRDlPFVXkmkdzCV/wLpH6Y4TvU5/61JV0kZZkydeT29FJiHhRltOs0ErSKC/xfs71Oc95zoo/S9adZz7zmStxogNJ/oFFnqZkZVwtq8mCe6V+4A91+Yu+6IvW6lSaeVtJj/5I1rz9dyV8aoRvWhq/EjbfEtfP+7zPW6tvxCvNJmqQW98T51J8a8/QJSWh8dAOD9+ju5Il7RF64s53vvNKOORRTXdsW1Y1fskSdCXcSNcuCd8lytNSuijX55H+2vUrvuIrFL7h/nu/93sHHNE/DLRKsmT9LvnPs9/7vd/ryxr1ZGzysuaHnxsBI3B8CGhbsenAg4nD6HfnxgdL+N8ik6Yg14rflO+3dbMEBsQh2opDJXzdXmxbkjb/vlUGMYxIFmtHaRXgEePXTWSsjh53HdwkTdt8E+MeE77boLjZt62yPtVH5QlM+E5FbRl3c8eKS4510urpoZ2lvUUvwrnBveUc4Nd//ddXE/zlX/7lK/7QP8I487M/+7N7P6Mt5wpXcpxyMIQvA80ADsUKaaOSW+y2rJCe//znr/iFZZgKhDAVX8PD/1w0o7FmS8uhV5yk5R0rZPRHf/RHr7znB1aQOusK6ZWTMt/yLd8yxIU4/fRP//SaP4f6IC2pH9IGDnQUVajgVKDIi/d4j/fQ19V7yBsl4/V+LuH77d/+7UP46k+L8P3d3/3d4Rvi/sVf/MVr1tlpe4cV4hFls6mAS2CU9ula8WapugPxGWFwhfzNy2ra9mLFDdaOJcF6Nvzi/p/+6Z8GZwxG05LA4T2Y54NLHFNWtGzgn04QlAjftNx+xQ0TKpQxlT/5kz9ZIUuX7gSkrTqGtKGLNpV8drJkDU1DFThzTUvx14Jbqqwy8wrRrOFpfuyS8F2iPC2li9K+YgMGENGbStqKZvAH6+uaLFW/a/77uREwAoePwBKD4xYKS/g/Ria1wj8J75bAgHREG3qohO9JyIszNQ5LlcEafodeR2vp2vS5Cd9Nkdv+uyXKugnf7fNhrg+bjhWXGuvkY16Ma1TgG/JV58Q5FziIaKu5Mt5mJYVKviI6bR+rr/d6fxCEb9obYwXUnOwNxCBllfh68YtfHK+GK26UYH3e8543vMtvmAWNzMyXyUN06SxA2sM0/7z/nVvz5ZYVzLhGGFjy5QRaeMqsQ7jDEvm0iFowQ4CWhO0UIu1cc4Ku9E3ap3f4BhL9sz7rs4bfcwjftC/sCkGY9nsZ/GkRvs961rMGd1hc1iTtVzy4ozxtImoJDPGlsmTd+a7v+q4hrliE1iTtDTa4Y7Y/l1/+5V8e3lMXS/lJPVEyNyczc/IZUpgtP5RwLBG+1PcoS3TUSkqc+LI0TcnKTa0h8rTzmy1nIg4Q5JsK1uLhT4tM1ckr6kEuS5VVBqcRH7CjEVUStRXHPE5zfi9RnghvKV2U9i0ecCiV7alpU51PeSzJkvW75L+fGQEjcDoQWGJw3EJiCf8PnUxaAgMwjnbUhG+rxPldCYGlymDJb54deh2tpWvT5yZ8N0Vu+++WKOsmfLfPh7k+bDJWXHKso8Y0pS3ySA+krxr4lcbqGHFGWw33UBM1vErnA9Wc7fz5QRzalsDqHve4xyVcuy6B2jzI4Yd+6If6jZZxy4FpaWsHbgfhsJk4IIf3nFp6zjnnDO/15q//+q/7DZh59g7v8A69f/H+N37jN4bfHO6U9vqNV2tXNm1mY2gkFdrer3CUlt93V1xxRf+TA47SPh/xauX6/d///V0c2pYKWcfvQ5dUurub3exmQzLS/pnVvOBU+DhsIFmNdokMHL7Lb8A43qdl7V0iePvD/BLZ1zvl99RT5j/pkz6pS0Rn/12yqOw33sZPJBG+XbL+7e/zf2l7gP7AKp7jBrclIc3nnnvu8ApM5gjuOSyNQwcRrhzUFbJk3WHjcQ5XQzjci8PESsKhexygiJTqa7J27p7xjGf075Oy7Q/V639k/zjt9+EPf3j/NC/zHIz1Vm/1Vv27z/iMz+ixPv/887uP//iP7xLR2D9PhG9/SIV6S3wSedw/ojwkUk1fr9xrHqatJvoN2VccbPiDg/84qAtJZGW/QfwmXsVhEXz7p3/6p9VDDfVQgjQhsHbglqZzm7L6wAc+sEuTcV2adOsPwuMkaOpMYJwI3+7TP/3Tq0mlLLNxPgdppv1rOzbyR0fzl8jY/hTk0sdLlKcldRGHRLJ5P5Im8IYDeEpxz59x+CE4IRxMGjqP8nfb2962f84BfHF6/ZL1u/e88u9Vr3pVx6GVCGHrIYCJjO5od5G09UTfvlEeOUE5zaR3yXq/1xUcgkDbe/bZZ/dua//SDHl/KB16JFnbd+edd15/eOrHfMzH9PW5FZean2f6c3QAfSHyg0MU733ve/d5SJ3lfq6kVUZ9Xec7Dri8xz3uUfUCfUe4yGWXXdZxoK1KWo3Tlx/iGAc8cjgYh5rS5tROTKZPxWGVCAdC3ulOd1Jvh3vaRA7BReirxaFg/KaMRR+RdoS2mHhwuCq6mcNdwYeyd8mEQ2PRf/TNKLekCx1NfaE95DDR5z73uQTbpYFEl5b39fdz/22qJ/MDbtCvYEha6VPRx+WAknd/93fvD04txYs6zeGqt7zlLbu0ZHHFSe5/7VA4+s60wfQhOEwXjJKxQ5dW5W11aBuRacVv6bxeSfz//yhhwOG2hM1BxOgy+p5pj9suEUUlL/pntUPb0I1pgrZ3Q/saY4LcozRY7Q+kpQyOlbVkpdTnB3qcftXFF1/c3e9+9+v7XhdeeGHu9aTfU3V0mtjvw6au0eZT15PhQ39QKeVwTNKEfYcuIg0c4g2+tE3v9E7v1Jfl0inp1EMO6wVLyjxtFmWResChPWmStq/z9DnQbZEXtbgQLvFHj3BoGQej4S/t3RSdUfOX55v4XSqDEYbqzEc+8pHVer5NHd1XHdxXPwEegH4xZYwD66i/jLloE+AOoh+ejByah7ZxkBNjE8anlBPcU4fRfclycWUsTH5pHWK8QDi5wF/EoY6Mkag7udD2xfiQ8VSMX6+77rr+4OgLLrigu/zyy/u0Uf75o9+JX5RjxsCMrbaRTerplPBKZX2uvtXxUTKOWTm0bRf6dkq6TrubTcaKS4516Icmg9AeZg46Jz4loY+TjD37V1yDh+QBZTrGZPymTkfd4rcK7TF6kb4b3zAOPxZJETjxwr6eCZz+j2XMLWEf1HDLNbe8ZZ/OeI917aaCJS4H/PCXlELVG9ypRXFu4cvye9KE5WEa7FT9SYOmId5Yfp0GATvSjhUgZu8tUes7LH5rwqwMe7FEHrOfJrKJha9aXzMjRT6nwc7gd8vCV/e6rc0gES8sRyOum1j4skQ/vsfiM5cl606Ud64t0X152Ccnl0TgDXGuWS7yjVrHYzFK3oZgmcuz3PKXWbbAo2Thq2GzHKMlicQa/KL8LSVpcmjwl+0dNhXdxqBmHY/fWNoGJiXdsVRZBdunJMt6LR9TLXzR01pvI756rekIzdNNy9OSuiiRSj3em9TnNOgd8krTrvds/h+yZP0OP0vXNNEzxCtvgznUIOKXBkZHajEez+NKXuVtsobHO83P+C6uX/ZlX3ak9ZLyZakjgJ58xCMeMeRP4KhX6v9c+dqv/drBT8pgTej/pE7w4DZfKUEbix7X+Og970rb0BCerlxIREYtCv3e7OEnViIqieQdwqY90BVi8U1c0ds1IZ3qV3wTV6w6tG7TTm0i2+hJtYYiH9R6JeLJFcxznCKuseoGN7mo/3k/N9wm44YBbw2Te/ovr3nNa4b3m2DUip/mzzZ5HWkpXRWDRBT1Z3nk6YzfHPRSk3CTW/iyBVy8I6yaJGJqcFfDkTKr/eLwV6+1c0dq4cbzVnsRbtjuS8dGGi739G9Ib01e8pKXNL/H8rLUv0qTkQM2bB3GStA87PjNEuLawb30GcYOzGU7vk1kG7+1DOb1kNWhkbZEJhejtm0d3Ucd3Fc/oXWQMeWLLbvGLHypZ4wBA/fSFT/ylaeJqB2+YUvAkugqZFZWlkTLg644i3aZK9tR1tph3idStOT1pGeb1tMpnmvaNtW3LQvfJfXtlPScKW42GSsuOdZhDMHYAd5Nx6s5/moJnAjbldfabrT6wCsfHfOPg9jSQRupZPXUhIy9QFWhptmvFffRGOEmBh8o2he84AVHV1111dFjHvOYIw7RSTPy1e0VVjwc+aH7d7Q6aCPe9ERKpCvNdIw5P1Xv2Xc10l4aaGhiwSbc0pkL0Y5t3rCGG72+4Q1vWBmoxjdTCV86sxEPiJ8SSQ2BDHkT7th6Yo7QkVByhK0Cclmy7uR+l36z1YISd/lAnC1VIr1c2S+7JdEpwa0SuCjpqL/6/Rjhq/U/8lS/13vdwoLwW4MP/W7sPlk3DxjQIaes0ZiwTQb5xSGRdELGRMs6m8Gzb3Uu1B0lMRiI5bJUWS1NWE0hfMGA7Wy0XHBf6oBec801K9FfqjyteNr4MUUXRSc0BuvUfbazoFNABwJMIDZKwkCdzn9OxlAPeMYfe8eH7Kt+twbwSvjm+Yjuy/MVYkcnbyIt1OnATr/JsdB9vEz4BnrrV9oX1XdRp5i8yomWufuUQ4JEHlE2aYtKkqzeBncQOCpM1oUfcSVeedx4V9rDemnCVyeViYO2PRG/GhGq5zmE27zsa7mtkXCKT36/jZ7EL61bmlb0bB5X0n9jmnzKJcpTqR+m/udEE/4wuAps4pqHy9kb8W4TjFrxU8JX0z83r3NM9LdioGkhTaXyRB+jJIFBtCHhZkkCYkqZJR7sdzhXWu0FftF3y+t5CR/tw2sc1P/AinYiyLd4Rhh5P1EJ39w95THvd9S2ZFOyjfDoZ9G25d/nE6Sajtr9Nn5rGczrofYXSoTvEnV013VwX/0Ebbu0PGn+Ul6iHJd0IvlbItBzvYf/fK9jEvIuwkVf5cLYSeNC+ctF9QXjMpWob/ih8SnpQ9xigDNXtqmnU8LSsr6pvjXhOwXpZd1sMlZU3bUtDzg1NTp2zvWlxgejKuSmm27qjdAYyz/60Y8+etKTntQbXG1Sd6bGcY67gyB8IUBC8WGt0hK1hOWb3CosFCRXyCnNtAgjrjRceWehFXa8Y/DDwU+QE+EXSpRnm4h2UPCvRhZs4vchfKMN5mMf+9hqlMmrwJv81dnMuYSvzibpzOlUwpdI6oCU/Ge2H3KNcoDVEp3DiC/v2RtrjqilW+30xyXrTitukJYcfqgENORWLpBfkWY6EWOiBFI+eVP6dozwBacIH0vkljCrHm65sp/zEgKxj3+UUTpEoZM0LO7p5LXCpMOnHR46dGk5cd9pxPIAElnJsrR0sUrM7KqsjhG+6Eos5SPtdDw5lDIGKnSANW6403qy6/KU5/cUXRSDyLRs9wgrrkhbfmUw25pdxho7vsECoyT7qt/acc8HsEr4Rnyx8sXiAuHw0rycl6zbONU2vqdOsGcWbTQCEa6W8eHOhG8PT/EfljWBE+0LZx/EaiSumm+8r5G2Rc/TQ22/8oNC45snPvGJQxyiU8y7fG98CA461MSBP4hV1eWUh7wvpnohn1iM8Lnqqq6csFUSEKzQkToYoe+lE5jEMxd0buDMlbIfVoF09LGSBF91M5fM3FZPEmdtK4jLIx/5yCGevAcbbS+YmMylReao/6G/43vabk0/eRfWl0zalSy952JEWK34LZHXkZ7aVTEgvfRxyP8Y8NF3174lbiCWcgmsdkX40jeIMLjSHyUfEOpZ9FF4RxoYyM6RVntBX1H7iYzpon2jT0M/UutLfg4EdUG/B08mYkPoo+vkSk4O5OMp0sjkU0yY4z9tnOJDv10ln/BSMoDJTG2rqFOhd9WP2v22fmsZzOuhjnc1zsRlqTq66zq4j34C7ZOWQfbqpAxQNuizYfFK3dQyQhuVi56vgltWKIXeg4ylrEd/kfcQTDoZruMVPdiacGjzNHzuWdGjQjzDDYZsKtTreMeVtlq/T9urrWCQtiPSz0fvt62nowEkB1rWScMm+taE7xSkd+9mbKy4r7FOpFSNNamj+VhNJ+U4PwijntpYnudY7B+3HAThm/ZHGhQTwOksmAKIAtVlzigAJXXIsFBwKFZVpvE8v9JYx8BVw8rviRNkBX95ptP52PS0dhpsnbmio3wmiW6rAK4M/GuiA8Tc/H4O4asWj1R0ylXIHMKXb1hqr4OovHzxG2JnShmLOHClU6AdhdKgAXdL1R38yuXxj398X97zjgP5BElOg58LnczAgHI9Jljch/vSIYz591oG1CI43On2BRCqQSjF+7gy6MnTlfa1itdbXbEYiTSNXcnjVpkHYyYScp2j/vKOyacYdNYiv4uyOtaIa2eLOOcDq4irLku/9tpr43FPEkVad1GehoDSzVRd1MqLiGtcSZd28DW8KYTvLuu3xqU1gFfikHSVJnrwSyeocKeDUe4DE64vfelLNfjhXreLwZ0J3wGatRsIVkgu/mrtA1YIgXutX7Xm8f8/UKIT0iUXdJNaDgWhhLu0x/UQLgSBvgt/0FdK7OQD1qUJX8KCjMoFXAIj2oRclFwqTWTgXvsU+DWXzNxWTxIHHRxDbOcDGNzoMuISud0ic9R/rdv4q33tmtWmhr0JRoTTip8SvpvmNWG0RDEgDaVVV9QL7aewBVAuUd52QfjSn9U2qrRtAwQlE5YRj3ySL49v/rvVXuihpkzol1Z5pT1Hh7CJqwp9NtpG8hMdUCJTMaqIuOdGQjnhW1o9QHja56CNU1FCV1fcqBsIgNC/+WSVusvvt/Vby2BeD1uE71J1dJd1cF/9BN2yiD54qV3ISeG8nJKvmheU2ZIwrtD6qIYtOvGQ94mwIqSM67e5gRt95agH+bYMOr6pGVJpf4uyPEe2radTwlJ8Secm+lbb1pxfQVcGfoRVE8Zo4W5u217z80x7PjZW3NdYB9xpI3TC52Uve9ladmi/j75p5H/r2tp6cS2AHTw4CMKXdOdLsHIyhwGDNlgBum5/oKeLxnuuWPIxIKIDDKEHWaiZDWGHlVJLlMhSv/GHWb25hB5h0THUTgfxKA2MWvE65HdYJCmWbLtRExrDcFtSzFMJXzqPasafV9A5hC/liQZYidmIo17pMKrVYi2N+lz3ZaXct2SJulPyX2e4ND1YbELulAQ8w23eES+510H9C1/4wpKTlWc6kMp1BA7ppEX4XCEJ8z1Fb0xLWZWoCPe5RcRKwDN+6AQOfkOWYOFCeWGgQodf9Q+D0xpZy6w/nVPt9EV844pf1J28869R3lVZHWvEdQ88SKCaYK0PWc+fDlB3XZ4iPlN1EYPXwJ0r+YKFEfofjPEn38+NiZOSTCF8+W5X9Vvj1BrAK+FLvSGdNVESQcl92t/AbUwvqNW/Cd8a0tOeY7UTuOeDxTEf0Emhdxg80l9R0Txl4k4lSAHCLg3Swi2WExE/2lEVbRuWsPBFj9ZE2/CwBMQtkzURP/RsiXwKP7Xezx0UbqsniYMOjiHra6Lpyd1EvpHvuaj/eVsT7Rnf1doy/FPL0rkY8X0rfkr4bpLX+D8mikFOHui3uvVcXq5xF3mwC8JXrQ5r2xUQB6yRIx55/eV9S1rthVrMtwxhmBiI8NXqvhWuvgvdxLhJJSd8axOu119//RB+npe6Hc3YXsMa9pT7bf3WMpjXwxbhu1Qd3WUd1DZll/2EOIeB8ldbvUJeajnPdaLyDbzL80LLQjoQaihrurUf44KoAywPV4l+HytY4j4nlcMAjvDzfpkSvvRLS4Jlf4Sf66KS+02e1erpFL+0rOd1VL9v6VsTvorU8d2PjRWJWZRzyiT6Kh/jT+EBx1LIahHt75UmZPFD3UQdgYthO1jiAa+AkZDySbijT3tccjCELzOkOQlDwwKRpwNAANWlhrpHliqvyCAUbUk41CEUEW6f//znl5wNzygkNKYoa2bLsKDQ77mvkWCDJ9kNCj7iyfetA4myTw/+Zz7DogcV5YljAKFlo4TTVMJ3bEZzKuHL4Jclk5F/XGlgGcTQKKvi4h35C9E4RWi41Wq41liHX0vUnfBLrwwaKe/8MXBQayzSRD3MLWgZ3AcmvB8T/A73uiS49t0Y4ct3LFUKP+MKCUu91TSQJ0rObjLoKMVT805n89Ut++YRfsQvt1jHLQ1K3ujwG6s9OsMaDv7QYSt1OndZVscace2wbbLkZdflCZzn6CLqWuQZ9b020ZcvqS2VramE767qN2kP0YFNbu2lhG/rIEv80mVZHPAWgjVU4FZrk8PtU9LBgOHWhG+gMn6F2GDihHYGsp3lpPRTAssp+jUPBZ0Z3+cDY93OgbBClCTlW11BE27iSlsX/nPVQevShG+LNI6BM3HQraIYcET8OJitJRwgG27nkpnb6knipX60tgXTNiVPT4vMUf+1ndF+N+1pS/SQpLkY4W8rfkr4bpLXrXjHO8WAwV5LIq6UidyQI8pJTrIsYXHGFgnhP6QqFoalP7VsJ65zpNZeMCESYXOF8C2FzTNt/9jepyXgRztInNFDSmq3CF/GjjVRizLGdiq6lRTpoM4wiYA+yCe+9Lsp99v6rWVQ6yFh1wjfJetolGv6r7lsWwf31U9QHZhjqGnS8WCeXt1yAWvAlrTcxtgW4ihE84uyHvtxQ4JF+dO2szSxo4RvrQ3Gr6ivc3VAxFWvc+qpfle717K+qb414VtDd7/Px8aKxGbXYx0m89VyF54mb5sDFdUR1BHqmPZPwx2TDTrJWaqL4XbX14MhfAGChjCUXyih/Mq+Y0qUsqdvCJmp7lEWLWGpdLgfc1vyh4KiVh34NXUfXzoPETZXlNKZIjRmms90/EsVKfCIxg6csKYuyRTCl2UZQbJxLS2l1wa+RW7oklX8KjVGpFMJRRRIaelQnh49TGxskBnfblt3wp+xKwRcdPjIj9x6UWes8454yW+12mfAPCZTCF/8YJ9YrV/5PXmG1bgq6jEr/7G4xXuWh0Cu1MjecIelb8SLPcRUGDgpWUPZYZCUC/mhHbvSctpdltWxRlwbzblW7qR11+Vpri5CT2EZRP7ms8953qgVSYnk1AEv6WzJrut3bQBPnJTwzfdbzOOsA3EsU0LQE1HWmSFviW4lYMK3hdRRvy8lJLsSloFzft2E8NXBkm7rwEAx2nD0j1q+vva1rx3ymvo/Jtqe6ATK0oQvRHhNdDWLEr5gFji2LIzwV/fmnEtmbqsnCV8Hxy0SQyej+U4l8oL2MZea/0p0M4HbEl0pNxcj/G3FT8mmTfK6Fe94pxiUJvHCHVfV/2xhoBJlaheEr+5pHeFMubYsszXu3NfaC136PCXMcFOqWxCytBv5xHZ8E9e8n6kWvqX+UKRFy2JO+OJGx4cRFlfqBnlLH7NmPRxh1K7b+K1lMK/nNcJ3yTq6yzq4j34C4/bIzyntE/kd+a75qXVgTO+xd26EmZdXNXqJ8aFOjFEvdXIiDllUYwidXI84xriAa0sifeTrJrJpPZ0Slpb1TfWt9mFyPbPEBNuUdNjNUb89W9QBJnZqsquxDmM37edRD+mr1iS33M11rX6nk6ekscVn6XdL3x8U4UviyQD2B9UOMIqIBjYUHSRYFByUjUo855qTUeqOe80kBi+biirslqVq+I9y1ngySD5TBKtFtbKE1KrNPoKJ7tVFw1XrlE4hfJVgqSmcKYQvg9toJMlHXbqc5yNLwOnUR36PWYGjKGIgzTdzlgdsW3fyuNd+M5jS9EOahTBYjrRyjdnoeJ9fo/OIW5ZzjclUwhd/sOJHByieKHGWzzIw0dntKXEdi9vc91iqB1Z5Z0sHI5T7FhkN/uEPVyVWd1lWSe8Y4avYtxrMGna7LE9zdVEtjrXnSuhfddVVa85UH40Rvny8y/qtg5eWhW9+QE6eKB2E6JJMJe/GiEc9SdyEb47wm39DbCh5pzqgdD+G+5t9fvNdTuyGPtctUPJBFAOzCH/M4pOQdAWXTphrmWlZbCrB1Tq0bRMSkMm7SMtYf5Kww+1cMnNbPQmOOjhu6VotM3ynEu0x7XsuNf+VFK9NyIdf2r+aixF+tOK3b8I3X90UaYyrkm/5/pxRTnZB+Oq5CBHOlCvbYU2VWnuhdX9KmOFGx03omOc85zlDXQo3tWtOoC1F+IIFKxdox1phxyFdU7ELd5v6XauH+KtlTrcoW7KO7rIOqs4fa6827SfoKq0p7VPo5lwnqmHOmN5jXBdlCCtdFYyF4h2TCEhMFsUqSSYWYszFBC+iq6lIUy67Jny3rad5fEu/taxvqm9N+JaQ3f+zsbGixmjpsQ5lVdtF6saY3tadBKifLcH/2DIHt2N+t/za5l07ltv4vIdvAbHElIcCBtjcHFs7s6EYa1FVi+Bcmde+KT3XfejyDlzuXk/WJv6cnnumCGStWrxiWp/nX44F5D848UeFgrAr/UVjiDvKB5ab/IX/2uDihnclf3SiIdzhVveKhkjkHX+Q12OiG/OXiB/9Xkmi3OpT3Y3db1J3xvzU9zrpwqBYRRWfksHqJu4DR65jDTrfzCF8IwyudJjUCo1nOvic0vHjmyVFyyQNkIqWGQjqMdG9U9ExIbssq4Qx1ohTxyKPWxMjEd/SdRflaRNdVIpb65nuP1yyNJpL+GpYS9fv2gCeMNXCt2QJpfHSrSzUGph2LsrB1VdfrZ+s3YNVuDXhuwbP8ECJUkgPrMjRxSyjZgCItZBako0NoAePsxtdxRTbOugqq3yLJbWgmtKv0vrN8rgQHfy3CF891X1pwlcts+hbtkQn8ueSmUvoSR0c75PwVaJ7bDkj1v1Rt+diBPa7JJtaeRvvFGMmt1qiK3Ry67TAIB8vqMVZazuCljW5brXCoU70c6b8zbFWrbUX6JxIG9cp4eKGehaiy9/xg3aS/ccxCGBCiElg+k6hN3ZJ+EacmHDHMOcpabshHX8SP/puNUOU+L51neu3lsG8ntcI3yXr6C7r4D76CfSdYrw41j6Rr1Gec7e6mmlM77E6L/zJ2xHGPfGONk+NNLT/EyQw+Y/EGIz8KMmuCd9t62kpzvkzLeub6tuphO+m+jaPs3+XERgbK5a/etNZV3N5wNwvzvGKOka7McXAhsOp45taHdNwtA8Xxqn6fh/3B0H4ouDo6PBXylgFigFNZEJp3xxt8HRJqfoR96qw8gxlr1cIN/7G2Hq1Qs07HxEWV5Z4R9y5zj1ERf06tHvyVZfvUzmmEHy6nYNiN/U+wiD8qd+U3ClJoTOyLKUdEz29vrVFA+U/GmniMIUgW6ru0OFmAEZ5Z5AwJnr6e35ATHRMSAMHVNRET2qmPEyRMcKXfA5dkhO8uf9KKDCxsIRAthBH/iDvW0L+RlnL08/y6Xg3JT90lQHWMSG7Kqvh/1gjTkc40qH7rcf3U65Ll6dNdRFxpaxH/uanIudpgYCLtDNQzGUK4btU/c7Dzn/XBvC4U8K31SnGLXoy0qxWbWpVQxtZs1hnSX8M5PFHBzz4b3kTAjpIBCcIoJJofmxK+N6YVnREnsa2DkF65Hor4hADar5rWQ7mS8Dje656MvKLX/xifbVyr9tZLE34ElCklbSo1ZxGAp2iBDw6Yo4soSd1cJwTQRoXNYrQ59y3yJya/3qQZav/i/9quTkXo7H47dvCd+yQ2dBj1AVIJpWoTznhq/3UfEyi3zPxEn7kOGKcEO8YtO5CWu2F1n2dwJkaj6c+9alD/GtjOFbnRBrzMrekhW8pzrTJbCWo6RzbvqvkT+nZFL9r9RD/dPyrumrJOtrSEdvWwX31E1RX19pO8NSVLOS3ipLoeRlUd9zTfkV5LY0BIz7oAw1TV7yolTb1Ksqfjk013BhLcm1J+NPSN6Xvt62nJT/zZ1rWN9W3LcJ3CX2bx9m/ywiMjRV3Nda55pprhrpHm8zK/inCvvJRZ8fqhhqP8o1uCzYlrKXcHAThq5ZQWFOS8SWh0UKxRiYosRHuVVnSUQ8Lz3ivVz0ZmQO4VNTScmy5BstcI041ApB4hWLFbemQJg3/NN2Tn0raMOCgwzZFIN4ZVI79KbZUTtzTiEL+ISj2MT94r9tN4Gd8A+kRog09eVkjL8K9WqzVOrC45eDAKEfsNTNFlqo7WHfEAIU4tDrq5Ke6zbdV0aVOLctZJY0Z3E8RBjeBUWkPVbVGY1avJro3LP5RP5cQtXABI8pdTSByIy2Qfyq6XI0y2BIGk9G5wz8lR3ZVViM+Y424Wr2RjqiP8X1csZYAL/6wUFJZsjxto4uIE8swI8+wqm6JElElfT+F8F2qfrfiybvWAF4JX9Jem4hi0kjJsXyZoZZRJv9yizLqjupfwjLhW845LRettkJXrGxK+BKDWJlDHupJ6rWtkXQZNOcu1OSZz3zmUJ9yKykd4Kq1uPqlA1/Kyy4I33wpIMsNc9G9J4lHTsLl7vPfS+hJHRzvk/AlLUoi6wF+mk764kEWbYIRfsX39M1y2ZZsyv0r/VaMac8Yk5REJ1rph+ZC+vnLCV/cqQ6t5aMezJaXNd2qjvrfGgMxaYnhS1ju5/Gs/W61F5x9EemjXNeEyT3C5k9JtyC/8ENJS/VHw8/JtiUIX1ZG0c4Rfk7WRzx0Uv65z31uPB69buu3lsG8fNQIXyK1VB3ddR3cRz9BLf4YM9REtwrMdU4+DqIclwR3ujy8dED8s5/97KHOBJGal2udHNWVry/LVlhGHAJHri2JsTP5Oke2radTwtKyvqm+bRG+xGFbfTslHXYzvhpU+7Tb8oCBN/xRtEWU87x/GO5KV9pN5TlKZ+jEd7oygW+OSw6C8AUcbYwYBJSEgUNkHqDWOjJKJDHozhtF/NbTQPEzP0H+da973RAWBUUPh9O4MfjRQlFS5hSUUKqENWb5p/6fhnvdY48BvS7fWip9OiibOoNTClv3IKsd2kYnPxpT8pOGrzQIxH/dZwm3avWm4TNDpOWo1tHVb+J+qbrz5Cc/eSjzkFkl0hcCU5fQEue8fuWWypCXueiACFx039ncrf4eI3zz/WxLnTDSoGRcacZdw5x7r/oHy9sS6ZunP4+nLgEDHzrypcElOpDJKtzEn2K5i7KqeIwRvtR11X3gkQt1R8t+rouXLE/b6iI671r3OVyjJFqXSD9kZi5TCF++WaJ+M+MM9hAMJeJPB9CtPXwpY3SQcx0OLrqCIx+skA7d3xd/cEO5pgyBhZaBKMsmfEFuXajjgRE45n0h8kMntHFbyvd1n8tPsK6J8OiMx31eDuJr+kvhhmvpoL4bbrhhxU2+vRUTeuEHdS5PIxMGOdGad+iXIAFJIxhHXKjP6HjaNSwogwCJ91xzEi5wqV2X0JM6OM7bZA1X9Yk+5z7SQhpzafmvBAr1WA/fC3+0XdwEI/xpxW+JvI641q6KAWkotWdYxGubx6GpuURZKRG+au1d6jspoVvDUeso/ZtSH0TbbrafmCOt9oI+bqSPa963IRzIK61TulpGScuSVR/LZbWtwB+VJQhfzefSeBT9qlt2gMdU2dZv/T6v54pdPoZYqo7uug7uo5+Q979j71zNQ23zKMclnajLvmt6T41Q8Ke04iU3zMBdaSs3SE/e6V9eBiIN0U/l2pLQVeTrHNGytkk9nRKWlnXSvIm+HSN8l9C35B8T7/SBS2fRMGmEpSl6GeOmkj4e82MKXifZjbY3NUMB7ZuU9C7pm8oDahtF2dnEqEt1APWIA+VyQV9FHSKcMQPR/Pslfx8M4avm04BG5cFSjUaLDoTuUcn7F7zgBVWc2BMKN/FHJWN5LRWRQY9aXOIGAqs0i6uze7jDagVC92VpRg2rJ5RPhMGVwgpxp4KVUyjecMsgZexvmz2hNPzjvs8bO7YMGEv7nM5TpG+fhC9h6hId8pXGnhl/CCCWfaPcdQYUNzQGNcFCIMrH3MHiUnUnJxkhdthSgy0psMDEIlUHEsS3RiKoxRLu2LuYva6pz09/+tOHtPJujoIcI3zBVzsi+E9Hl1OKsdggb3IrQiwulhS1AiV8ygF4ED55paQj79EzJVELEtyhX8gPyhjbwTwlbROgFny4wVIgl6XLqvo/pRHXfUSJI2WIRpt0oAtUP5I3JVmiPC2li/LyC1kZbRXx1DJKemtbWUwlfJeo3/nWOPkElXaOxghf0oS+u+KKK/pyzdYoMQjkHX858RZ5qtvbhFu94q/uX23CN5Bbv2rnGD2A1Q99JVY+5W0PGNd09brP60+Y/NN84n6snYJo0m/o05G3/OV1JA6n0ZAZFGlHGmIHXUIa6YeVBr95uVuKBGRFiMZF0xX3bF8U92PYaDrjfls9qYPjGglAWFpuIuy4Rj0mrbm0/Ke/qv5Sj2nXGDAxwNV322DUit9SeZ2nW38rBpEOyiHtGYYcxEHLCdvOlSZq49sS4at9QdwxzkBvXn/99Stb5oQfpbLGuIM8CDfgxsoZ/GGwrRPeuKlZZWva9b7VXuAub28gVVgJSb+F9kIxQlep5IQxE9qskOFbSDD9lrjvgvDN21zaOvCn/8o78jWwJT5jq/w0fdv6rWUwr+fa980J36Xq6D7q4D76CRwUGHnIlXpE20T9y+sH8SPo9AAADvBJREFU78nnXGgXtf9KnaNfBz/BeEnLCX6U+uf4Cf+g9RW3JRKaySPexV9rTBnx4tqSqE/k6xzZtp5OCUvLeqR5rr4dI3yX0LexAoo4lsYwGLFE/Lnmk9tgMebHFLxOspspY8VcN27KA+pZAYH7GO9EG54LRgXKF1CX4CuwRoYTYYwe9YdwKJtTV6/nYS3x+2AIXxSe7tkWmVS6tpZgBGgcXKQZUfKHZ3SmSmQv/pDZejhJzQ+e01jkFij4geJvfVd7V7KuxL9Dk7wRq6VXn0PQzZV9E77ED8uFqemjs50vYY40Um7Un3zQGu5q1yXrDtYTusRF80XvqVuQqC3JCUv9Pu6ZyKnhUvKbehbflrZ04BvqDg1FuGtdS52qUrhzn+kSj1b4tcmmCA9io/W9vmvtCb5UWY14xXVKI0751L1ENc56T4fzxmQdVZNty5PWMQ23dV/SRaRH939ufV+zACaNUwnfJer3Yx/72JVylK+CaA3gdUsHlhKP4Tg2YUfdyCeOwBCCCMtAtb4x4VurDW86E6DVx+GdWiBtQ/gSi3wlQWnQorHFqlwHMbV6QidZVyWoHzpYK31PB1zjlbedS5KAtI3a/kR8GJRiPaKkOO7myrZ6UgfHORGkcVHyVZ9z3yJzxvzPScbAR696qOMmGLXit2Re57jEb8WA+qRpy+8pm7VyHW5LhC8THWP9Fz2YrYYj5bWlHyIOJeu8SG/t2mov4hvtk0dY+ZXBdL5KgBU9anWXf8Nv2uVoh3ZB+JIHug1dKQ48o688dphU4BHXbf3WMpjX8xbhS/hL1NF91cFd9xPIh5yQzfOZiYswqqAulQRDjiiL+ff6G8KJMGuS15fceIzvaGfUz1b/CP2DW64tCR1Bvs6RbevplLC0rG+qb7UPQb89F/JkW32rY2bKAm25Sh53Jr9yGfMjd39ov6eOFZfgAafobq1H3NMvKgk8Q+i8/Bv9TT/2uHm7gyF8A2hIpFBUCib3KN4WqRF+xJXGTZfdqH8oOSy18ooZ3+qV2UYUTyhG9YcBDbN2LPEpiQ6W9bux+xJ5XPL/pD+r5WUr/exhNFfUGjsnM+b4pdbhtS0d1D8IChrq6BRoulD8WC4xa9UStewZ2xe05c9SdYcOOJ2TUppolLB0n4IxdYIZ81K9ASdmq/MOayt9vNP94WqEL+6o19TLWtjM4G+yxAO/pwr+l4gt0k686ExO0T8sd6RDUqpL5AeYcFjcmCxRVvMwdP/y2jKd+AYir0QAMWBj4m1M521bnkr4aX0t3bd0EbqduJe+I19oN1pCHYtvp5wau0391okciOZcWgN4bcOwYGa/RSWrIw3oi/wAxzwc/c3BY5TbGxPJr5M++BF+oj8sdQTQgaU6hb6gTGnebUv4qkUP+qtkuZjHlEEh2xrpYCbylvrIsr2xNgBLilIaIbpYvq0rJnLCV8sp/cGa6IBv7MAN4gu2LO/TuFMvIm3btOOb6km1SmsRCy3CN6xZ6LvkMsV/Vsvklt1gwmCIQ1r1sK0aUZmHq79b8dtFXmvY3Ou2NWCMpY/iGflP2l796lfnnw+/w11u3RoOIHuYpMvbLPIFS2JWaIQfLRzpg2jZjm+48hyyahNptRfhH/hg5ZingbB5xuFytZWMtPX0j/JvST99DtqLeJcTvtTLSCdtbE2wgA13EKUlwao3yly45Yo+Y8yxjTXXpn636qFOitf66NvW0cCjpCN2UQd32U9grJOv1CV/KVu0l/TPo37T5tUE3c8qxtJ4A903pV8EtxFlrLbNHPUC3MNdS8dEm5vXjzwNEee5hC/+bFNP83iUfi+hb/WASzifkmyrbzHsAEf+2Dc2F/Rc9GEYE5aIwTE/cj8P7fecseI2Yx1w0cnfqCtjV+ppTSgf1O+aHxDM6KnjlrOIQIrkwUna56ZLS8C7dEpld/vb375LyqtLCqk7++yzZ6cldeC7NBDo/br5zW/e3eUud+lSpetuectbzvILKNMer10aoHZv/dZv3d373vfuzjnnnFl+2PHpRSAp9S51prqkHLp73OMe3R3veMdjSeySdSeRcF0ii7rUee8uvfTSvtzPTVTav7Svy2mQ3H9617vetbvf/e7XXXjhhXO9mu0+ddi617zmNX34aZDUXXLJJd297nWvPn9me7bhB5QLdBnxID4XX3xxr3/OO++82T6iy171qlf1393nPvfp3vIt33K2H3xwnGU17Y/epYkVJiN7vX7rW996VhqOszyVIkqeJDKjo3yde+653d3vfvfugQ98YHezm92s5HzrZ5vWb8oe+V7COxGDXZrI6eOWSNYuTWIN8fzO7/zOLk0q9L8T4TvcJ8Kvb1NTR6cv07TTZ5111vBdfkPbiYALdaAmaf/jLg32+9eJWOguu+yymlM//38E0M/oV670lUp5vC1YaUDSPfzhD++9SSRrl8jayV5S9qgfaWDcf0NZueiii2bVEcobaUyDzL6O3epWt5oc/jYOqW+JuO69oE2nD1mSNEjpEoHXv0okQvesZz2r5Gzys2315OSAduAwDWj7vjL6gP72pu3UDqK2Ey/Jq0Q09vqP/k0a+C8WDnWGMpiInu4Od7jDrDoTkaAfR5tL23nb2962S4TWVmOXVnsRYcaVup/OVujrf5SH29zmNvF69Mq3abKmu93tbtfd6U532ij9o4GMOEgEc9/WoQfI3wsuuGDki+mvd+l3KxYntY4eRz8hTdz1+op6go6nfdpEaH+TYUWXiOSeq6Cfs49xziZxXfqbfdbTk6hvo49wi1vcogotda7VFk7xo+r5KXyx6VhnV1DEuJkxODqD9ihNCG3Ei+wijgdL+O4CDPtpBIyAEaghAImRZiFrryc9T3s3d5dffvkkt3ZkBE4KAo961KO66667ro9OsjzqkoXJELUa4Ts4mHADuc+EUdonvHedrCA6wswlWSX1E6nxHIIPAt1yvAjQuWWCiUkrJFkW7XXS7DhT/7jHPa5L1oh9FNL2EUM90TgxEHjwgx/cJavB/nFaJj9MoKg73xuB04BAq704DelzGo4HAfcTjgd3h2oEjMDhI2DC9/Dz0CkwAkZgDwh8yqd8SocF4zaSli93V1555TZe+FsjsDcE0mFzHZaJ6VDTIUxIV6zgQ5YgfPELkjcdmBredmlJbPegBz2oJxKx2Ljhhhu6tD//8D4tVe5e9KIXDb99s18EsDxLhxF1lIfnPe95HVZ9SFq+1qVl5fuNzDGGhjUHkxUhaZlp95CHPKS7//3v31sbs3osbU/UW1DiBkvMtNVEt8kKjgjDVyNwEhGY0l6cxHg7ToeDgPsJh5NXjqkRMAInBwETvicnLxwTI2AETjAC6bTWLu3Jt1UM0757XTqIZSs//LER2BcC+RYMWPZi4auyFOGLlWja27SDNBgTiGHqY2t53Jgffr8dArm1Nb6xVD3tC3rGWPcGgk972tO6dFBW/Kxe0/6WfflmybzFCJw2BKa0F6ctzU7PfhFwP2G/eDs0I2AETgcCJnxPRz46FUbACBgBI2AEFkVAB/Dp4JruCU94wtqec7p3q+7hu2lEIJDZpze2B1B/2A8LC1ImTizHi0BO+KZD+Xoyk/3pz0Rhn+4rrriiS4doriU/HYzTpcOUunTCdLevvYXXIuEHRmDHCExpL3YcBXt/hiDgfsIZktFOphEwAosgYMJ3ERjtiREwAkbACBiB04UApCtLz1sHaLGvHof9IBx0Wju0ai4y7HvKHr0cdsRBOJBmS/k9Ny52v44A+fOKV7yiO//88/uD4NiqwNJ1bHXBwb2UXQ7AYm9jMLIYgdOOwJT24rRj4PTtFwH3E/aLt0MzAkbgMBEw4XuY+eZYGwEjYASMgBEwAkbACBgBI2AEjIARMAJGwAgYASNgBNYQMOG7BokfGAEjYASMgBEwAkbACBgBI2AEjIARMAJGwAgYASNgBA4TARO+h5lvjrURMAJGwAgYASNgBIyAETACRsAIGAEjYASMgBEwAkZgDQETvmuQ+IERMAJGwAgYASNgBIyAETACRsAIGAEjYASMgBEwAkbgMBEw4XuY+eZYGwEjYASMgBEwAkbACBgBI2AEjIARMAJGwAgYASNgBNYQMOG7BokfGAEjYASMgBEwAkbACBgBI2AEjIARMAJGwAgYASNgBA4TARO+h5lvjrURMAJGwAgYASNgBIyAETACRsAIGAEjYASMgBEwAkZgDQETvmuQ+IERMAJGwAgYASNgBIyAETACRsAIGAEjYASMgBEwAkbgMBEw4XuY+eZYGwEjYASMgBEwAkbACBgBI2AEjIARMAJGwAgYASNgBNYQMOG7BokfGAEjYASMgBEwAkbACBgBI2AEjIARMAJGwAgYASNgBA4TARO+h5lvjrURMAJGwAgYASNgBIyAETACRsAIGAEjYASMgBEwAkZgDQETvmuQ+IERMAJGwAgYASNgBIyAETACRsAIGAEjYASMgBEwAkbgMBEw4XuY+eZYGwEjYASMgBEwAkbACBgBI2AEjIARMAJGwAgYASNgBNYQMOG7BokfGAEjYASMgBEwAkbACBgBI2AEjIARMAJGwAgYASNgBA4TARO+h5lvjrURMAJGwAgYASNgBIyAETACRsAIGAEjYASMgBEwAkZgDQETvmuQ+IERMAJGwAgYASNgBIyAETACRsAIGAEjYASMgBEwAkbgMBEw4XuY+eZYGwEjYASMgBEwAkbACBgBI2AEjIARMAJGwAgYASNgBNYQMOG7BokfGAEjYASMgBEwAkbACBgBI2AEjIARMAJGwAgYASNgBA4TARO+h5lvjrURMAJGwAgYASNgBIyAETACRsAIGAEjYASMgBEwAkZgDQETvmuQ+IERMAJGwAgYASNgBIyAETACRsAIGAEjYASMgBEwAkbgMBEw4XuY+eZYGwEjYASMgBEwAkbACBgBI2AEjIARMAJGwAgYASNgBNYQMOG7BokfGAEjYASMgBEwAkbACBgBI2AEjIARMAJGwAgYASNgBA4TARO+h5lvjrURMAJGwAgYASNgBIyAETACRsAIGAEjYASMgBEwAkZgDQETvmuQ+IERMAJGwAgYASNgBIyAETACRsAIGAEjYASMgBEwAkbgMBH4Px1W6oz7q4PvAAAAAElFTkSuQmCC;" vertex="1" parent="1">
          <mxGeometry x="313" y="217.5" width="685.39" height="165" as="geometry" />
        </mxCell>
        <mxCell id="Pdjdoba8uWya8kQKOQx_-121" value="" style="shape=orEllipse;perimeter=ellipsePerimeter;whiteSpace=wrap;html=1;backgroundOutline=1;" vertex="1" parent="1">
          <mxGeometry x="612" y="812" width="16" height="16" as="geometry" />
        </mxCell>
        <mxCell id="Pdjdoba8uWya8kQKOQx_-122" value="" style="shape=sumEllipse;perimeter=ellipsePerimeter;whiteSpace=wrap;html=1;backgroundOutline=1;" vertex="1" parent="1">
          <mxGeometry x="230" y="1010" width="20" height="20" as="geometry" />
        </mxCell>
        <mxCell id="Pdjdoba8uWya8kQKOQx_-123" value="" style="shape=sumEllipse;perimeter=ellipsePerimeter;whiteSpace=wrap;html=1;backgroundOutline=1;" vertex="1" parent="1">
          <mxGeometry x="230" y="1170" width="20" height="20" as="geometry" />
        </mxCell>
        <mxCell id="Pdjdoba8uWya8kQKOQx_-125" value="E&lt;sub style=&quot;font-size: 8px;&quot;&gt;img0&lt;/sub&gt;" style="rounded=0;whiteSpace=wrap;html=1;fontSize=8;fillColor=#d5e8d4;strokeColor=#82b366;sketch=1;curveFitting=1;jiggle=2;" vertex="1" parent="1">
          <mxGeometry x="520" y="978" width="40" height="40" as="geometry" />
        </mxCell>
        <mxCell id="Pdjdoba8uWya8kQKOQx_-126" value="E&lt;sub style=&quot;font-size: 8px;&quot;&gt;img1&lt;/sub&gt;" style="rounded=0;whiteSpace=wrap;html=1;fontSize=8;fillColor=#d5e8d4;strokeColor=#82b366;sketch=1;curveFitting=1;jiggle=2;" vertex="1" parent="1">
          <mxGeometry x="560" y="978" width="40" height="40" as="geometry" />
        </mxCell>
        <mxCell id="Pdjdoba8uWya8kQKOQx_-127" value="E&lt;sub style=&quot;font-size: 8px;&quot;&gt;img2&lt;/sub&gt;" style="rounded=0;whiteSpace=wrap;html=1;fontSize=8;fillColor=#d5e8d4;strokeColor=#82b366;sketch=1;curveFitting=1;jiggle=2;" vertex="1" parent="1">
          <mxGeometry x="600" y="978" width="40" height="40" as="geometry" />
        </mxCell>
        <mxCell id="Pdjdoba8uWya8kQKOQx_-129" value=". . ." style="rounded=0;whiteSpace=wrap;html=1;fontSize=8;fillColor=#d5e8d4;strokeColor=#82b366;sketch=1;curveFitting=1;jiggle=2;" vertex="1" parent="1">
          <mxGeometry x="640" y="978" width="40" height="40" as="geometry" />
        </mxCell>
        <mxCell id="Pdjdoba8uWya8kQKOQx_-130" value="E&lt;sub style=&quot;font-size: 8px;&quot;&gt;imgn&lt;/sub&gt;" style="rounded=0;whiteSpace=wrap;html=1;fontSize=8;fillColor=#d5e8d4;strokeColor=#82b366;sketch=1;curveFitting=1;jiggle=2;" vertex="1" parent="1">
          <mxGeometry x="680" y="978" width="40" height="40" as="geometry" />
        </mxCell>
        <mxCell id="Pdjdoba8uWya8kQKOQx_-131" value="E&lt;sub style=&quot;font-size: 8px;&quot;&gt;text&lt;span style=&quot;font-size: 8px;&quot;&gt;0&lt;/span&gt;&lt;/sub&gt;" style="rounded=0;whiteSpace=wrap;html=1;fontSize=8;fillColor=#f8cecc;strokeColor=#b85450;sketch=1;curveFitting=1;jiggle=2;" vertex="1" parent="1">
          <mxGeometry x="480" y="1018" width="40" height="40" as="geometry" />
        </mxCell>
        <mxCell id="Pdjdoba8uWya8kQKOQx_-137" value="E&lt;sub style=&quot;font-size: 8px;&quot;&gt;text1&lt;/sub&gt;" style="rounded=0;whiteSpace=wrap;html=1;fontSize=8;fillColor=#f8cecc;strokeColor=#b85450;sketch=1;curveFitting=1;jiggle=2;" vertex="1" parent="1">
          <mxGeometry x="480" y="1058" width="40" height="40" as="geometry" />
        </mxCell>
        <mxCell id="Pdjdoba8uWya8kQKOQx_-138" value="E&lt;sub style=&quot;font-size: 8px;&quot;&gt;text2&lt;/sub&gt;" style="rounded=0;whiteSpace=wrap;html=1;fontSize=8;fillColor=#f8cecc;strokeColor=#b85450;sketch=1;curveFitting=1;jiggle=2;" vertex="1" parent="1">
          <mxGeometry x="480" y="1098" width="40" height="40" as="geometry" />
        </mxCell>
        <mxCell id="Pdjdoba8uWya8kQKOQx_-140" value=".&lt;br style=&quot;border-color: var(--border-color); font-size: 8px;&quot;&gt;.&lt;br style=&quot;border-color: var(--border-color); font-size: 8px;&quot;&gt;." style="rounded=0;whiteSpace=wrap;html=1;fontSize=8;fillColor=#f8cecc;strokeColor=#b85450;sketch=1;curveFitting=1;jiggle=2;" vertex="1" parent="1">
          <mxGeometry x="480" y="1138" width="40" height="40" as="geometry" />
        </mxCell>
        <mxCell id="Pdjdoba8uWya8kQKOQx_-141" value="E&lt;sub style=&quot;font-size: 8px;&quot;&gt;textn&lt;/sub&gt;" style="rounded=0;whiteSpace=wrap;html=1;fontSize=8;fillColor=#f8cecc;strokeColor=#b85450;sketch=1;curveFitting=1;jiggle=2;" vertex="1" parent="1">
          <mxGeometry x="480" y="1178" width="40" height="40" as="geometry" />
        </mxCell>
        <mxCell id="Pdjdoba8uWya8kQKOQx_-142" value="E&lt;sub style=&quot;font-size: 8px;&quot;&gt;I0&lt;/sub&gt; * E&lt;sub style=&quot;font-size: 8px;&quot;&gt;T0&lt;/sub&gt;" style="rounded=0;whiteSpace=wrap;html=1;fillColor=#dae8fc;strokeColor=#6c8ebf;fontSize=8;" vertex="1" parent="1">
          <mxGeometry x="520" y="1018" width="40" height="40" as="geometry" />
        </mxCell>
        <mxCell id="Pdjdoba8uWya8kQKOQx_-143" value="E&lt;sub style=&quot;border-color: var(--border-color); font-size: 8px;&quot;&gt;I1&lt;/sub&gt;&amp;nbsp;* E&lt;sub style=&quot;border-color: var(--border-color); font-size: 8px;&quot;&gt;T0&lt;/sub&gt;" style="rounded=0;whiteSpace=wrap;html=1;fontSize=8;" vertex="1" parent="1">
          <mxGeometry x="560" y="1018" width="40" height="40" as="geometry" />
        </mxCell>
        <mxCell id="Pdjdoba8uWya8kQKOQx_-144" value="E&lt;sub style=&quot;border-color: var(--border-color); font-size: 8px;&quot;&gt;I0&lt;/sub&gt;&amp;nbsp;* E&lt;sub style=&quot;border-color: var(--border-color); font-size: 8px;&quot;&gt;T1&lt;/sub&gt;" style="rounded=0;whiteSpace=wrap;html=1;fontSize=8;" vertex="1" parent="1">
          <mxGeometry x="520" y="1058" width="40" height="40" as="geometry" />
        </mxCell>
        <mxCell id="Pdjdoba8uWya8kQKOQx_-145" value="E&lt;sub style=&quot;border-color: var(--border-color); font-size: 8px;&quot;&gt;I1&lt;/sub&gt;&amp;nbsp;* E&lt;sub style=&quot;border-color: var(--border-color); font-size: 8px;&quot;&gt;T1&lt;/sub&gt;" style="rounded=0;whiteSpace=wrap;html=1;fillColor=#dae8fc;strokeColor=#6c8ebf;fontSize=8;" vertex="1" parent="1">
          <mxGeometry x="560" y="1058" width="40" height="40" as="geometry" />
        </mxCell>
        <mxCell id="Pdjdoba8uWya8kQKOQx_-146" value="E&lt;sub style=&quot;border-color: var(--border-color); font-size: 8px;&quot;&gt;I0&lt;/sub&gt;&amp;nbsp;* E&lt;sub style=&quot;border-color: var(--border-color); font-size: 8px;&quot;&gt;T2&lt;/sub&gt;" style="rounded=0;whiteSpace=wrap;html=1;fontSize=8;" vertex="1" parent="1">
          <mxGeometry x="520" y="1098" width="40" height="40" as="geometry" />
        </mxCell>
        <mxCell id="Pdjdoba8uWya8kQKOQx_-147" value="E&lt;sub style=&quot;border-color: var(--border-color); font-size: 8px;&quot;&gt;I1&lt;/sub&gt;&amp;nbsp;* E&lt;sub style=&quot;border-color: var(--border-color); font-size: 8px;&quot;&gt;T2&lt;/sub&gt;" style="rounded=0;whiteSpace=wrap;html=1;fontSize=8;" vertex="1" parent="1">
          <mxGeometry x="560" y="1098" width="40" height="40" as="geometry" />
        </mxCell>
        <mxCell id="Pdjdoba8uWya8kQKOQx_-150" value=".&lt;br style=&quot;font-size: 8px;&quot;&gt;.&lt;br style=&quot;font-size: 8px;&quot;&gt;." style="rounded=0;whiteSpace=wrap;html=1;fontSize=8;" vertex="1" parent="1">
          <mxGeometry x="520" y="1138" width="40" height="40" as="geometry" />
        </mxCell>
        <mxCell id="Pdjdoba8uWya8kQKOQx_-151" value=".&lt;br style=&quot;border-color: var(--border-color); font-size: 8px;&quot;&gt;.&lt;br style=&quot;border-color: var(--border-color); font-size: 8px;&quot;&gt;." style="rounded=0;whiteSpace=wrap;html=1;fontSize=8;" vertex="1" parent="1">
          <mxGeometry x="560" y="1138" width="40" height="40" as="geometry" />
        </mxCell>
        <mxCell id="Pdjdoba8uWya8kQKOQx_-152" value="E&lt;sub style=&quot;border-color: var(--border-color); font-size: 8px;&quot;&gt;In&lt;/sub&gt;&amp;nbsp;* E&lt;sub style=&quot;border-color: var(--border-color); font-size: 8px;&quot;&gt;Tn&lt;/sub&gt;" style="rounded=0;whiteSpace=wrap;html=1;fontSize=8;" vertex="1" parent="1">
          <mxGeometry x="520" y="1178" width="40" height="40" as="geometry" />
        </mxCell>
        <mxCell id="Pdjdoba8uWya8kQKOQx_-153" value="E&lt;sub style=&quot;border-color: var(--border-color); font-size: 8px;&quot;&gt;I1&lt;/sub&gt;&amp;nbsp;* E&lt;sub style=&quot;border-color: var(--border-color); font-size: 8px;&quot;&gt;Tn&lt;/sub&gt;" style="rounded=0;whiteSpace=wrap;html=1;fontSize=8;" vertex="1" parent="1">
          <mxGeometry x="560" y="1178" width="40" height="40" as="geometry" />
        </mxCell>
        <mxCell id="Pdjdoba8uWya8kQKOQx_-154" value="E&lt;sub style=&quot;border-color: var(--border-color); font-size: 8px;&quot;&gt;I2&lt;/sub&gt;&amp;nbsp;* E&lt;sub style=&quot;border-color: var(--border-color); font-size: 8px;&quot;&gt;T0&lt;/sub&gt;" style="rounded=0;whiteSpace=wrap;html=1;fontSize=8;" vertex="1" parent="1">
          <mxGeometry x="600" y="1018" width="40" height="40" as="geometry" />
        </mxCell>
        <mxCell id="Pdjdoba8uWya8kQKOQx_-156" value="E&lt;sub style=&quot;border-color: var(--border-color); font-size: 8px;&quot;&gt;I2&lt;/sub&gt;&amp;nbsp;* E&lt;sub style=&quot;border-color: var(--border-color); font-size: 8px;&quot;&gt;T1&lt;/sub&gt;" style="rounded=0;whiteSpace=wrap;html=1;fontSize=8;" vertex="1" parent="1">
          <mxGeometry x="600" y="1058" width="40" height="40" as="geometry" />
        </mxCell>
        <mxCell id="Pdjdoba8uWya8kQKOQx_-158" value="E&lt;sub style=&quot;border-color: var(--border-color); font-size: 8px;&quot;&gt;I2&lt;/sub&gt;&amp;nbsp;* E&lt;sub style=&quot;border-color: var(--border-color); font-size: 8px;&quot;&gt;T2&lt;/sub&gt;" style="rounded=0;whiteSpace=wrap;html=1;fillColor=#dae8fc;strokeColor=#6c8ebf;fontSize=8;" vertex="1" parent="1">
          <mxGeometry x="600" y="1098" width="40" height="40" as="geometry" />
        </mxCell>
        <mxCell id="Pdjdoba8uWya8kQKOQx_-162" value=".&lt;br style=&quot;border-color: var(--border-color); font-size: 8px;&quot;&gt;.&lt;br style=&quot;border-color: var(--border-color); font-size: 8px;&quot;&gt;." style="rounded=0;whiteSpace=wrap;html=1;fontSize=8;" vertex="1" parent="1">
          <mxGeometry x="600" y="1138" width="40" height="40" as="geometry" />
        </mxCell>
        <mxCell id="Pdjdoba8uWya8kQKOQx_-164" value="E&lt;sub style=&quot;border-color: var(--border-color); font-size: 8px;&quot;&gt;I2&lt;/sub&gt;&amp;nbsp;* E&lt;sub style=&quot;border-color: var(--border-color); font-size: 8px;&quot;&gt;Tn&lt;/sub&gt;" style="rounded=0;whiteSpace=wrap;html=1;fontSize=8;" vertex="1" parent="1">
          <mxGeometry x="600" y="1178" width="40" height="40" as="geometry" />
        </mxCell>
        <mxCell id="Pdjdoba8uWya8kQKOQx_-166" value=". . ." style="rounded=0;whiteSpace=wrap;html=1;fontSize=8;" vertex="1" parent="1">
          <mxGeometry x="640" y="1018" width="40" height="40" as="geometry" />
        </mxCell>
        <mxCell id="Pdjdoba8uWya8kQKOQx_-167" value="E&lt;sub style=&quot;border-color: var(--border-color); font-size: 8px;&quot;&gt;In&lt;/sub&gt;&amp;nbsp;* E&lt;sub style=&quot;border-color: var(--border-color); font-size: 8px;&quot;&gt;T0&lt;/sub&gt;" style="rounded=0;whiteSpace=wrap;html=1;fontSize=8;" vertex="1" parent="1">
          <mxGeometry x="680" y="1018" width="40" height="40" as="geometry" />
        </mxCell>
        <mxCell id="Pdjdoba8uWya8kQKOQx_-168" value=". . ." style="rounded=0;whiteSpace=wrap;html=1;fontSize=8;" vertex="1" parent="1">
          <mxGeometry x="640" y="1058" width="40" height="40" as="geometry" />
        </mxCell>
        <mxCell id="Pdjdoba8uWya8kQKOQx_-169" value="E&lt;sub style=&quot;border-color: var(--border-color); font-size: 8px;&quot;&gt;In&lt;/sub&gt;&amp;nbsp;* E&lt;sub style=&quot;border-color: var(--border-color); font-size: 8px;&quot;&gt;T1&lt;/sub&gt;" style="rounded=0;whiteSpace=wrap;html=1;fontSize=8;" vertex="1" parent="1">
          <mxGeometry x="680" y="1058" width="40" height="40" as="geometry" />
        </mxCell>
        <mxCell id="Pdjdoba8uWya8kQKOQx_-170" value=". . ." style="rounded=0;whiteSpace=wrap;html=1;fontSize=8;" vertex="1" parent="1">
          <mxGeometry x="640" y="1098" width="40" height="40" as="geometry" />
        </mxCell>
        <mxCell id="Pdjdoba8uWya8kQKOQx_-171" value="E&lt;sub style=&quot;border-color: var(--border-color); font-size: 8px;&quot;&gt;In&lt;/sub&gt;&amp;nbsp;* E&lt;sub style=&quot;border-color: var(--border-color); font-size: 8px;&quot;&gt;T2&lt;/sub&gt;" style="rounded=0;whiteSpace=wrap;html=1;fontSize=8;" vertex="1" parent="1">
          <mxGeometry x="680" y="1098" width="40" height="40" as="geometry" />
        </mxCell>
        <mxCell id="Pdjdoba8uWya8kQKOQx_-174" value=".&amp;nbsp; &amp;nbsp; &amp;nbsp;&lt;br style=&quot;border-color: var(--border-color); font-size: 8px;&quot;&gt;.&lt;br style=&quot;border-color: var(--border-color); font-size: 8px;&quot;&gt;&amp;nbsp; &amp;nbsp; &amp;nbsp;." style="rounded=0;whiteSpace=wrap;html=1;fillColor=#dae8fc;strokeColor=#6c8ebf;fontSize=8;" vertex="1" parent="1">
          <mxGeometry x="640" y="1138" width="40" height="40" as="geometry" />
        </mxCell>
        <mxCell id="Pdjdoba8uWya8kQKOQx_-175" value=".&lt;br style=&quot;border-color: var(--border-color); font-size: 8px;&quot;&gt;.&lt;br style=&quot;border-color: var(--border-color); font-size: 8px;&quot;&gt;." style="rounded=0;whiteSpace=wrap;html=1;fontSize=8;" vertex="1" parent="1">
          <mxGeometry x="680" y="1138" width="40" height="40" as="geometry" />
        </mxCell>
        <mxCell id="Pdjdoba8uWya8kQKOQx_-176" value=". . ." style="rounded=0;whiteSpace=wrap;html=1;fontSize=8;" vertex="1" parent="1">
          <mxGeometry x="640" y="1178" width="40" height="40" as="geometry" />
        </mxCell>
        <mxCell id="Pdjdoba8uWya8kQKOQx_-177" value="E&lt;sub style=&quot;border-color: var(--border-color); font-size: 8px;&quot;&gt;In&lt;/sub&gt;&amp;nbsp;* E&lt;sub style=&quot;border-color: var(--border-color); font-size: 8px;&quot;&gt;Tn&lt;/sub&gt;" style="rounded=0;whiteSpace=wrap;html=1;fillColor=#dae8fc;strokeColor=#6c8ebf;fontSize=8;" vertex="1" parent="1">
          <mxGeometry x="680" y="1178" width="40" height="40" as="geometry" />
        </mxCell>
        <mxCell id="Pdjdoba8uWya8kQKOQx_-178" value="E&lt;sub style=&quot;font-size: 8px;&quot;&gt;img0&lt;/sub&gt;" style="rounded=0;whiteSpace=wrap;html=1;fontSize=8;fillColor=#d5e8d4;strokeColor=#82b366;sketch=1;curveFitting=1;jiggle=2;" vertex="1" parent="1">
          <mxGeometry x="520" y="1280" width="40" height="40" as="geometry" />
        </mxCell>
        <mxCell id="Pdjdoba8uWya8kQKOQx_-179" value="E&lt;sub style=&quot;font-size: 8px;&quot;&gt;img1&lt;/sub&gt;" style="rounded=0;whiteSpace=wrap;html=1;fontSize=8;fillColor=#d5e8d4;strokeColor=#82b366;sketch=1;curveFitting=1;jiggle=2;" vertex="1" parent="1">
          <mxGeometry x="560" y="1280" width="40" height="40" as="geometry" />
        </mxCell>
        <mxCell id="Pdjdoba8uWya8kQKOQx_-180" value="E&lt;sub style=&quot;font-size: 8px;&quot;&gt;img2&lt;/sub&gt;" style="rounded=0;whiteSpace=wrap;html=1;fontSize=8;fillColor=#d5e8d4;strokeColor=#82b366;sketch=1;curveFitting=1;jiggle=2;" vertex="1" parent="1">
          <mxGeometry x="600" y="1280" width="40" height="40" as="geometry" />
        </mxCell>
        <mxCell id="Pdjdoba8uWya8kQKOQx_-181" value=". . ." style="rounded=0;whiteSpace=wrap;html=1;fontSize=8;fillColor=#d5e8d4;strokeColor=#82b366;sketch=1;curveFitting=1;jiggle=2;" vertex="1" parent="1">
          <mxGeometry x="640" y="1280" width="40" height="40" as="geometry" />
        </mxCell>
        <mxCell id="Pdjdoba8uWya8kQKOQx_-182" value="E&lt;sub style=&quot;font-size: 8px;&quot;&gt;imgn&lt;/sub&gt;" style="rounded=0;whiteSpace=wrap;html=1;fontSize=8;fillColor=#d5e8d4;strokeColor=#82b366;sketch=1;curveFitting=1;jiggle=2;" vertex="1" parent="1">
          <mxGeometry x="680" y="1280" width="40" height="40" as="geometry" />
        </mxCell>
        <mxCell id="Pdjdoba8uWya8kQKOQx_-183" value="E&lt;sub style=&quot;font-size: 8px;&quot;&gt;text&lt;span style=&quot;font-size: 8px;&quot;&gt;0&lt;/span&gt;&lt;/sub&gt;" style="rounded=0;whiteSpace=wrap;html=1;fontSize=8;fillColor=#f8cecc;strokeColor=#b85450;sketch=1;curveFitting=1;jiggle=2;" vertex="1" parent="1">
          <mxGeometry x="480" y="1320" width="40" height="40" as="geometry" />
        </mxCell>
        <mxCell id="Pdjdoba8uWya8kQKOQx_-184" value="E&lt;sub style=&quot;font-size: 8px;&quot;&gt;text1&lt;/sub&gt;" style="rounded=0;whiteSpace=wrap;html=1;fontSize=8;fillColor=#f8cecc;strokeColor=#b85450;sketch=1;curveFitting=1;jiggle=2;" vertex="1" parent="1">
          <mxGeometry x="480" y="1360" width="40" height="40" as="geometry" />
        </mxCell>
        <mxCell id="Pdjdoba8uWya8kQKOQx_-185" value="E&lt;sub style=&quot;font-size: 8px;&quot;&gt;text2&lt;/sub&gt;" style="rounded=0;whiteSpace=wrap;html=1;fontSize=8;fillColor=#f8cecc;strokeColor=#b85450;sketch=1;curveFitting=1;jiggle=2;" vertex="1" parent="1">
          <mxGeometry x="480" y="1400" width="40" height="40" as="geometry" />
        </mxCell>
        <mxCell id="Pdjdoba8uWya8kQKOQx_-186" value=".&lt;br style=&quot;border-color: var(--border-color); font-size: 8px;&quot;&gt;.&lt;br style=&quot;border-color: var(--border-color); font-size: 8px;&quot;&gt;." style="rounded=0;whiteSpace=wrap;html=1;fontSize=8;fillColor=#f8cecc;strokeColor=#b85450;sketch=1;curveFitting=1;jiggle=2;" vertex="1" parent="1">
          <mxGeometry x="480" y="1440" width="40" height="40" as="geometry" />
        </mxCell>
        <mxCell id="Pdjdoba8uWya8kQKOQx_-187" value="E&lt;sub style=&quot;font-size: 8px;&quot;&gt;textn&lt;/sub&gt;" style="rounded=0;whiteSpace=wrap;html=1;fontSize=8;fillColor=#f8cecc;strokeColor=#b85450;sketch=1;curveFitting=1;jiggle=2;" vertex="1" parent="1">
          <mxGeometry x="480" y="1480" width="40" height="40" as="geometry" />
        </mxCell>
        <mxCell id="Pdjdoba8uWya8kQKOQx_-188" value="1" style="rounded=0;whiteSpace=wrap;html=1;fillColor=#dae8fc;strokeColor=#6c8ebf;fontSize=8;" vertex="1" parent="1">
          <mxGeometry x="520" y="1320" width="40" height="40" as="geometry" />
        </mxCell>
        <mxCell id="Pdjdoba8uWya8kQKOQx_-189" value="0" style="rounded=0;whiteSpace=wrap;html=1;fontSize=8;" vertex="1" parent="1">
          <mxGeometry x="560" y="1320" width="40" height="40" as="geometry" />
        </mxCell>
        <mxCell id="Pdjdoba8uWya8kQKOQx_-190" value="0" style="rounded=0;whiteSpace=wrap;html=1;fontSize=8;" vertex="1" parent="1">
          <mxGeometry x="520" y="1360" width="40" height="40" as="geometry" />
        </mxCell>
        <mxCell id="Pdjdoba8uWya8kQKOQx_-191" value="1" style="rounded=0;whiteSpace=wrap;html=1;fillColor=#dae8fc;strokeColor=#6c8ebf;fontSize=8;" vertex="1" parent="1">
          <mxGeometry x="560" y="1360" width="40" height="40" as="geometry" />
        </mxCell>
        <mxCell id="Pdjdoba8uWya8kQKOQx_-192" value="0" style="rounded=0;whiteSpace=wrap;html=1;fontSize=8;" vertex="1" parent="1">
          <mxGeometry x="520" y="1400" width="40" height="40" as="geometry" />
        </mxCell>
        <mxCell id="Pdjdoba8uWya8kQKOQx_-193" value="0" style="rounded=0;whiteSpace=wrap;html=1;fontSize=8;" vertex="1" parent="1">
          <mxGeometry x="560" y="1400" width="40" height="40" as="geometry" />
        </mxCell>
        <mxCell id="Pdjdoba8uWya8kQKOQx_-194" value="0" style="rounded=0;whiteSpace=wrap;html=1;fontSize=8;" vertex="1" parent="1">
          <mxGeometry x="520" y="1440" width="40" height="40" as="geometry" />
        </mxCell>
        <mxCell id="Pdjdoba8uWya8kQKOQx_-195" value="0" style="rounded=0;whiteSpace=wrap;html=1;fontSize=8;" vertex="1" parent="1">
          <mxGeometry x="560" y="1440" width="40" height="42" as="geometry" />
        </mxCell>
        <mxCell id="Pdjdoba8uWya8kQKOQx_-196" value="0" style="rounded=0;whiteSpace=wrap;html=1;fontSize=8;" vertex="1" parent="1">
          <mxGeometry x="520" y="1480" width="40" height="40" as="geometry" />
        </mxCell>
        <mxCell id="Pdjdoba8uWya8kQKOQx_-197" value="0" style="rounded=0;whiteSpace=wrap;html=1;fontSize=8;" vertex="1" parent="1">
          <mxGeometry x="560" y="1480" width="40" height="40" as="geometry" />
        </mxCell>
        <mxCell id="Pdjdoba8uWya8kQKOQx_-198" value="0" style="rounded=0;whiteSpace=wrap;html=1;fontSize=8;" vertex="1" parent="1">
          <mxGeometry x="600" y="1320" width="40" height="40" as="geometry" />
        </mxCell>
        <mxCell id="Pdjdoba8uWya8kQKOQx_-199" value="0" style="rounded=0;whiteSpace=wrap;html=1;fontSize=8;" vertex="1" parent="1">
          <mxGeometry x="600" y="1360" width="40" height="40" as="geometry" />
        </mxCell>
        <mxCell id="Pdjdoba8uWya8kQKOQx_-200" value="1" style="rounded=0;whiteSpace=wrap;html=1;fillColor=#dae8fc;strokeColor=#6c8ebf;fontSize=8;" vertex="1" parent="1">
          <mxGeometry x="600" y="1400" width="40" height="40" as="geometry" />
        </mxCell>
        <mxCell id="Pdjdoba8uWya8kQKOQx_-201" value="0" style="rounded=0;whiteSpace=wrap;html=1;fontSize=8;" vertex="1" parent="1">
          <mxGeometry x="600" y="1440" width="40" height="40" as="geometry" />
        </mxCell>
        <mxCell id="Pdjdoba8uWya8kQKOQx_-202" value="0" style="rounded=0;whiteSpace=wrap;html=1;fontSize=8;" vertex="1" parent="1">
          <mxGeometry x="600" y="1480" width="40" height="40" as="geometry" />
        </mxCell>
        <mxCell id="Pdjdoba8uWya8kQKOQx_-203" value="0" style="rounded=0;whiteSpace=wrap;html=1;fontSize=8;" vertex="1" parent="1">
          <mxGeometry x="640" y="1320" width="40" height="40" as="geometry" />
        </mxCell>
        <mxCell id="Pdjdoba8uWya8kQKOQx_-204" value="0" style="rounded=0;whiteSpace=wrap;html=1;fontSize=8;" vertex="1" parent="1">
          <mxGeometry x="680" y="1320" width="40" height="40" as="geometry" />
        </mxCell>
        <mxCell id="Pdjdoba8uWya8kQKOQx_-205" value="0" style="rounded=0;whiteSpace=wrap;html=1;fontSize=8;" vertex="1" parent="1">
          <mxGeometry x="640" y="1360" width="40" height="40" as="geometry" />
        </mxCell>
        <mxCell id="Pdjdoba8uWya8kQKOQx_-206" value="0" style="rounded=0;whiteSpace=wrap;html=1;fontSize=8;" vertex="1" parent="1">
          <mxGeometry x="680" y="1360" width="40" height="40" as="geometry" />
        </mxCell>
        <mxCell id="Pdjdoba8uWya8kQKOQx_-207" value="0" style="rounded=0;whiteSpace=wrap;html=1;fontSize=8;" vertex="1" parent="1">
          <mxGeometry x="640" y="1400" width="40" height="40" as="geometry" />
        </mxCell>
        <mxCell id="Pdjdoba8uWya8kQKOQx_-208" value="0" style="rounded=0;whiteSpace=wrap;html=1;fontSize=8;" vertex="1" parent="1">
          <mxGeometry x="680" y="1400" width="40" height="40" as="geometry" />
        </mxCell>
        <mxCell id="Pdjdoba8uWya8kQKOQx_-209" value="1" style="rounded=0;whiteSpace=wrap;html=1;fillColor=#dae8fc;strokeColor=#6c8ebf;fontSize=8;" vertex="1" parent="1">
          <mxGeometry x="640" y="1440" width="40" height="40" as="geometry" />
        </mxCell>
        <mxCell id="Pdjdoba8uWya8kQKOQx_-210" value="0" style="rounded=0;whiteSpace=wrap;html=1;fontSize=8;" vertex="1" parent="1">
          <mxGeometry x="680" y="1440" width="40" height="40" as="geometry" />
        </mxCell>
        <mxCell id="Pdjdoba8uWya8kQKOQx_-211" value="0" style="rounded=0;whiteSpace=wrap;html=1;fontSize=8;" vertex="1" parent="1">
          <mxGeometry x="640" y="1480" width="40" height="40" as="geometry" />
        </mxCell>
        <mxCell id="Pdjdoba8uWya8kQKOQx_-212" value="1" style="rounded=0;whiteSpace=wrap;html=1;fillColor=#dae8fc;strokeColor=#6c8ebf;fontSize=8;" vertex="1" parent="1">
          <mxGeometry x="680" y="1480" width="40" height="40" as="geometry" />
        </mxCell>
        <mxCell id="Pdjdoba8uWya8kQKOQx_-213" value="&lt;font style=&quot;font-size: 20px;&quot;&gt;Best Logits&lt;/font&gt;" style="text;html=1;strokeColor=none;fillColor=none;align=center;verticalAlign=middle;whiteSpace=wrap;rounded=0;" vertex="1" parent="1">
          <mxGeometry x="240" y="1380" width="160" height="40" as="geometry" />
        </mxCell>
      </root>
    </mxGraphModel>
  </diagram>
</mxfile>
